<svg xmlns="http://www.w3.org/2000/svg" width="319" height="270" viewBox="0 0 319 270" fill="none">
  <path opacity="0.1" d="M289.287 0.821234C288.036 0.955043 286.83 1.22266 285.668 1.49028C182.729 21.3832 147.165 107.734 136.665 143.818C134.431 151.49 125.808 155.326 118.66 151.802C98.7333 142.079 58.7907 127.627 5.98069 133.292C-71.3131 141.588 -108.352 212.774 -108.352 212.774L-102.186 269.866C-102.186 269.866 -75.6469 187.351 10.2698 178.162C72.3283 171.516 113.656 212.73 131.795 236.146C139.167 245.646 150.873 250.597 162.802 249.349C177.055 247.832 187.465 235.388 186.75 221.07C179.199 73.7915 294.872 52.6944 294.872 52.6944C309.214 51.1333 319.624 38.2877 318.06 23.9701C316.496 9.65261 303.629 -0.739867 289.287 0.821234Z" fill="url(#paint0_linear_14613_6640)"/>
  <defs>
    <linearGradient id="paint0_linear_14613_6640" x1="-75.5966" y1="167.525" x2="345.375" y2="57.8187" gradientUnits="userSpaceOnUse">
      <stop offset="0.04" stop-color="#292664" stop-opacity="0"/>
      <stop offset="0.24" stop-color="#6B8ED2" stop-opacity="0.24"/>
      <stop offset="0.43" stop-color="#5CBAFF"/>
      <stop offset="0.75" stop-color="#E759AE"/>
      <stop offset="0.99" stop-color="#F4475C"/>
    </linearGradient>
  </defs>
</svg>