<svg xmlns="http://www.w3.org/2000/svg" width="1366" height="332" viewBox="0 0 1366 332" fill="none">
  <path opacity="0.05" d="M1273 0.789885C1268.99 1.21826 1265.13 2.075 1261.41 2.93175C931.864 66.6168 818.009 343.061 784.396 458.579C777.244 483.14 749.639 495.42 726.753 484.139C662.961 453.011 535.089 406.746 366.023 424.881C118.575 451.44 0 679.335 0 679.335L19.7386 862.108C19.7386 862.108 104.701 597.944 379.754 568.529C578.428 547.253 710.734 679.192 768.805 754.158C792.406 784.573 829.881 800.422 868.071 796.424C913.698 791.569 947.025 751.73 944.737 705.894C920.564 234.397 1290.88 166.856 1290.88 166.856C1336.79 161.859 1370.12 120.735 1365.11 74.8987C1360.11 29.0626 1318.91 -4.20782 1273 0.789885Z" fill="url(#paint0_linear_14613_619)"/>
  <defs>
    <linearGradient id="paint0_linear_14613_619" x1="597.5" y1="444.5" x2="1452.68" y2="183.925" gradientUnits="userSpaceOnUse">
      <stop offset="0.04" stop-color="#292664" stop-opacity="0"/>
      <stop offset="0.24" stop-color="#6B8ED2" stop-opacity="0.24"/>
      <stop offset="0.43" stop-color="#5CBAFF"/>
      <stop offset="0.75" stop-color="#E759AE"/>
      <stop offset="0.99" stop-color="#F4475C"/>
    </linearGradient>
  </defs>
</svg>