<svg width="198" height="145" viewBox="0 0 198 145" fill="none" xmlns="http://www.w3.org/2000/svg">
<path d="M111.887 71.124H103.891V105.09H111.887V71.124Z" fill="white"/>
<path d="M128.3 86.0484C127.038 86.0484 126.015 85.0366 126.015 83.7963V75.2668C126.102 72.09 130.824 72.0791 130.911 75.2668V81.7945H135.067V77.3013C134.708 68.6847 122.218 68.6847 121.859 77.3013V85.2541C121.87 85.809 122.055 87.4627 123.654 88.2134C122.839 88.605 121.859 89.4319 121.859 91.2052V99.0711C122.218 107.688 134.708 107.688 135.067 99.0711V90.1608H137.852V86.0484H128.3ZM128.474 103.532C127.125 103.532 126.026 102.444 126.026 101.116V92.4237C126.026 91.1834 127.049 90.1717 128.311 90.1717H130.922V101.127C130.922 102.455 129.823 103.532 128.474 103.532Z" fill="white"/>
<path d="M8.33813 105.09C8.32725 90.0437 7.35898 69.6011 14.5285 57.6773C15.388 56.1541 16.6718 56.1868 17.5313 57.7208C23.5258 68.2086 23.9937 85.3872 23.6564 105.09H31.9792V90.7835C31.9792 71.0808 23.8849 60.7344 19.1958 56.3935C17.4225 54.7507 14.7244 54.7181 12.9401 56.35C-0.637425 69.0028 -0.028176 88.2921 0.0153418 105.09H8.33813Z" fill="white"/>
<path d="M50.3523 105.09V81.6013C50.3523 77.6738 53.3551 74.4861 57.0432 74.4861C60.7313 74.4861 63.7232 77.6629 63.7232 81.5904V105.101H72.1221V81.6121C72.1221 77.6846 75.1248 74.497 78.813 74.497C82.5011 74.497 85.493 77.6738 85.493 81.6013V105.112H93.8919V86.9105C93.9681 72.7454 77.3878 65.3147 67.9226 75.8351C58.4466 65.3147 41.8772 72.7563 41.9534 86.9105V105.112H50.3523V105.09Z" fill="white"/>
<path d="M154.443 105.088V65.791C154.443 61.8962 157.446 58.7302 161.134 58.7302C164.822 58.7302 167.814 61.8853 167.814 65.7693V105.077H176.224V65.7801C176.224 61.8853 179.226 58.7194 182.915 58.7194C186.603 58.7194 189.595 61.8744 189.595 65.7584V105.066H197.993V71.0132C198.07 56.9678 181.5 49.6024 172.024 60.0249C162.548 49.5915 145.979 56.9678 146.055 71.0132V105.066H154.454L154.443 105.088Z" fill="white"/>
<path d="M18.1164 82.2303C16.9414 83.4053 15.0484 83.4053 13.8734 82.2303C12.6984 81.0553 12.6984 79.1623 13.8734 77.9873C15.0484 76.8232 16.9414 76.8232 18.1164 77.9873C19.2914 79.1623 19.2914 81.0553 18.1164 82.2303Z" fill="#85B658"/>
<path d="M104.32 56.609C106.267 54.6616 109.433 54.6616 111.381 56.609C113.328 58.5564 113.328 61.7223 111.381 63.6698C109.433 65.6172 106.267 65.6172 104.32 63.6698C102.373 61.7223 102.373 58.5564 104.32 56.609Z" fill="#3F469D"/>
<path d="M114.95 32.893C117.289 30.5539 121.086 30.5539 123.425 32.893C125.764 35.2321 125.764 39.029 123.425 41.3681C121.086 43.7072 117.289 43.7072 114.95 41.3681C112.611 39.029 112.611 35.2321 114.95 32.893Z" fill="#AB7BA5"/>
<path d="M136.478 13.2883C139.208 10.5575 143.636 10.5575 146.367 13.2883C149.098 16.019 149.098 20.447 146.367 23.1777C143.636 25.9085 139.208 25.9085 136.478 23.1777C133.747 20.447 133.747 16.019 136.478 13.2883Z" fill="#DF6580"/>
<path d="M166.412 2.84376C169.535 -0.278648 174.593 -0.278648 177.716 2.84376C180.838 5.96616 180.838 11.0251 177.716 14.1475C174.593 17.2699 169.535 17.2699 166.412 14.1475C163.29 11.0251 163.29 5.96616 166.412 2.84376Z" fill="#CB1B3C"/>
<path d="M31.5532 56.7944C30.3129 58.0346 28.3111 58.0346 27.0708 56.7944C25.8306 55.5541 25.8306 53.5523 27.0708 52.312C28.3111 51.0718 30.3129 51.0718 31.5532 52.312C32.7934 53.5523 32.7934 55.5541 31.5532 56.7944Z" fill="#27B462"/>
<path d="M44.9653 39.5291C46.3361 38.1583 48.5446 38.1583 49.9154 39.5291C51.2753 40.889 51.2753 43.1084 49.9154 44.4684C48.5446 45.8392 46.3361 45.8392 44.9653 44.4684C43.6053 43.0976 43.6053 40.889 44.9653 39.5291Z" fill="#00B2D4"/>
<path d="M66.4871 35.2537C68.0429 33.698 70.5778 33.698 72.1336 35.2537C73.6893 36.8095 73.6893 39.3444 72.1336 40.9002C70.5778 42.4559 68.0429 42.4559 66.4871 40.9002C64.9314 39.3444 64.9314 36.8095 66.4871 35.2537Z" fill="#0098D2"/>
<path d="M88.2278 40.7141C89.9793 38.9625 92.8298 38.9625 94.5814 40.7141C96.333 42.4657 96.333 45.3161 94.5814 47.0677C92.8298 48.8193 89.9793 48.8193 88.2278 47.0677C86.4762 45.3161 86.4762 42.4657 88.2278 40.7141Z" fill="#4189C5"/>
<path d="M6.94809 121.073C7.16125 121.179 7.28422 121.347 7.31702 121.577C7.35801 121.806 7.30062 122.015 7.14485 122.204C7.03827 122.351 6.8989 122.433 6.72674 122.45C6.56277 122.466 6.3947 122.433 6.22254 122.351C6.02578 122.261 5.81672 122.192 5.59536 122.142C5.38221 122.093 5.15675 122.069 4.919 122.069C4.47629 122.069 4.07867 122.138 3.72614 122.278C3.38181 122.417 3.08667 122.618 2.84072 122.88C2.59477 123.134 2.40621 123.438 2.27504 123.79C2.15206 124.143 2.09058 124.532 2.09058 124.959C2.09058 125.459 2.16026 125.893 2.29963 126.262C2.4472 126.631 2.64806 126.938 2.90221 127.184C3.15636 127.43 3.4556 127.615 3.79993 127.738C4.14426 127.853 4.51728 127.91 4.919 127.91C5.14036 127.91 5.36171 127.889 5.58307 127.848C5.80442 127.807 6.01758 127.734 6.22254 127.627C6.3947 127.545 6.56277 127.516 6.72674 127.541C6.8989 127.566 7.04237 127.652 7.15715 127.799C7.32111 128.004 7.3785 128.217 7.32931 128.439C7.28832 128.652 7.16535 128.808 6.96039 128.906C6.74723 129.013 6.52588 129.103 6.29632 129.177C6.07497 129.242 5.84951 129.291 5.61996 129.324C5.39041 129.365 5.15675 129.386 4.919 129.386C4.32872 129.386 3.76714 129.291 3.23424 129.103C2.70955 128.914 2.23815 128.636 1.82003 128.267C1.41011 127.898 1.08628 127.439 0.848528 126.889C0.610776 126.332 0.4919 125.688 0.4919 124.959C0.4919 124.327 0.598479 123.745 0.811635 123.212C1.03299 122.679 1.34043 122.22 1.73395 121.835C2.13567 121.441 2.60707 121.138 3.14816 120.925C3.68925 120.704 4.27953 120.593 4.919 120.593C5.27973 120.593 5.63226 120.634 5.97659 120.716C6.32092 120.798 6.64475 120.917 6.94809 121.073ZM9.12417 129.263C8.91102 129.263 8.73475 129.193 8.59538 129.054C8.45601 128.906 8.38632 128.726 8.38632 128.513V123.434C8.38632 123.221 8.45601 123.044 8.59538 122.905C8.73475 122.757 8.91102 122.684 9.12417 122.684C9.33733 122.684 9.51359 122.757 9.65297 122.905C9.79234 123.044 9.86202 123.221 9.86202 123.434V124.59L9.77594 123.766C9.86612 123.569 9.9809 123.397 10.1203 123.249C10.2678 123.093 10.4318 122.966 10.6122 122.868C10.7925 122.761 10.9852 122.684 11.1902 122.634C11.3951 122.585 11.6001 122.561 11.805 122.561C12.051 122.561 12.2559 122.63 12.4199 122.77C12.5921 122.909 12.6782 123.073 12.6782 123.262C12.6782 123.532 12.6085 123.729 12.4691 123.852C12.3297 123.967 12.1781 124.024 12.0141 124.024C11.8583 124.024 11.7148 123.995 11.5837 123.938C11.4607 123.88 11.3172 123.852 11.1533 123.852C11.0057 123.852 10.854 123.889 10.6983 123.962C10.5507 124.028 10.4113 124.135 10.2801 124.282C10.1572 124.43 10.0547 124.614 9.9727 124.836C9.89892 125.049 9.86202 125.303 9.86202 125.598V128.513C9.86202 128.726 9.79234 128.906 9.65297 129.054C9.51359 129.193 9.33733 129.263 9.12417 129.263ZM16.4182 129.386C15.7214 129.386 15.1147 129.242 14.5982 128.955C14.0899 128.66 13.6964 128.262 13.4176 127.762C13.1471 127.262 13.0118 126.697 13.0118 126.065C13.0118 125.327 13.1594 124.7 13.4545 124.184C13.7579 123.659 14.1514 123.257 14.6351 122.979C15.1188 122.7 15.6312 122.561 16.1723 122.561C16.5904 122.561 16.9839 122.647 17.3528 122.819C17.73 122.991 18.062 123.229 18.3489 123.532C18.6359 123.827 18.8613 124.172 19.0253 124.565C19.1975 124.959 19.2835 125.377 19.2835 125.819C19.2753 126.016 19.1975 126.176 19.0499 126.299C18.9023 126.422 18.7302 126.483 18.5334 126.483H13.8357L13.4668 125.254H17.98L17.7095 125.5V125.168C17.6931 124.93 17.607 124.717 17.4512 124.528C17.3036 124.34 17.1151 124.192 16.8855 124.085C16.6642 123.971 16.4264 123.913 16.1723 123.913C15.9263 123.913 15.6968 123.946 15.4836 124.012C15.2705 124.077 15.086 124.188 14.9302 124.344C14.7745 124.499 14.6515 124.709 14.5613 124.971C14.4711 125.233 14.426 125.565 14.426 125.967C14.426 126.41 14.5162 126.787 14.6966 127.098C14.8851 127.402 15.1229 127.635 15.4098 127.799C15.705 127.955 16.0165 128.033 16.3444 128.033C16.6478 128.033 16.8896 128.008 17.07 127.959C17.2504 127.91 17.3938 127.853 17.5004 127.787C17.6152 127.713 17.7177 127.652 17.8078 127.603C17.9554 127.529 18.0948 127.492 18.226 127.492C18.4063 127.492 18.5539 127.553 18.6687 127.676C18.7916 127.799 18.8531 127.943 18.8531 128.107C18.8531 128.328 18.7384 128.529 18.5088 128.709C18.2956 128.89 17.9964 129.05 17.6111 129.189C17.2258 129.32 16.8281 129.386 16.4182 129.386ZM25.8842 122.561C26.0974 122.561 26.2737 122.63 26.413 122.77C26.5524 122.909 26.6221 123.089 26.6221 123.311V128.513C26.6221 128.726 26.5524 128.906 26.413 129.054C26.2737 129.193 26.0974 129.263 25.8842 129.263C25.6711 129.263 25.4948 129.193 25.3554 129.054C25.2161 128.906 25.1464 128.726 25.1464 128.513V127.91L25.4169 128.021C25.4169 128.127 25.3595 128.258 25.2448 128.414C25.13 128.562 24.9742 128.709 24.7775 128.857C24.5807 129.004 24.347 129.132 24.0765 129.238C23.8142 129.336 23.5272 129.386 23.2157 129.386C22.65 129.386 22.1376 129.242 21.6785 128.955C21.2194 128.66 20.8546 128.258 20.584 127.75C20.3217 127.234 20.1905 126.643 20.1905 125.979C20.1905 125.307 20.3217 124.717 20.584 124.208C20.8546 123.692 21.2153 123.29 21.6662 123.003C22.1171 122.708 22.6172 122.561 23.1665 122.561C23.519 122.561 23.8428 122.614 24.138 122.72C24.4331 122.827 24.6873 122.962 24.9004 123.126C25.1218 123.29 25.2899 123.458 25.4046 123.63C25.5276 123.794 25.5891 123.934 25.5891 124.049L25.1464 124.208V123.311C25.1464 123.098 25.2161 122.921 25.3554 122.782C25.4948 122.634 25.6711 122.561 25.8842 122.561ZM23.4001 128.033C23.7609 128.033 24.0765 127.943 24.347 127.762C24.6176 127.582 24.8266 127.336 24.9742 127.025C25.13 126.713 25.2079 126.365 25.2079 125.979C25.2079 125.586 25.13 125.233 24.9742 124.922C24.8266 124.61 24.6176 124.364 24.347 124.184C24.0765 124.003 23.7609 123.913 23.4001 123.913C23.0476 123.913 22.7361 124.003 22.4655 124.184C22.195 124.364 21.9818 124.61 21.8261 124.922C21.6785 125.233 21.6047 125.586 21.6047 125.979C21.6047 126.365 21.6785 126.713 21.8261 127.025C21.9818 127.336 22.195 127.582 22.4655 127.762C22.7361 127.943 23.0476 128.033 23.4001 128.033ZM28.1707 122.807H31.0852C31.282 122.807 31.4459 122.872 31.5771 123.003C31.7083 123.134 31.7739 123.298 31.7739 123.495C31.7739 123.684 31.7083 123.844 31.5771 123.975C31.4459 124.098 31.282 124.159 31.0852 124.159H28.1707C27.9739 124.159 27.81 124.094 27.6788 123.962C27.5476 123.831 27.482 123.667 27.482 123.471C27.482 123.282 27.5476 123.126 27.6788 123.003C27.81 122.872 27.9739 122.807 28.1707 122.807ZM29.4865 121.269C29.6997 121.269 29.8719 121.343 30.003 121.491C30.1424 121.63 30.2121 121.806 30.2121 122.019V127.492C30.2121 127.607 30.2326 127.701 30.2736 127.775C30.3228 127.848 30.3843 127.902 30.458 127.935C30.54 127.967 30.6261 127.984 30.7163 127.984C30.8147 127.984 30.9048 127.967 30.9868 127.935C31.0688 127.894 31.1631 127.873 31.2697 127.873C31.3844 127.873 31.4869 127.926 31.5771 128.033C31.6755 128.14 31.7247 128.287 31.7247 128.476C31.7247 128.705 31.5976 128.894 31.3435 129.041C31.0975 129.189 30.8311 129.263 30.5441 129.263C30.372 129.263 30.1793 129.25 29.9661 129.226C29.7612 129.193 29.5644 129.123 29.3759 129.017C29.1955 128.902 29.0438 128.73 28.9208 128.5C28.7979 128.271 28.7364 127.955 28.7364 127.553V122.019C28.7364 121.806 28.8061 121.63 28.9454 121.491C29.093 121.343 29.2734 121.269 29.4865 121.269ZM34.3954 128.513C34.3954 128.726 34.3258 128.906 34.1864 129.054C34.047 129.193 33.8708 129.263 33.6576 129.263C33.4444 129.263 33.2682 129.193 33.1288 129.054C32.9894 128.906 32.9197 128.726 32.9197 128.513V123.434C32.9197 123.221 32.9894 123.044 33.1288 122.905C33.2682 122.757 33.4444 122.684 33.6576 122.684C33.8708 122.684 34.047 122.757 34.1864 122.905C34.3258 123.044 34.3954 123.221 34.3954 123.434V128.513ZM33.6453 121.884C33.3666 121.884 33.1698 121.839 33.055 121.749C32.9402 121.659 32.8829 121.499 32.8829 121.269V121.036C32.8829 120.798 32.9443 120.638 33.0673 120.556C33.1985 120.466 33.3953 120.421 33.6576 120.421C33.9445 120.421 34.1454 120.466 34.2602 120.556C34.375 120.646 34.4323 120.806 34.4323 121.036V121.269C34.4323 121.507 34.3709 121.671 34.2479 121.761C34.1249 121.843 33.924 121.884 33.6453 121.884ZM39.3062 122.561C39.9129 122.561 40.372 122.688 40.6835 122.942C41.0032 123.196 41.2205 123.536 41.3353 123.962C41.4582 124.381 41.5197 124.848 41.5197 125.364V128.513C41.5197 128.726 41.4501 128.906 41.3107 129.054C41.1713 129.193 40.995 129.263 40.7819 129.263C40.5687 129.263 40.3925 129.193 40.2531 129.054C40.1137 128.906 40.044 128.726 40.044 128.513V125.364C40.044 125.094 40.0071 124.852 39.9334 124.639C39.8678 124.417 39.7448 124.241 39.5644 124.11C39.3841 123.979 39.1258 123.913 38.7897 123.913C38.4618 123.913 38.183 123.979 37.9535 124.11C37.7321 124.241 37.5599 124.417 37.437 124.639C37.3222 124.852 37.2648 125.094 37.2648 125.364V128.513C37.2648 128.726 37.1951 128.906 37.0557 129.054C36.9164 129.193 36.7401 129.263 36.5269 129.263C36.3138 129.263 36.1375 129.193 35.9982 129.054C35.8588 128.906 35.7891 128.726 35.7891 128.513V123.434C35.7891 123.221 35.8588 123.044 35.9982 122.905C36.1375 122.757 36.3138 122.684 36.5269 122.684C36.7401 122.684 36.9164 122.757 37.0557 122.905C37.1951 123.044 37.2648 123.221 37.2648 123.434V123.962L37.0803 123.926C37.1541 123.786 37.2607 123.639 37.4001 123.483C37.5394 123.319 37.7034 123.167 37.892 123.028C38.0805 122.888 38.2937 122.778 38.5314 122.696C38.7692 122.606 39.0274 122.561 39.3062 122.561ZM45.7218 122.561C46.0662 122.561 46.3818 122.614 46.6687 122.72C46.9557 122.827 47.2016 122.962 47.4066 123.126C47.6198 123.29 47.7837 123.458 47.8985 123.63C48.0215 123.794 48.083 123.934 48.083 124.049L47.7632 124.208V123.311C47.7632 123.098 47.8329 122.921 47.9723 122.782C48.1117 122.634 48.2879 122.561 48.5011 122.561C48.7142 122.561 48.8905 122.63 49.0299 122.77C49.1692 122.909 49.2389 123.089 49.2389 123.311V128.783C49.2389 129.496 49.0832 130.066 48.7716 130.492C48.4683 130.927 48.0666 131.238 47.5665 131.427C47.0664 131.624 46.5294 131.722 45.9555 131.722C45.7915 131.722 45.5784 131.702 45.316 131.661C45.0537 131.62 44.8036 131.571 44.5659 131.513C44.3281 131.456 44.1478 131.402 44.0248 131.353C43.7788 131.247 43.6067 131.111 43.5083 130.947C43.4181 130.792 43.4017 130.624 43.4591 130.443C43.5329 130.206 43.6518 130.042 43.8157 129.951C43.9797 129.869 44.1519 129.861 44.3322 129.927C44.4142 129.951 44.5495 130.001 44.738 130.074C44.9266 130.148 45.1316 130.214 45.3529 130.271C45.5825 130.337 45.7833 130.369 45.9555 130.369C46.5704 130.369 47.0254 130.246 47.3205 130.001C47.6157 129.755 47.7632 129.414 47.7632 128.98V127.91L47.9108 128.021C47.9108 128.127 47.8534 128.258 47.7386 128.414C47.632 128.562 47.4804 128.709 47.2836 128.857C47.0951 129.004 46.8696 129.132 46.6073 129.238C46.3449 129.336 46.0662 129.386 45.771 129.386C45.1889 129.386 44.6642 129.242 44.1969 128.955C43.7296 128.66 43.3607 128.258 43.0902 127.75C42.8196 127.234 42.6844 126.643 42.6844 125.979C42.6844 125.307 42.8196 124.717 43.0902 124.208C43.3607 123.692 43.7255 123.29 44.1846 123.003C44.6438 122.708 45.1562 122.561 45.7218 122.561ZM45.9555 123.913C45.5866 123.913 45.2627 124.003 44.984 124.184C44.7052 124.364 44.488 124.61 44.3322 124.922C44.1764 125.233 44.0986 125.586 44.0986 125.979C44.0986 126.365 44.1764 126.713 44.3322 127.025C44.488 127.336 44.7052 127.582 44.984 127.762C45.2627 127.943 45.5866 128.033 45.9555 128.033C46.3326 128.033 46.6605 127.943 46.9393 127.762C47.218 127.582 47.4353 127.336 47.5911 127.025C47.7468 126.713 47.8247 126.365 47.8247 125.979C47.8247 125.586 47.7468 125.233 47.5911 124.922C47.4353 124.61 47.218 124.364 46.9393 124.184C46.6605 124.003 46.3326 123.913 45.9555 123.913ZM54.1083 122.807H57.0229C57.2196 122.807 57.3836 122.872 57.5148 123.003C57.6459 123.134 57.7115 123.298 57.7115 123.495C57.7115 123.684 57.6459 123.844 57.5148 123.975C57.3836 124.098 57.2196 124.159 57.0229 124.159H54.1083C53.9116 124.159 53.7476 124.094 53.6164 123.962C53.4853 123.831 53.4197 123.667 53.4197 123.471C53.4197 123.282 53.4853 123.126 53.6164 123.003C53.7476 122.872 53.9116 122.807 54.1083 122.807ZM55.4242 121.269C55.6373 121.269 55.8095 121.343 55.9407 121.491C56.08 121.63 56.1497 121.806 56.1497 122.019V127.492C56.1497 127.607 56.1702 127.701 56.2112 127.775C56.2604 127.848 56.3219 127.902 56.3957 127.935C56.4777 127.967 56.5638 127.984 56.6539 127.984C56.7523 127.984 56.8425 127.967 56.9245 127.935C57.0065 127.894 57.1007 127.873 57.2073 127.873C57.3221 127.873 57.4246 127.926 57.5148 128.033C57.6131 128.14 57.6623 128.287 57.6623 128.476C57.6623 128.705 57.5353 128.894 57.2811 129.041C57.0352 129.189 56.7687 129.263 56.4818 129.263C56.3096 129.263 56.1169 129.25 55.9038 129.226C55.6988 129.193 55.5021 129.123 55.3135 129.017C55.1331 128.902 54.9815 128.73 54.8585 128.5C54.7355 128.271 54.674 127.955 54.674 127.553V122.019C54.674 121.806 54.7437 121.63 54.8831 121.491C55.0307 121.343 55.211 121.269 55.4242 121.269ZM59.6813 129.263C59.4682 129.263 59.2919 129.193 59.1525 129.054C59.0132 128.906 58.9435 128.726 58.9435 128.513V123.434C58.9435 123.221 59.0132 123.044 59.1525 122.905C59.2919 122.757 59.4682 122.684 59.6813 122.684C59.8945 122.684 60.0707 122.757 60.2101 122.905C60.3495 123.044 60.4192 123.221 60.4192 123.434V124.59L60.3331 123.766C60.4233 123.569 60.5381 123.397 60.6774 123.249C60.825 123.093 60.989 122.966 61.1693 122.868C61.3497 122.761 61.5423 122.684 61.7473 122.634C61.9523 122.585 62.1572 122.561 62.3622 122.561C62.6081 122.561 62.8131 122.63 62.9771 122.77C63.1492 122.909 63.2353 123.073 63.2353 123.262C63.2353 123.532 63.1656 123.729 63.0262 123.852C62.8869 123.967 62.7352 124.024 62.5712 124.024C62.4155 124.024 62.272 123.995 62.1408 123.938C62.0179 123.88 61.8744 123.852 61.7104 123.852C61.5628 123.852 61.4112 123.889 61.2554 123.962C61.1078 124.028 60.9685 124.135 60.8373 124.282C60.7143 124.43 60.6118 124.614 60.5299 124.836C60.4561 125.049 60.4192 125.303 60.4192 125.598V128.513C60.4192 128.726 60.3495 128.906 60.2101 129.054C60.0707 129.193 59.8945 129.263 59.6813 129.263ZM69.0347 122.684C69.2479 122.684 69.4242 122.757 69.5635 122.905C69.7029 123.044 69.7726 123.221 69.7726 123.434V126.557C69.7726 127.426 69.5307 128.115 69.047 128.623C68.5633 129.132 67.8665 129.386 66.9565 129.386C66.0464 129.386 65.3496 129.132 64.8659 128.623C64.3904 128.115 64.1526 127.426 64.1526 126.557V123.434C64.1526 123.221 64.2223 123.044 64.3617 122.905C64.5011 122.757 64.6773 122.684 64.8905 122.684C65.1036 122.684 65.2799 122.757 65.4193 122.905C65.5586 123.044 65.6283 123.221 65.6283 123.434V126.557C65.6283 127.057 65.739 127.43 65.9604 127.676C66.1817 127.914 66.5137 128.033 66.9565 128.033C67.4074 128.033 67.7435 127.914 67.9648 127.676C68.1862 127.43 68.2969 127.057 68.2969 126.557V123.434C68.2969 123.221 68.3666 123.044 68.5059 122.905C68.6453 122.757 68.8216 122.684 69.0347 122.684ZM74.3462 129.386C73.6493 129.386 73.0427 129.242 72.5262 128.955C72.0179 128.66 71.6244 128.262 71.3456 127.762C71.0751 127.262 70.9398 126.697 70.9398 126.065C70.9398 125.327 71.0874 124.7 71.3825 124.184C71.6858 123.659 72.0794 123.257 72.5631 122.979C73.0468 122.7 73.5592 122.561 74.1003 122.561C74.5184 122.561 74.9119 122.647 75.2808 122.819C75.6579 122.991 75.99 123.229 76.2769 123.532C76.5639 123.827 76.7893 124.172 76.9533 124.565C77.1254 124.959 77.2115 125.377 77.2115 125.819C77.2033 126.016 77.1254 126.176 76.9779 126.299C76.8303 126.422 76.6581 126.483 76.4614 126.483H71.7637L71.3948 125.254H75.908L75.6374 125.5V125.168C75.621 124.93 75.535 124.717 75.3792 124.528C75.2316 124.34 75.0431 124.192 74.8135 124.085C74.5922 123.971 74.3544 123.913 74.1003 123.913C73.8543 123.913 73.6247 123.946 73.4116 124.012C73.1984 124.077 73.014 124.188 72.8582 124.344C72.7024 124.499 72.5795 124.709 72.4893 124.971C72.3991 125.233 72.354 125.565 72.354 125.967C72.354 126.41 72.4442 126.787 72.6245 127.098C72.8131 127.402 73.0509 127.635 73.3378 127.799C73.6329 127.955 73.9445 128.033 74.2724 128.033C74.5758 128.033 74.8176 128.008 74.998 127.959C75.1783 127.91 75.3218 127.853 75.4284 127.787C75.5432 127.713 75.6456 127.652 75.7358 127.603C75.8834 127.529 76.0228 127.492 76.1539 127.492C76.3343 127.492 76.4819 127.553 76.5966 127.676C76.7196 127.799 76.7811 127.943 76.7811 128.107C76.7811 128.328 76.6663 128.529 76.4368 128.709C76.2236 128.89 75.9244 129.05 75.5391 129.189C75.1537 129.32 74.7561 129.386 74.3462 129.386ZM85.108 122.561C85.6818 122.561 86.1942 122.708 86.6451 123.003C87.1042 123.29 87.465 123.688 87.7273 124.196C87.9979 124.704 88.1331 125.295 88.1331 125.967C88.1331 126.639 87.9979 127.234 87.7273 127.75C87.465 128.258 87.1083 128.66 86.6574 128.955C86.2147 129.242 85.7146 129.386 85.1571 129.386C84.8292 129.386 84.5218 129.332 84.2348 129.226C83.9479 129.119 83.6937 128.984 83.4724 128.82C83.2592 128.656 83.0912 128.492 82.9682 128.328C82.8534 128.156 82.796 128.012 82.796 127.898L83.1772 127.738V130.972C83.1772 131.185 83.1076 131.361 82.9682 131.501C82.8288 131.648 82.6526 131.722 82.4394 131.722C82.2262 131.722 82.05 131.653 81.9106 131.513C81.7712 131.374 81.7015 131.193 81.7015 130.972V123.434C81.7015 123.221 81.7712 123.044 81.9106 122.905C82.05 122.757 82.2262 122.684 82.4394 122.684C82.6526 122.684 82.8288 122.757 82.9682 122.905C83.1076 123.044 83.1772 123.221 83.1772 123.434V124.036L82.9682 123.926C82.9682 123.819 83.0256 123.692 83.1404 123.544C83.2551 123.389 83.4109 123.237 83.6077 123.089C83.8044 122.934 84.0299 122.807 84.284 122.708C84.5464 122.61 84.821 122.561 85.108 122.561ZM84.9235 123.913C84.5628 123.913 84.2471 124.003 83.9766 124.184C83.706 124.364 83.4929 124.61 83.3371 124.922C83.1895 125.225 83.1158 125.573 83.1158 125.967C83.1158 126.352 83.1895 126.705 83.3371 127.025C83.4929 127.336 83.706 127.582 83.9766 127.762C84.2471 127.943 84.5628 128.033 84.9235 128.033C85.2842 128.033 85.5958 127.943 85.8581 127.762C86.1286 127.582 86.3377 127.336 86.4853 127.025C86.641 126.705 86.7189 126.352 86.7189 125.967C86.7189 125.573 86.641 125.225 86.4853 124.922C86.3377 124.61 86.1286 124.364 85.8581 124.184C85.5958 124.003 85.2842 123.913 84.9235 123.913ZM90.0384 129.263C89.8252 129.263 89.649 129.193 89.5096 129.054C89.3702 128.906 89.3005 128.726 89.3005 128.513V123.434C89.3005 123.221 89.3702 123.044 89.5096 122.905C89.649 122.757 89.8252 122.684 90.0384 122.684C90.2515 122.684 90.4278 122.757 90.5672 122.905C90.7066 123.044 90.7762 123.221 90.7762 123.434V124.59L90.6902 123.766C90.7803 123.569 90.8951 123.397 91.0345 123.249C91.1821 123.093 91.346 122.966 91.5264 122.868C91.7067 122.761 91.8994 122.684 92.1044 122.634C92.3093 122.585 92.5143 122.561 92.7192 122.561C92.9652 122.561 93.1702 122.63 93.3341 122.77C93.5063 122.909 93.5924 123.073 93.5924 123.262C93.5924 123.532 93.5227 123.729 93.3833 123.852C93.2439 123.967 93.0923 124.024 92.9283 124.024C92.7725 124.024 92.6291 123.995 92.4979 123.938C92.3749 123.88 92.2314 123.852 92.0675 123.852C91.9199 123.852 91.7682 123.889 91.6125 123.962C91.4649 124.028 91.3255 124.135 91.1944 124.282C91.0714 124.43 90.9689 124.614 90.8869 124.836C90.8131 125.049 90.7762 125.303 90.7762 125.598V128.513C90.7762 128.726 90.7066 128.906 90.5672 129.054C90.4278 129.193 90.2515 129.263 90.0384 129.263ZM100.616 125.979C100.616 126.652 100.464 127.246 100.161 127.762C99.8657 128.271 99.464 128.668 98.9557 128.955C98.4556 129.242 97.894 129.386 97.271 129.386C96.6479 129.386 96.0822 129.242 95.5739 128.955C95.0738 128.668 94.6721 128.271 94.3687 127.762C94.0736 127.246 93.926 126.652 93.926 125.979C93.926 125.307 94.0736 124.717 94.3687 124.208C94.6721 123.692 95.0738 123.29 95.5739 123.003C96.0822 122.708 96.6479 122.561 97.271 122.561C97.894 122.561 98.4556 122.708 98.9557 123.003C99.464 123.29 99.8657 123.692 100.161 124.208C100.464 124.717 100.616 125.307 100.616 125.979ZM99.1402 125.979C99.1402 125.561 99.0541 125.2 98.8819 124.897C98.718 124.586 98.4925 124.344 98.2056 124.172C97.9268 123.999 97.6153 123.913 97.271 123.913C96.9266 123.913 96.611 123.999 96.324 124.172C96.0453 124.344 95.8199 124.586 95.6477 124.897C95.4837 125.2 95.4017 125.561 95.4017 125.979C95.4017 126.389 95.4837 126.75 95.6477 127.061C95.8199 127.365 96.0453 127.603 96.324 127.775C96.611 127.947 96.9266 128.033 97.271 128.033C97.6153 128.033 97.9268 127.947 98.2056 127.775C98.4925 127.603 98.718 127.365 98.8819 127.061C99.0541 126.75 99.1402 126.389 99.1402 125.979ZM101.403 128.242C101.321 128.127 101.284 127.98 101.293 127.799C101.301 127.619 101.407 127.463 101.612 127.332C101.743 127.25 101.883 127.217 102.03 127.234C102.178 127.242 102.321 127.316 102.461 127.455C102.699 127.693 102.949 127.877 103.211 128.008C103.473 128.14 103.801 128.205 104.195 128.205C104.318 128.197 104.453 128.181 104.601 128.156C104.748 128.123 104.875 128.058 104.982 127.959C105.097 127.853 105.154 127.693 105.154 127.48C105.154 127.299 105.092 127.156 104.969 127.049C104.847 126.943 104.683 126.852 104.478 126.779C104.281 126.705 104.059 126.635 103.814 126.57C103.559 126.496 103.297 126.414 103.026 126.324C102.764 126.233 102.522 126.119 102.301 125.979C102.08 125.832 101.899 125.639 101.76 125.401C101.62 125.164 101.551 124.864 101.551 124.504C101.551 124.094 101.666 123.745 101.895 123.458C102.125 123.171 102.42 122.95 102.781 122.794C103.149 122.638 103.535 122.561 103.936 122.561C104.191 122.561 104.457 122.593 104.736 122.659C105.015 122.716 105.281 122.815 105.535 122.954C105.789 123.085 106.002 123.262 106.175 123.483C106.265 123.606 106.318 123.753 106.335 123.926C106.351 124.098 106.273 124.254 106.101 124.393C105.978 124.491 105.834 124.536 105.67 124.528C105.506 124.512 105.371 124.454 105.265 124.356C105.125 124.176 104.937 124.032 104.699 123.926C104.469 123.819 104.203 123.766 103.9 123.766C103.777 123.766 103.641 123.782 103.494 123.815C103.354 123.839 103.231 123.901 103.125 123.999C103.018 124.09 102.965 124.237 102.965 124.442C102.965 124.631 103.026 124.782 103.149 124.897C103.272 125.004 103.436 125.094 103.641 125.168C103.855 125.233 104.08 125.299 104.318 125.364C104.564 125.43 104.814 125.508 105.068 125.598C105.322 125.688 105.556 125.807 105.769 125.955C105.982 126.102 106.154 126.295 106.285 126.533C106.416 126.762 106.482 127.057 106.482 127.418C106.482 127.836 106.359 128.193 106.113 128.488C105.867 128.783 105.56 129.009 105.191 129.164C104.822 129.312 104.445 129.386 104.059 129.386C103.576 129.386 103.092 129.304 102.608 129.14C102.125 128.968 101.723 128.668 101.403 128.242ZM111 122.561C111.574 122.561 112.087 122.708 112.538 123.003C112.997 123.29 113.357 123.688 113.62 124.196C113.89 124.704 114.026 125.295 114.026 125.967C114.026 126.639 113.89 127.234 113.62 127.75C113.357 128.258 113.001 128.66 112.55 128.955C112.107 129.242 111.607 129.386 111.05 129.386C110.722 129.386 110.414 129.332 110.127 129.226C109.84 129.119 109.586 128.984 109.365 128.82C109.152 128.656 108.984 128.492 108.861 128.328C108.746 128.156 108.689 128.012 108.689 127.898L109.07 127.738V130.972C109.07 131.185 109 131.361 108.861 131.501C108.721 131.648 108.545 131.722 108.332 131.722C108.119 131.722 107.942 131.653 107.803 131.513C107.664 131.374 107.594 131.193 107.594 130.972V123.434C107.594 123.221 107.664 123.044 107.803 122.905C107.942 122.757 108.119 122.684 108.332 122.684C108.545 122.684 108.721 122.757 108.861 122.905C109 123.044 109.07 123.221 109.07 123.434V124.036L108.861 123.926C108.861 123.819 108.918 123.692 109.033 123.544C109.148 123.389 109.303 123.237 109.5 123.089C109.697 122.934 109.922 122.807 110.177 122.708C110.439 122.61 110.714 122.561 111 122.561ZM110.816 123.913C110.455 123.913 110.14 124.003 109.869 124.184C109.599 124.364 109.385 124.61 109.23 124.922C109.082 125.225 109.008 125.573 109.008 125.967C109.008 126.352 109.082 126.705 109.23 127.025C109.385 127.336 109.599 127.582 109.869 127.762C110.14 127.943 110.455 128.033 110.816 128.033C111.177 128.033 111.488 127.943 111.751 127.762C112.021 127.582 112.23 127.336 112.378 127.025C112.534 126.705 112.611 126.352 112.611 125.967C112.611 125.573 112.534 125.225 112.378 124.922C112.23 124.61 112.021 124.364 111.751 124.184C111.488 124.003 111.177 123.913 110.816 123.913ZM118.292 129.386C117.595 129.386 116.988 129.242 116.472 128.955C115.964 128.66 115.57 128.262 115.291 127.762C115.021 127.262 114.886 126.697 114.886 126.065C114.886 125.327 115.033 124.7 115.328 124.184C115.632 123.659 116.025 123.257 116.509 122.979C116.993 122.7 117.505 122.561 118.046 122.561C118.464 122.561 118.858 122.647 119.227 122.819C119.604 122.991 119.936 123.229 120.223 123.532C120.51 123.827 120.735 124.172 120.899 124.565C121.071 124.959 121.157 125.377 121.157 125.819C121.149 126.016 121.071 126.176 120.924 126.299C120.776 126.422 120.604 126.483 120.407 126.483H115.71L115.341 125.254H119.854L119.583 125.5V125.168C119.567 124.93 119.481 124.717 119.325 124.528C119.177 124.34 118.989 124.192 118.759 124.085C118.538 123.971 118.3 123.913 118.046 123.913C117.8 123.913 117.571 123.946 117.357 124.012C117.144 124.077 116.96 124.188 116.804 124.344C116.648 124.499 116.525 124.709 116.435 124.971C116.345 125.233 116.3 125.565 116.3 125.967C116.3 126.41 116.39 126.787 116.57 127.098C116.759 127.402 116.997 127.635 117.284 127.799C117.579 127.955 117.89 128.033 118.218 128.033C118.522 128.033 118.763 128.008 118.944 127.959C119.124 127.91 119.268 127.853 119.374 127.787C119.489 127.713 119.591 127.652 119.682 127.603C119.829 127.529 119.969 127.492 120.1 127.492C120.28 127.492 120.428 127.553 120.542 127.676C120.665 127.799 120.727 127.943 120.727 128.107C120.727 128.328 120.612 128.529 120.383 128.709C120.169 128.89 119.87 129.05 119.485 129.189C119.1 129.32 118.702 129.386 118.292 129.386ZM123.062 129.263C122.848 129.263 122.672 129.193 122.533 129.054C122.393 128.906 122.324 128.726 122.324 128.513V123.434C122.324 123.221 122.393 123.044 122.533 122.905C122.672 122.757 122.848 122.684 123.062 122.684C123.275 122.684 123.451 122.757 123.59 122.905C123.73 123.044 123.799 123.221 123.799 123.434V124.59L123.713 123.766C123.803 123.569 123.918 123.397 124.058 123.249C124.205 123.093 124.369 122.966 124.55 122.868C124.73 122.761 124.923 122.684 125.127 122.634C125.332 122.585 125.537 122.561 125.742 122.561C125.988 122.561 126.193 122.63 126.357 122.77C126.529 122.909 126.615 123.073 126.615 123.262C126.615 123.532 126.546 123.729 126.406 123.852C126.267 123.967 126.115 124.024 125.951 124.024C125.796 124.024 125.652 123.995 125.521 123.938C125.398 123.88 125.255 123.852 125.091 123.852C124.943 123.852 124.791 123.889 124.636 123.962C124.488 124.028 124.349 124.135 124.217 124.282C124.095 124.43 123.992 124.614 123.91 124.836C123.836 125.049 123.799 125.303 123.799 125.598V128.513C123.799 128.726 123.73 128.906 123.59 129.054C123.451 129.193 123.275 129.263 123.062 129.263ZM128.922 128.513C128.922 128.726 128.853 128.906 128.713 129.054C128.574 129.193 128.398 129.263 128.185 129.263C127.971 129.263 127.795 129.193 127.656 129.054C127.516 128.906 127.447 128.726 127.447 128.513V123.434C127.447 123.221 127.516 123.044 127.656 122.905C127.795 122.757 127.971 122.684 128.185 122.684C128.398 122.684 128.574 122.757 128.713 122.905C128.853 123.044 128.922 123.221 128.922 123.434V128.513ZM128.172 121.884C127.894 121.884 127.697 121.839 127.582 121.749C127.467 121.659 127.41 121.499 127.41 121.269V121.036C127.41 120.798 127.471 120.638 127.594 120.556C127.725 120.466 127.922 120.421 128.185 120.421C128.472 120.421 128.672 120.466 128.787 120.556C128.902 120.646 128.959 120.806 128.959 121.036V121.269C128.959 121.507 128.898 121.671 128.775 121.761C128.652 121.843 128.451 121.884 128.172 121.884ZM130.39 122.807H133.304C133.501 122.807 133.665 122.872 133.796 123.003C133.927 123.134 133.993 123.298 133.993 123.495C133.993 123.684 133.927 123.844 133.796 123.975C133.665 124.098 133.501 124.159 133.304 124.159H130.39C130.193 124.159 130.029 124.094 129.898 123.962C129.767 123.831 129.701 123.667 129.701 123.471C129.701 123.282 129.767 123.126 129.898 123.003C130.029 122.872 130.193 122.807 130.39 122.807ZM131.706 121.269C131.919 121.269 132.091 121.343 132.222 121.491C132.362 121.63 132.431 121.806 132.431 122.019V127.492C132.431 127.607 132.452 127.701 132.493 127.775C132.542 127.848 132.603 127.902 132.677 127.935C132.759 127.967 132.845 127.984 132.935 127.984C133.034 127.984 133.124 127.967 133.206 127.935C133.288 127.894 133.382 127.873 133.489 127.873C133.604 127.873 133.706 127.926 133.796 128.033C133.895 128.14 133.944 128.287 133.944 128.476C133.944 128.705 133.817 128.894 133.563 129.041C133.317 129.189 133.05 129.263 132.763 129.263C132.591 129.263 132.398 129.25 132.185 129.226C131.98 129.193 131.784 129.123 131.595 129.017C131.415 128.902 131.263 128.73 131.14 128.5C131.017 128.271 130.956 127.955 130.956 127.553V122.019C130.956 121.806 131.025 121.63 131.165 121.491C131.312 121.343 131.493 121.269 131.706 121.269ZM140.107 122.684C140.32 122.684 140.497 122.757 140.636 122.905C140.775 123.044 140.845 123.221 140.845 123.434V128.66C140.845 129.414 140.701 130.013 140.415 130.456C140.136 130.906 139.759 131.23 139.283 131.427C138.808 131.624 138.275 131.722 137.684 131.722C137.422 131.722 137.143 131.702 136.848 131.661C136.553 131.62 136.311 131.558 136.123 131.476C135.877 131.37 135.705 131.234 135.606 131.07C135.516 130.915 135.5 130.747 135.557 130.566C135.631 130.328 135.75 130.165 135.914 130.074C136.078 129.992 136.25 129.984 136.43 130.05C136.561 130.091 136.733 130.152 136.947 130.234C137.16 130.324 137.406 130.369 137.684 130.369C138.062 130.369 138.373 130.316 138.619 130.21C138.873 130.111 139.062 129.939 139.185 129.693C139.316 129.455 139.382 129.127 139.382 128.709V127.885L139.64 128.181C139.5 128.451 139.324 128.677 139.111 128.857C138.906 129.029 138.66 129.16 138.373 129.25C138.086 129.341 137.758 129.386 137.389 129.386C136.955 129.386 136.574 129.287 136.246 129.091C135.926 128.886 135.676 128.607 135.496 128.254C135.315 127.894 135.225 127.484 135.225 127.025V123.434C135.225 123.221 135.295 123.044 135.434 122.905C135.573 122.757 135.75 122.684 135.963 122.684C136.176 122.684 136.352 122.757 136.492 122.905C136.631 123.044 136.701 123.221 136.701 123.434V126.582C136.701 127.115 136.815 127.492 137.045 127.713C137.283 127.926 137.611 128.033 138.029 128.033C138.316 128.033 138.558 127.98 138.754 127.873C138.951 127.758 139.103 127.594 139.209 127.381C139.316 127.16 139.369 126.893 139.369 126.582V123.434C139.369 123.221 139.439 123.044 139.578 122.905C139.718 122.757 139.894 122.684 140.107 122.684ZM145.717 122.807H148.632C148.828 122.807 148.992 122.872 149.123 123.003C149.255 123.134 149.32 123.298 149.32 123.495C149.32 123.684 149.255 123.844 149.123 123.975C148.992 124.098 148.828 124.159 148.632 124.159H145.717C145.52 124.159 145.356 124.094 145.225 123.962C145.094 123.831 145.028 123.667 145.028 123.471C145.028 123.282 145.094 123.126 145.225 123.003C145.356 122.872 145.52 122.807 145.717 122.807ZM147.033 121.269C147.246 121.269 147.418 121.343 147.549 121.491C147.689 121.63 147.758 121.806 147.758 122.019V127.492C147.758 127.607 147.779 127.701 147.82 127.775C147.869 127.848 147.931 127.902 148.004 127.935C148.086 127.967 148.172 127.984 148.263 127.984C148.361 127.984 148.451 127.967 148.533 127.935C148.615 127.894 148.709 127.873 148.816 127.873C148.931 127.873 149.033 127.926 149.123 128.033C149.222 128.14 149.271 128.287 149.271 128.476C149.271 128.705 149.144 128.894 148.89 129.041C148.644 129.189 148.377 129.263 148.09 129.263C147.918 129.263 147.726 129.25 147.513 129.226C147.308 129.193 147.111 129.123 146.922 129.017C146.742 128.902 146.59 128.73 146.467 128.5C146.344 128.271 146.283 127.955 146.283 127.553V122.019C146.283 121.806 146.352 121.63 146.492 121.491C146.639 121.343 146.82 121.269 147.033 121.269ZM156.875 125.979C156.875 126.652 156.723 127.246 156.42 127.762C156.124 128.271 155.723 128.668 155.214 128.955C154.714 129.242 154.153 129.386 153.53 129.386C152.907 129.386 152.341 129.242 151.833 128.955C151.332 128.668 150.931 128.271 150.627 127.762C150.332 127.246 150.185 126.652 150.185 125.979C150.185 125.307 150.332 124.717 150.627 124.208C150.931 123.692 151.332 123.29 151.833 123.003C152.341 122.708 152.907 122.561 153.53 122.561C154.153 122.561 154.714 122.708 155.214 123.003C155.723 123.29 156.124 123.692 156.42 124.208C156.723 124.717 156.875 125.307 156.875 125.979ZM155.399 125.979C155.399 125.561 155.313 125.2 155.141 124.897C154.977 124.586 154.751 124.344 154.464 124.172C154.185 123.999 153.874 123.913 153.53 123.913C153.185 123.913 152.87 123.999 152.583 124.172C152.304 124.344 152.079 124.586 151.906 124.897C151.742 125.2 151.66 125.561 151.66 125.979C151.66 126.389 151.742 126.75 151.906 127.061C152.079 127.365 152.304 127.603 152.583 127.775C152.87 127.947 153.185 128.033 153.53 128.033C153.874 128.033 154.185 127.947 154.464 127.775C154.751 127.603 154.977 127.365 155.141 127.061C155.313 126.75 155.399 126.389 155.399 125.979ZM160.773 122.561C161.117 122.561 161.433 122.614 161.72 122.72C162.007 122.827 162.253 122.962 162.458 123.126C162.671 123.29 162.835 123.458 162.95 123.63C163.073 123.794 163.134 123.934 163.134 124.049L162.815 124.208V123.311C162.815 123.098 162.884 122.921 163.024 122.782C163.163 122.634 163.339 122.561 163.552 122.561C163.766 122.561 163.942 122.63 164.081 122.77C164.221 122.909 164.29 123.089 164.29 123.311V128.783C164.29 129.496 164.134 130.066 163.823 130.492C163.52 130.927 163.118 131.238 162.618 131.427C162.118 131.624 161.581 131.722 161.007 131.722C160.843 131.722 160.63 131.702 160.367 131.661C160.105 131.62 159.855 131.571 159.617 131.513C159.379 131.456 159.199 131.402 159.076 131.353C158.83 131.247 158.658 131.111 158.56 130.947C158.469 130.792 158.453 130.624 158.51 130.443C158.584 130.206 158.703 130.042 158.867 129.951C159.031 129.869 159.203 129.861 159.384 129.927C159.466 129.951 159.601 130.001 159.789 130.074C159.978 130.148 160.183 130.214 160.404 130.271C160.634 130.337 160.835 130.369 161.007 130.369C161.622 130.369 162.077 130.246 162.372 130.001C162.667 129.755 162.815 129.414 162.815 128.98V127.91L162.962 128.021C162.962 128.127 162.905 128.258 162.79 128.414C162.683 128.562 162.532 128.709 162.335 128.857C162.146 129.004 161.921 129.132 161.659 129.238C161.396 129.336 161.117 129.386 160.822 129.386C160.24 129.386 159.716 129.242 159.248 128.955C158.781 128.66 158.412 128.258 158.141 127.75C157.871 127.234 157.736 126.643 157.736 125.979C157.736 125.307 157.871 124.717 158.141 124.208C158.412 123.692 158.777 123.29 159.236 123.003C159.695 122.708 160.207 122.561 160.773 122.561ZM161.007 123.913C160.638 123.913 160.314 124.003 160.035 124.184C159.757 124.364 159.539 124.61 159.384 124.922C159.228 125.233 159.15 125.586 159.15 125.979C159.15 126.365 159.228 126.713 159.384 127.025C159.539 127.336 159.757 127.582 160.035 127.762C160.314 127.943 160.638 128.033 161.007 128.033C161.384 128.033 161.712 127.943 161.991 127.762C162.269 127.582 162.487 127.336 162.642 127.025C162.798 126.713 162.876 126.365 162.876 125.979C162.876 125.586 162.798 125.233 162.642 124.922C162.487 124.61 162.269 124.364 161.991 124.184C161.712 124.003 161.384 123.913 161.007 123.913ZM168.621 129.386C167.924 129.386 167.317 129.242 166.801 128.955C166.293 128.66 165.899 128.262 165.62 127.762C165.35 127.262 165.215 126.697 165.215 126.065C165.215 125.327 165.362 124.7 165.657 124.184C165.961 123.659 166.354 123.257 166.838 122.979C167.322 122.7 167.834 122.561 168.375 122.561C168.793 122.561 169.187 122.647 169.556 122.819C169.933 122.991 170.265 123.229 170.552 123.532C170.839 123.827 171.064 124.172 171.228 124.565C171.4 124.959 171.486 125.377 171.486 125.819C171.478 126.016 171.4 126.176 171.253 126.299C171.105 126.422 170.933 126.483 170.736 126.483H166.039L165.67 125.254H170.183L169.912 125.5V125.168C169.896 124.93 169.81 124.717 169.654 124.528C169.506 124.34 169.318 124.192 169.088 124.085C168.867 123.971 168.629 123.913 168.375 123.913C168.129 123.913 167.9 123.946 167.686 124.012C167.473 124.077 167.289 124.188 167.133 124.344C166.977 124.499 166.854 124.709 166.764 124.971C166.674 125.233 166.629 125.565 166.629 125.967C166.629 126.41 166.719 126.787 166.899 127.098C167.088 127.402 167.326 127.635 167.613 127.799C167.908 127.955 168.219 128.033 168.547 128.033C168.851 128.033 169.092 128.008 169.273 127.959C169.453 127.91 169.597 127.853 169.703 127.787C169.818 127.713 169.92 127.652 170.011 127.603C170.158 127.529 170.298 127.492 170.429 127.492C170.609 127.492 170.757 127.553 170.871 127.676C170.994 127.799 171.056 127.943 171.056 128.107C171.056 128.328 170.941 128.529 170.712 128.709C170.498 128.89 170.199 129.05 169.814 129.189C169.429 129.32 169.031 129.386 168.621 129.386ZM172.726 122.807H175.641C175.838 122.807 176.002 122.872 176.133 123.003C176.264 123.134 176.33 123.298 176.33 123.495C176.33 123.684 176.264 123.844 176.133 123.975C176.002 124.098 175.838 124.159 175.641 124.159H172.726C172.53 124.159 172.366 124.094 172.235 123.962C172.103 123.831 172.038 123.667 172.038 123.471C172.038 123.282 172.103 123.126 172.235 123.003C172.366 122.872 172.53 122.807 172.726 122.807ZM174.042 121.269C174.255 121.269 174.428 121.343 174.559 121.491C174.698 121.63 174.768 121.806 174.768 122.019V127.492C174.768 127.607 174.788 127.701 174.829 127.775C174.878 127.848 174.94 127.902 175.014 127.935C175.096 127.967 175.182 127.984 175.272 127.984C175.37 127.984 175.461 127.967 175.543 127.935C175.625 127.894 175.719 127.873 175.825 127.873C175.94 127.873 176.043 127.926 176.133 128.033C176.231 128.14 176.28 128.287 176.28 128.476C176.28 128.705 176.153 128.894 175.899 129.041C175.653 129.189 175.387 129.263 175.1 129.263C174.928 129.263 174.735 129.25 174.522 129.226C174.317 129.193 174.12 129.123 173.932 129.017C173.751 128.902 173.6 128.73 173.477 128.5C173.354 128.271 173.292 127.955 173.292 127.553V122.019C173.292 121.806 173.362 121.63 173.501 121.491C173.649 121.343 173.829 121.269 174.042 121.269ZM181.017 122.561C181.607 122.561 182.054 122.688 182.358 122.942C182.669 123.196 182.882 123.536 182.997 123.962C183.112 124.381 183.169 124.848 183.169 125.364V128.513C183.169 128.726 183.1 128.906 182.96 129.054C182.821 129.193 182.645 129.263 182.431 129.263C182.218 129.263 182.042 129.193 181.903 129.054C181.763 128.906 181.694 128.726 181.694 128.513V125.364C181.694 125.094 181.661 124.852 181.595 124.639C181.53 124.417 181.411 124.241 181.239 124.11C181.066 123.979 180.82 123.913 180.501 123.913C180.189 123.913 179.923 123.979 179.701 124.11C179.48 124.241 179.312 124.417 179.197 124.639C179.091 124.852 179.037 125.094 179.037 125.364V128.513C179.037 128.726 178.968 128.906 178.828 129.054C178.689 129.193 178.513 129.263 178.299 129.263C178.086 129.263 177.91 129.193 177.771 129.054C177.631 128.906 177.562 128.726 177.562 128.513V120.913C177.562 120.7 177.631 120.523 177.771 120.384C177.91 120.236 178.086 120.163 178.299 120.163C178.513 120.163 178.689 120.236 178.828 120.384C178.968 120.523 179.037 120.7 179.037 120.913V123.962L178.853 123.926C178.927 123.786 179.029 123.639 179.16 123.483C179.291 123.319 179.451 123.167 179.64 123.028C179.828 122.888 180.037 122.778 180.267 122.696C180.497 122.606 180.747 122.561 181.017 122.561ZM187.743 129.386C187.046 129.386 186.44 129.242 185.923 128.955C185.415 128.66 185.021 128.262 184.743 127.762C184.472 127.262 184.337 126.697 184.337 126.065C184.337 125.327 184.484 124.7 184.779 124.184C185.083 123.659 185.476 123.257 185.96 122.979C186.444 122.7 186.956 122.561 187.497 122.561C187.915 122.561 188.309 122.647 188.678 122.819C189.055 122.991 189.387 123.229 189.674 123.532C189.961 123.827 190.186 124.172 190.35 124.565C190.522 124.959 190.608 125.377 190.608 125.819C190.6 126.016 190.522 126.176 190.375 126.299C190.227 126.422 190.055 126.483 189.858 126.483H185.161L184.792 125.254H189.305L189.034 125.5V125.168C189.018 124.93 188.932 124.717 188.776 124.528C188.629 124.34 188.44 124.192 188.21 124.085C187.989 123.971 187.751 123.913 187.497 123.913C187.251 123.913 187.022 123.946 186.809 124.012C186.595 124.077 186.411 124.188 186.255 124.344C186.099 124.499 185.976 124.709 185.886 124.971C185.796 125.233 185.751 125.565 185.751 125.967C185.751 126.41 185.841 126.787 186.021 127.098C186.21 127.402 186.448 127.635 186.735 127.799C187.03 127.955 187.341 128.033 187.669 128.033C187.973 128.033 188.215 128.008 188.395 127.959C188.575 127.91 188.719 127.853 188.825 127.787C188.94 127.713 189.043 127.652 189.133 127.603C189.28 127.529 189.42 127.492 189.551 127.492C189.731 127.492 189.879 127.553 189.994 127.676C190.117 127.799 190.178 127.943 190.178 128.107C190.178 128.328 190.063 128.529 189.834 128.709C189.621 128.89 189.321 129.05 188.936 129.189C188.551 129.32 188.153 129.386 187.743 129.386ZM192.513 129.263C192.299 129.263 192.123 129.193 191.984 129.054C191.844 128.906 191.775 128.726 191.775 128.513V123.434C191.775 123.221 191.844 123.044 191.984 122.905C192.123 122.757 192.299 122.684 192.513 122.684C192.726 122.684 192.902 122.757 193.041 122.905C193.181 123.044 193.25 123.221 193.25 123.434V124.59L193.164 123.766C193.255 123.569 193.369 123.397 193.509 123.249C193.656 123.093 193.82 122.966 194.001 122.868C194.181 122.761 194.374 122.684 194.579 122.634C194.784 122.585 194.989 122.561 195.193 122.561C195.439 122.561 195.644 122.63 195.808 122.77C195.981 122.909 196.067 123.073 196.067 123.262C196.067 123.532 195.997 123.729 195.858 123.852C195.718 123.967 195.567 124.024 195.403 124.024C195.247 124.024 195.103 123.995 194.972 123.938C194.849 123.88 194.706 123.852 194.542 123.852C194.394 123.852 194.242 123.889 194.087 123.962C193.939 124.028 193.8 124.135 193.669 124.282C193.546 124.43 193.443 124.614 193.361 124.836C193.287 125.049 193.25 125.303 193.25 125.598V128.513C193.25 128.726 193.181 128.906 193.041 129.054C192.902 129.193 192.726 129.263 192.513 129.263Z" fill="white"/>
</svg>
