<svg width="1530" height="787" viewBox="0 0 1530 787" fill="none" xmlns="http://www.w3.org/2000/svg">
<path d="M1256.77 63.3147C1252.82 63.7375 1249.01 64.5831 1245.33 65.4288C919.986 128.288 807.582 401.147 774.398 515.167C767.337 539.408 740.084 551.529 717.49 540.395C654.51 509.67 528.268 464.005 361.357 481.905C117.063 508.12 0 733.059 0 733.059L19.487 913.461C19.487 913.461 103.366 652.723 374.914 623.69C571.055 602.69 701.674 732.918 759.006 806.911C782.306 836.931 819.303 852.576 857.006 848.629C902.052 843.837 934.954 804.515 932.695 759.274C908.83 293.892 1274.42 227.227 1274.42 227.227C1319.75 222.294 1352.65 181.704 1347.71 136.462C1342.77 91.2207 1302.1 58.3818 1256.77 63.3147Z" fill="url(#paint0_linear_13704_4642)"/>
<path d="M1463.8 175.907C1512.37 175.907 1551.75 136.529 1551.75 87.9536C1551.75 39.3782 1512.37 0 1463.8 0C1415.22 0 1375.84 39.3782 1375.84 87.9536C1375.84 136.529 1415.22 175.907 1463.8 175.907Z" fill="#F5485D"/>
<defs>
<linearGradient id="paint0_linear_13704_4642" x1="62.5041" y1="924.269" x2="1153.8" y2="187.927" gradientUnits="userSpaceOnUse">
<stop offset="0.04" stop-color="#292664" stop-opacity="0"/>
<stop offset="0.24" stop-color="#6B8ED2" stop-opacity="0.24"/>
<stop offset="0.43" stop-color="#5CBAFF"/>
<stop offset="0.75" stop-color="#E759AE"/>
<stop offset="0.99" stop-color="#F4475C"/>
</linearGradient>
</defs>
</svg>
