<svg width="83" height="61" viewBox="0 0 83 61" fill="none" xmlns="http://www.w3.org/2000/svg">
<g clip-path="url(#clip0_11728_50430)">
<path d="M46.6971 30.1523H43.3594V44.3296H46.6971V30.1523Z" fill="#3D408A"/>
<path d="M53.5477 36.3875C53.0209 36.3875 52.5941 35.9652 52.5941 35.4475V31.8873C52.6304 30.5613 54.6012 30.5567 54.6375 31.8873V34.6119H56.3722V32.7365C56.2224 29.1399 51.0092 29.1399 50.8594 32.7365V36.056C50.8639 36.2876 50.9411 36.9778 51.6087 37.2911C51.2681 37.4546 50.8594 37.7997 50.8594 38.5399V41.8231C51.0092 45.4197 56.2224 45.4197 56.3722 41.8231V38.104H57.5347V36.3875H53.5477ZM53.6203 43.6804C53.0572 43.6804 52.5986 43.2263 52.5986 42.6723V39.044C52.5986 38.5263 53.0255 38.104 53.5522 38.104H54.6421V42.6769C54.6421 43.2309 54.1834 43.685 53.6203 43.685" fill="#3D408A"/>
<path d="M3.48032 44.328C3.47578 38.0477 3.07163 29.5151 6.06419 24.538C6.42293 23.9023 6.95878 23.9159 7.31752 24.5562C9.81965 28.9338 10.0149 36.1041 9.87415 44.328H13.3481V38.3565C13.3481 30.1326 9.96951 25.8141 8.01231 24.0022C7.27211 23.3165 6.14593 23.3029 5.40119 23.984C-0.26606 29.2653 -0.0117606 37.3166 0.00640366 44.328H3.48032Z" fill="#3D408A"/>
<path d="M21.0214 44.3296V34.5255C21.0214 32.8861 22.2748 31.5556 23.8142 31.5556C25.3536 31.5556 26.6024 32.8816 26.6024 34.5209V44.3342H30.1081V34.53C30.1081 32.8907 31.3615 31.5601 32.9009 31.5601C34.4403 31.5601 35.6891 32.8861 35.6891 34.5255V44.3387H39.1948V36.7415C39.2266 30.829 32.306 27.7275 28.3553 32.1187C24.4 27.7275 17.4839 30.8336 17.5157 36.7415V44.3387H21.0214V44.3296Z" fill="#3D408A"/>
<path d="M64.47 44.328V27.9256C64.47 26.2999 65.7234 24.9785 67.2628 24.9785C68.8022 24.9785 70.051 26.2954 70.051 27.9165V44.3234H73.5612V27.9211C73.5612 26.2954 74.8146 24.9739 76.354 24.9739C77.8934 24.9739 79.1422 26.2908 79.1422 27.912V44.3189H82.6479V30.1053C82.6797 24.2428 75.7637 21.1685 71.8084 25.5189C67.8531 21.164 60.9371 24.2428 60.9689 30.1053V44.3189H64.4746L64.47 44.328Z" fill="#3D408A"/>
<path d="M7.56072 34.7912C7.07028 35.2816 6.28014 35.2816 5.7897 34.7912C5.29927 34.3007 5.29927 33.5106 5.7897 33.0202C6.28014 32.5297 7.07028 32.5297 7.56072 33.0202C8.05115 33.5106 8.05115 34.3007 7.56072 34.7912Z" fill="#85B658"/>
<path d="M43.5393 24.094C44.3522 23.2812 45.6736 23.2812 46.4865 24.094C47.2993 24.9069 47.2993 26.2283 46.4865 27.0412C45.6736 27.854 44.3522 27.854 43.5393 27.0412C42.7265 26.2283 42.7265 24.9069 43.5393 24.094Z" fill="#3F469D"/>
<path d="M47.9744 14.1932C48.9508 13.2169 50.5356 13.2169 51.5119 14.1932C52.4883 15.1695 52.4883 16.7543 51.5119 17.7307C50.5356 18.707 48.9508 18.707 47.9744 17.7307C46.9981 16.7543 46.9981 15.1695 47.9744 14.1932Z" fill="#AB7BA5"/>
<path d="M56.9642 6.01111C58.104 4.8713 59.9523 4.8713 61.0921 6.01111C62.2319 7.15091 62.2319 8.99913 61.0921 10.1389C59.9523 11.2787 58.104 11.2787 56.9642 10.1389C55.8244 8.99913 55.8244 7.15091 56.9642 6.01111Z" fill="#DF6580"/>
<path d="M69.4618 1.65325C70.7651 0.34996 72.8767 0.34996 74.18 1.65325C75.4833 2.95653 75.4833 5.06813 74.18 6.37142C72.8767 7.6747 70.7651 7.6747 69.4618 6.37142C68.1586 5.06813 68.1586 2.95653 69.4618 1.65325Z" fill="#CB1B3C"/>
<path d="M13.1654 24.1771C12.6478 24.6948 11.8122 24.6948 11.2945 24.1771C10.7768 23.6595 10.7768 22.8239 11.2945 22.3062C11.8122 21.7885 12.6478 21.7885 13.1654 22.3062C13.6831 22.8239 13.6831 23.6595 13.1654 24.1771Z" fill="#27B462"/>
<path d="M18.7617 16.9643C19.3338 16.3921 20.2557 16.3921 20.8278 16.9643C21.3955 17.5365 21.3955 18.4583 20.8278 19.0259C20.2557 19.5981 19.3338 19.5981 18.7617 19.0259C18.194 18.4538 18.194 17.5319 18.7617 16.9643Z" fill="#00B2D4"/>
<path d="M27.7527 15.1784C28.402 14.5291 29.4601 14.5291 30.1095 15.1784C30.7588 15.8278 30.7588 16.8859 30.1095 17.5353C29.4601 18.1846 28.402 18.1846 27.7527 17.5353C27.1033 16.8859 27.1033 15.8278 27.7527 15.1784Z" fill="#0098D2"/>
<path d="M36.8296 17.4624C37.5607 16.7313 38.7505 16.7313 39.4816 17.4624C40.2127 18.1935 40.2127 19.3833 39.4816 20.1144C38.7505 20.8455 37.5607 20.8455 36.8296 20.1144C36.0985 19.3833 36.0985 18.1935 36.8296 17.4624Z" fill="#4189C5"/>
</g>
<path d="M10.2945 53.6733C10.403 53.7728 10.4573 53.8994 10.4573 54.0487C10.4573 54.0984 10.4482 54.1527 10.4347 54.2115L8.86535 58.9014C8.83369 58.9918 8.77942 59.0642 8.69802 59.1184C8.61661 59.1727 8.53067 59.1999 8.4357 59.2089C8.34073 59.2089 8.25029 59.1818 8.16436 59.1275C8.07843 59.0732 8.01511 58.9963 7.96537 58.8923L6.83473 56.2828L5.69504 58.8923C5.64529 58.9963 5.58197 59.0732 5.49605 59.1275C5.41012 59.1818 5.31968 59.2089 5.2247 59.2089C5.12973 59.2044 5.03927 59.1727 4.96239 59.1184C4.88098 59.0642 4.82671 58.9918 4.79506 58.9014L3.22573 54.2115C3.20764 54.1527 3.20312 54.0984 3.20312 54.0487C3.20312 53.8994 3.25739 53.7728 3.36593 53.6733C3.47447 53.5738 3.59657 53.5241 3.72773 53.5241C3.83175 53.5241 3.93124 53.5512 4.01265 53.61C4.09858 53.6643 4.15738 53.7411 4.18904 53.8406L5.37847 57.4949L6.41412 54.9713C6.45482 54.8763 6.51814 54.7994 6.59955 54.7406C6.68095 54.6864 6.77141 54.6592 6.8709 54.6637C6.9704 54.6592 7.06085 54.6818 7.13773 54.7406C7.21461 54.7949 7.27341 54.8718 7.31863 54.9713L8.30003 57.4677L9.48041 53.8361C9.51206 53.7411 9.57087 53.6643 9.66132 53.6055C9.74725 53.5512 9.84674 53.5195 9.95076 53.5195C10.0774 53.5195 10.195 53.5693 10.3035 53.6688L10.2945 53.6733Z" fill="#3E4089"/>
<path d="M14.7714 57.261C14.6764 57.3425 14.5633 57.3832 14.4367 57.3832H11.8046C11.8679 57.6997 12.0126 57.9485 12.2433 58.1294C12.4694 58.3103 12.7272 58.4007 13.0166 58.4007C13.2337 58.4007 13.4056 58.3826 13.5277 58.3419C13.6498 58.3012 13.7448 58.2605 13.8171 58.2108C13.8895 58.1656 13.9392 58.1339 13.9664 58.1158C14.0613 58.0661 14.1518 58.0434 14.2377 58.0434C14.3508 58.0434 14.4458 58.0842 14.5226 58.1656C14.5995 58.247 14.6402 58.3419 14.6402 58.446C14.6402 58.5907 14.5634 58.7218 14.4186 58.8439C14.2694 58.966 14.0704 59.0746 13.8217 59.1605C13.5729 59.2464 13.3196 59.2917 13.0664 59.2917C12.6186 59.2917 12.2297 59.1967 11.8996 59.0067C11.5649 58.8168 11.3116 58.559 11.1307 58.2289C10.9498 57.8987 10.8594 57.5234 10.8594 57.1073C10.8594 56.6415 10.9544 56.2389 11.1443 55.8862C11.3342 55.5334 11.5875 55.2666 11.8996 55.0812C12.2116 54.8958 12.5463 54.8008 12.9036 54.8008C13.2609 54.8008 13.5865 54.8957 13.894 55.0902C14.2015 55.2847 14.4548 55.547 14.6402 55.8726C14.8257 56.2028 14.9206 56.5555 14.9206 56.94C14.9161 57.0711 14.8664 57.1751 14.7714 57.2565V57.261ZM11.8182 56.5736H13.9076V56.5193C13.885 56.2932 13.7764 56.0988 13.582 55.9359C13.3875 55.7731 13.1614 55.6917 12.9126 55.6917C12.2975 55.6917 11.9312 55.9857 11.8227 56.5736H11.8182Z" fill="#3E4089"/>
<path d="M19.5185 54.9365C19.6089 55.0269 19.6542 55.1445 19.6542 55.2937V58.7128C19.6542 58.853 19.6089 58.9706 19.5185 59.0655C19.428 59.1605 19.315 59.2057 19.1748 59.2057C19.0346 59.2057 18.926 59.1605 18.8356 59.0701C18.7497 58.9796 18.6999 58.862 18.6954 58.7218C18.5642 58.8801 18.3833 59.0113 18.1572 59.1198C17.9311 59.2283 17.6914 59.2871 17.4426 59.2871C17.0763 59.2871 16.7462 59.1922 16.4477 59.0022C16.1492 58.8123 15.914 58.5454 15.7422 58.2063C15.5703 57.8671 15.4844 57.4827 15.4844 57.0485C15.4844 56.6143 15.5703 56.2299 15.7377 55.8862C15.905 55.5425 16.1401 55.2757 16.4341 55.0857C16.7281 54.8958 17.0537 54.8008 17.411 54.8008C17.6642 54.8008 17.9039 54.846 18.1301 54.941C18.3517 55.036 18.5416 55.1535 18.6954 55.3028V55.2937C18.6954 55.1535 18.7406 55.036 18.8311 54.941C18.9215 54.846 19.0346 54.8008 19.1748 54.8008C19.315 54.8008 19.428 54.846 19.5185 54.9365ZM18.4105 58.0163C18.6275 57.7585 18.7361 57.4374 18.7361 57.0485C18.7361 56.6595 18.6275 56.3385 18.4105 56.0761C18.1934 55.8184 17.913 55.6872 17.5647 55.6872C17.2165 55.6872 16.9452 55.8184 16.7281 56.0761C16.511 56.3339 16.4025 56.6595 16.4025 57.0485C16.4025 57.4374 16.511 57.7585 16.7236 58.0163C16.9406 58.2741 17.2165 58.4007 17.5647 58.4007C17.913 58.4007 18.1934 58.2741 18.4105 58.0163Z" fill="#3E4089"/>
<path d="M21.5842 59.0658C21.4892 59.1608 21.3762 59.206 21.236 59.206C21.0958 59.206 20.9917 59.1608 20.9013 59.0658C20.8108 58.9708 20.7656 58.8532 20.7656 58.713V53.7156C20.7656 53.5754 20.8108 53.4578 20.9058 53.3629C21.0008 53.2679 21.1139 53.2227 21.2541 53.2227C21.3943 53.2227 21.4983 53.2679 21.5887 53.3629C21.6792 53.4578 21.7244 53.5754 21.7244 53.7156V58.713C21.7244 58.8532 21.6792 58.9708 21.5842 59.0658Z" fill="#3E4089"/>
<path d="M25.1046 58.4C25.1634 58.4724 25.195 58.5674 25.195 58.6849C25.195 58.8297 25.1181 58.9518 24.9598 59.0513C24.8016 59.1508 24.6252 59.2005 24.4307 59.2005C24.1006 59.2005 23.8247 59.1282 23.5986 58.988C23.3724 58.8432 23.2594 58.5402 23.2594 58.0789V55.8493H22.893C22.7664 55.8493 22.6579 55.8041 22.5719 55.7182C22.486 55.6322 22.4453 55.5237 22.4453 55.3925C22.4453 55.2614 22.486 55.1664 22.5719 55.0805C22.6579 54.9991 22.7619 54.9538 22.893 54.9538H23.2594V54.4383C23.2594 54.2981 23.3046 54.1805 23.3996 54.0855C23.4945 53.9905 23.6076 53.9453 23.7478 53.9453C23.888 53.9453 23.992 53.9905 24.0825 54.0855C24.1729 54.1805 24.2182 54.2981 24.2182 54.4383V54.9538H24.7835C24.9101 54.9538 25.0186 54.9991 25.1046 55.085C25.1905 55.1709 25.2312 55.2795 25.2312 55.4061C25.2312 55.5327 25.1905 55.6322 25.1046 55.7182C25.0186 55.7996 24.9146 55.8448 24.7835 55.8448H24.2182V58.0337C24.2182 58.1468 24.2453 58.2282 24.3041 58.2779C24.3629 58.3277 24.4443 58.3548 24.5438 58.3548C24.5845 58.3548 24.6433 58.3458 24.7202 58.3231C24.7835 58.296 24.8468 58.2824 24.9056 58.2824C24.9825 58.2824 25.0458 58.3186 25.1091 58.391L25.1046 58.4Z" fill="#3E4089"/>
<path d="M29.4314 55.2894C29.6349 55.6151 29.7344 56.0673 29.7344 56.6417V58.713C29.7344 58.8532 29.6892 58.9708 29.5987 59.0658C29.5083 59.1608 29.3952 59.206 29.255 59.206C29.1148 59.206 29.0017 59.1608 28.9113 59.0658C28.8208 58.9708 28.7756 58.8532 28.7756 58.713V56.6417C28.7756 56.3432 28.7168 56.1126 28.6038 55.9407C28.4907 55.7688 28.2872 55.6874 28.0023 55.6874C27.7173 55.6874 27.4731 55.7779 27.3058 55.9588C27.1385 56.1397 27.0525 56.3658 27.0525 56.6417V58.713C27.0525 58.8532 27.0073 58.9708 26.9168 59.0658C26.8264 59.1608 26.7133 59.206 26.5731 59.206C26.4329 59.206 26.3199 59.1608 26.2294 59.0658C26.139 58.9708 26.0938 58.8532 26.0938 58.713V53.7156C26.0938 53.5754 26.139 53.4578 26.2294 53.3629C26.3199 53.2679 26.4329 53.2227 26.5731 53.2227C26.7133 53.2227 26.8264 53.2679 26.9168 53.3629C27.0073 53.4578 27.0525 53.5754 27.0525 53.7156V55.502C27.1972 55.3075 27.3781 55.1447 27.5998 55.0045C27.8214 54.8689 28.0656 54.7965 28.3369 54.7965C28.8615 54.7965 29.2279 54.9593 29.4269 55.2849L29.4314 55.2894Z" fill="#3E4089"/>
<path d="M38.2655 53.6799C38.365 53.7749 38.4147 53.8924 38.4147 54.0326V58.7135C38.4147 58.8537 38.3695 58.9713 38.2791 59.0662C38.1886 59.1612 38.071 59.2064 37.9218 59.2064C37.7725 59.2064 37.6504 59.1612 37.56 59.0708C37.465 58.9803 37.4198 58.8627 37.4198 58.7135V55.4572L36.1037 57.4924C36.0494 57.5557 35.9906 57.61 35.9183 57.6507C35.8504 57.6914 35.7781 57.7095 35.7012 57.7049C35.6334 57.7095 35.561 57.6914 35.4932 57.6507C35.4253 57.61 35.362 57.5557 35.3078 57.4924L33.9917 55.3804V58.709C33.9917 58.8537 33.951 58.9713 33.8651 59.0662C33.7791 59.1567 33.6706 59.2019 33.5304 59.2019C33.3902 59.2019 33.2907 59.1567 33.2048 59.0617C33.1188 58.9667 33.0781 58.8491 33.0781 58.709V54.0281C33.0781 53.8924 33.1279 53.7794 33.2274 53.6799C33.3269 53.5849 33.4445 53.5352 33.5801 53.5352C33.6615 53.5352 33.7384 53.5532 33.8198 53.594C33.9012 53.6347 33.96 53.6889 34.0053 53.7522L35.7419 56.4612L37.5283 53.7522C37.569 53.6889 37.6278 53.6347 37.7002 53.594C37.7725 53.5532 37.8449 53.5352 37.9173 53.5352C38.0484 53.5352 38.166 53.5804 38.2655 53.6754V53.6799Z" fill="#3E4089"/>
<path d="M43.331 54.9365C43.4214 55.0269 43.4667 55.1445 43.4667 55.2937V58.7128C43.4667 58.853 43.4214 58.9706 43.331 59.0655C43.2405 59.1605 43.1275 59.2057 42.9873 59.2057C42.8471 59.2057 42.734 59.1605 42.6481 59.0701C42.5622 58.9796 42.5124 58.862 42.5079 58.7218C42.3767 58.8801 42.1958 59.0113 41.9697 59.1198C41.7436 59.2283 41.5039 59.2871 41.2551 59.2871C40.8888 59.2871 40.5587 59.1922 40.2602 59.0022C39.9617 58.8123 39.7265 58.5454 39.5547 58.2063C39.3828 57.8671 39.2969 57.4827 39.2969 57.0485C39.2969 56.6143 39.3828 56.2299 39.5501 55.8862C39.7175 55.5425 39.9526 55.2757 40.2466 55.0857C40.5406 54.8958 40.8662 54.8008 41.2235 54.8008C41.4767 54.8008 41.7164 54.846 41.9426 54.941C42.1642 55.036 42.3541 55.1535 42.5079 55.3028V55.2937C42.5079 55.1535 42.5531 55.036 42.6436 54.941C42.734 54.846 42.8471 54.8008 42.9873 54.8008C43.1275 54.8008 43.2405 54.846 43.331 54.9365ZM42.223 58.0163C42.44 57.7585 42.5486 57.4374 42.5486 57.0485C42.5486 56.6595 42.44 56.3385 42.223 56.0761C42.0059 55.8138 41.7255 55.6872 41.3772 55.6872C41.029 55.6872 40.7577 55.8184 40.5406 56.0761C40.3235 56.3339 40.215 56.6595 40.215 57.0485C40.215 57.4374 40.3235 57.7585 40.536 58.0163C40.7531 58.2741 41.0335 58.4007 41.3772 58.4007C41.721 58.4007 42.0059 58.2741 42.223 58.0163Z" fill="#3E4089"/>
<path d="M47.9055 55.2892C48.1135 55.6148 48.2175 56.0671 48.2175 56.6415V58.7128C48.2175 58.853 48.1723 58.9706 48.0818 59.0655C47.9914 59.1605 47.8783 59.2057 47.7381 59.2057C47.5979 59.2057 47.4849 59.1605 47.3944 59.0655C47.304 58.9706 47.2587 58.853 47.2587 58.7128V56.6415C47.2587 56.343 47.1954 56.1123 47.0733 55.9405C46.9512 55.7686 46.7432 55.6872 46.4447 55.6872C46.1462 55.6872 45.8929 55.7777 45.7211 55.9586C45.5447 56.1395 45.4588 56.3656 45.4588 56.6415V58.7128C45.4588 58.853 45.4135 58.9706 45.3231 59.0655C45.2326 59.1605 45.1196 59.2057 44.9794 59.2057C44.8392 59.2057 44.7261 59.1605 44.6357 59.0655C44.5452 58.9706 44.5 58.853 44.5 58.7128V55.3751C44.5 55.2349 44.5452 55.1174 44.6357 55.0224C44.7261 54.9274 44.8392 54.8822 44.9794 54.8822C45.1196 54.8822 45.2326 54.9274 45.3231 55.0224C45.4135 55.1174 45.4588 55.2349 45.4588 55.3751V55.5108C45.6035 55.3164 45.7889 55.149 46.0196 55.0088C46.2502 54.8686 46.5035 54.8008 46.7794 54.8008C47.3221 54.8008 47.6974 54.9636 47.9009 55.2892H47.9055Z" fill="#3E4089"/>
<path d="M53.0497 54.9365C53.1402 55.0269 53.1854 55.1445 53.1854 55.2937V58.7128C53.1854 58.853 53.1402 58.9706 53.0497 59.0655C52.9593 59.1605 52.8462 59.2057 52.706 59.2057C52.5658 59.2057 52.4528 59.1605 52.3668 59.0701C52.2809 58.9796 52.2312 58.862 52.2266 58.7218C52.0955 58.8801 51.9146 59.0113 51.6885 59.1198C51.4623 59.2283 51.2226 59.2871 50.9739 59.2871C50.6076 59.2871 50.2774 59.1922 49.9789 59.0022C49.6804 58.8123 49.4453 58.5454 49.2734 58.2063C49.1016 57.8671 49.0156 57.4827 49.0156 57.0485C49.0156 56.6143 49.1016 56.2299 49.2689 55.8862C49.4362 55.5425 49.6714 55.2757 49.9654 55.0857C50.2593 54.8958 50.585 54.8008 50.9422 54.8008C51.1955 54.8008 51.4352 54.846 51.6613 54.941C51.8829 55.036 52.0729 55.1535 52.2266 55.3028V55.2937C52.2266 55.1535 52.2719 55.036 52.3623 54.941C52.4528 54.846 52.5658 54.8008 52.706 54.8008C52.8462 54.8008 52.9593 54.846 53.0497 54.9365ZM51.9417 58.0163C52.1588 57.7585 52.2673 57.4374 52.2673 57.0485C52.2673 56.6595 52.1588 56.3385 51.9417 56.0761C51.7246 55.8138 51.4442 55.6872 51.096 55.6872C50.7478 55.6872 50.4764 55.8184 50.2593 56.0761C50.0422 56.3339 49.9337 56.6595 49.9337 57.0485C49.9337 57.4374 50.0423 57.7585 50.2548 58.0163C50.4719 58.2741 50.7523 58.4007 51.096 58.4007C51.4397 58.4007 51.7246 58.2741 51.9417 58.0163Z" fill="#3E4089"/>
<path d="M58.0888 54.9377C58.1793 55.0281 58.2245 55.1457 58.2245 55.295V58.8904C58.2245 59.5462 58.0255 60.0346 57.623 60.3512C57.2205 60.6677 56.7139 60.826 56.0944 60.826C55.9361 60.826 55.7145 60.7989 55.4386 60.7446C55.1582 60.6904 54.9637 60.6361 54.8461 60.5818C54.5838 60.4688 54.4572 60.3105 54.4572 60.1115C54.4572 60.0753 54.4662 60.0301 54.4798 59.9803C54.5115 59.8627 54.5657 59.7723 54.6426 59.709C54.7195 59.6457 54.8054 59.614 54.8914 59.614C54.9456 59.614 54.9954 59.623 55.0406 59.6366C55.0632 59.6411 55.1944 59.6909 55.4341 59.7859C55.6737 59.8808 55.8954 59.926 56.0898 59.926C56.4833 59.926 56.7773 59.8446 56.9717 59.6864C57.1662 59.5281 57.2612 59.3019 57.2612 59.0125V58.6236C57.1436 58.7909 56.9672 58.9401 56.732 59.0758C56.4969 59.2115 56.2436 59.2793 55.9722 59.2793C55.6014 59.2793 55.2622 59.1844 54.9547 58.9944C54.6471 58.8045 54.4074 58.5376 54.2311 58.1984C54.0547 57.8593 53.9688 57.4748 53.9688 57.0407C53.9688 56.6065 54.0547 56.2221 54.2265 55.8784C54.3984 55.5347 54.6381 55.2678 54.9366 55.0779C55.2351 54.8879 55.5697 54.793 55.9361 54.793C56.2074 54.793 56.4607 54.8472 56.6913 54.9648C56.9265 55.0779 57.1119 55.2136 57.2566 55.3764V55.2859C57.2566 55.1457 57.3019 55.0281 57.3923 54.9332C57.4828 54.8382 57.5958 54.793 57.736 54.793C57.8762 54.793 57.9893 54.8382 58.0798 54.9286L58.0888 54.9377ZM56.9717 58.0175C57.1979 57.7597 57.3109 57.4387 57.3109 57.0497C57.3109 56.6608 57.1979 56.3397 56.9717 56.0774C56.7456 55.8196 56.4562 55.6884 56.0989 55.6884C55.7416 55.6884 55.4522 55.8196 55.2306 56.0774C55.009 56.3352 54.8959 56.6608 54.8959 57.0497C54.8959 57.4387 55.009 57.7597 55.2306 58.0175C55.4522 58.2753 55.7416 58.402 56.0989 58.402C56.4562 58.402 56.7456 58.2753 56.9717 58.0175Z" fill="#3E4089"/>
<path d="M62.9355 57.261C62.8405 57.3425 62.7274 57.3832 62.6008 57.3832H59.9687C60.032 57.6997 60.1767 57.9485 60.4073 58.1294C60.6335 58.3103 60.8913 58.4007 61.1807 58.4007C61.3978 58.4007 61.5696 58.3826 61.6918 58.3419C61.8139 58.3012 61.9088 58.2605 61.9812 58.2108C62.0536 58.1656 62.1033 58.1339 62.1304 58.1158C62.2254 58.0661 62.3159 58.0434 62.4018 58.0434C62.5149 58.0434 62.6098 58.0842 62.6867 58.1656C62.7636 58.247 62.8043 58.3419 62.8043 58.446C62.8043 58.5907 62.7274 58.7218 62.5827 58.8439C62.4334 58.966 62.2345 59.0746 61.9857 59.1605C61.737 59.2464 61.4837 59.2917 61.2304 59.2917C60.7827 59.2917 60.3938 59.1967 60.0636 59.0067C59.729 58.8168 59.4757 58.559 59.2948 58.2289C59.1139 57.8987 59.0234 57.5234 59.0234 57.1073C59.0234 56.6415 59.1184 56.2389 59.3084 55.8862C59.4983 55.5334 59.7516 55.2666 60.0636 55.0812C60.3757 54.8958 60.7104 54.8008 61.0676 54.8008C61.4249 54.8008 61.7505 54.8957 62.0581 55.0902C62.3656 55.2847 62.6189 55.547 62.8043 55.8726C62.9897 56.2028 63.0847 56.5555 63.0847 56.94C63.0802 57.0711 63.0304 57.1751 62.9355 57.2565V57.261ZM59.9777 56.5736H62.0671V56.5193C62.0445 56.2932 61.936 56.0988 61.7415 55.9359C61.547 55.7731 61.3209 55.6917 61.0722 55.6917C60.4571 55.6917 60.0908 55.9857 59.9822 56.5736H59.9777Z" fill="#3E4089"/>
<path d="M69.8945 55.2892C70.098 55.6148 70.1975 56.0671 70.1975 56.6415V58.7128C70.1975 58.853 70.1523 58.9706 70.0618 59.0655C69.9714 59.1605 69.8583 59.2057 69.7181 59.2057C69.5779 59.2057 69.4649 59.1605 69.3744 59.0655C69.284 58.9706 69.2387 58.853 69.2387 58.7128V56.6415C69.2387 56.343 69.1799 56.1123 69.0669 55.9405C68.9538 55.7686 68.7503 55.6872 68.4654 55.6872C68.1804 55.6872 67.9362 55.7777 67.7689 55.9586C67.6016 56.1395 67.5156 56.3656 67.5156 56.6415V58.7128C67.5156 58.853 67.4704 58.9706 67.38 59.0655C67.2895 59.1605 67.1765 59.2057 67.0363 59.2057C66.8961 59.2057 66.783 59.1605 66.6925 59.0655C66.6021 58.9706 66.5569 58.853 66.5569 58.7128V56.6415C66.5569 56.343 66.4981 56.1123 66.385 55.9405C66.2719 55.7686 66.0684 55.6872 65.7835 55.6872C65.4986 55.6872 65.2544 55.7777 65.087 55.9586C64.9197 56.1395 64.8338 56.3656 64.8338 56.6415V58.7128C64.8338 58.853 64.7886 58.9706 64.6981 59.0655C64.6077 59.1605 64.4946 59.2057 64.3544 59.2057C64.2142 59.2057 64.1011 59.1605 64.0107 59.0655C63.9202 58.9706 63.875 58.853 63.875 58.7128V55.3751C63.875 55.2349 63.9202 55.1174 64.0107 55.0224C64.1011 54.9274 64.2142 54.8822 64.3544 54.8822C64.4946 54.8822 64.6077 54.9274 64.6981 55.0224C64.7886 55.1174 64.8338 55.2349 64.8338 55.3751V55.5063C64.9785 55.3118 65.1594 55.149 65.381 55.0088C65.6026 54.8731 65.8468 54.8008 66.1182 54.8008C66.7875 54.8008 67.2172 55.0993 67.4026 55.6917C67.5247 55.4656 67.7101 55.2621 67.9543 55.0766C68.2031 54.8957 68.4835 54.8008 68.7955 54.8008C69.3201 54.8008 69.6865 54.9636 69.8855 55.2892H69.8945Z" fill="#3E4089"/>
<path d="M74.912 57.261C74.817 57.3425 74.704 57.3832 74.5773 57.3832H71.9452C72.0085 57.6997 72.1532 57.9485 72.3839 58.1294C72.61 58.3103 72.8723 58.4007 73.1573 58.4007C73.3743 58.4007 73.5462 58.3826 73.6683 58.3419C73.7904 58.3012 73.8854 58.2605 73.9577 58.2108C74.0301 58.1656 74.0799 58.1339 74.107 58.1158C74.202 58.0661 74.2924 58.0434 74.3783 58.0434C74.4914 58.0434 74.5864 58.0842 74.6633 58.1656C74.7447 58.247 74.7808 58.3419 74.7808 58.446C74.7808 58.5907 74.7085 58.7218 74.5592 58.8439C74.41 58.966 74.211 59.0746 73.9623 59.1605C73.7135 59.2464 73.4603 59.2917 73.207 59.2917C72.7593 59.2917 72.3703 59.1967 72.0402 59.0067C71.71 58.8168 71.4522 58.559 71.2713 58.2289C71.0904 57.8987 71 57.5234 71 57.1073C71 56.6415 71.095 56.2389 71.2849 55.8862C71.4749 55.538 71.7281 55.2666 72.0402 55.0812C72.3522 54.8958 72.6869 54.8008 73.0442 54.8008C73.4015 54.8008 73.7271 54.8957 74.0346 55.0902C74.3422 55.2847 74.5954 55.547 74.7808 55.8726C74.9663 56.2028 75.0612 56.5555 75.0612 56.94C75.0567 57.0711 75.007 57.1751 74.912 57.2565V57.261ZM71.9543 56.5736H74.0437V56.5193C74.0211 56.2932 73.9125 56.0988 73.7181 55.9359C73.5236 55.7731 73.2974 55.6917 73.0487 55.6917C72.4336 55.6917 72.0673 55.9857 71.9588 56.5736H71.9543Z" fill="#3E4089"/>
<path d="M79.2649 55.2892C79.4729 55.6148 79.5769 56.0671 79.5769 56.6415V58.7128C79.5769 58.853 79.5317 58.9706 79.4412 59.0655C79.3508 59.1605 79.2377 59.2057 79.0975 59.2057C78.9573 59.2057 78.8443 59.1605 78.7538 59.0655C78.6634 58.9706 78.6181 58.853 78.6181 58.7128V56.6415C78.6181 56.343 78.5548 56.1123 78.4327 55.9405C78.3106 55.7686 78.1026 55.6872 77.8041 55.6872C77.5056 55.6872 77.2523 55.7777 77.0805 55.9586C76.9041 56.1395 76.8182 56.3656 76.8182 56.6415V58.7128C76.8182 58.853 76.7729 58.9706 76.6825 59.0655C76.592 59.1605 76.479 59.2057 76.3388 59.2057C76.1986 59.2057 76.0855 59.1605 75.995 59.0655C75.9046 58.9706 75.8594 58.853 75.8594 58.7128V55.3751C75.8594 55.2349 75.9046 55.1174 75.995 55.0224C76.0855 54.9274 76.1986 54.8822 76.3388 54.8822C76.479 54.8822 76.592 54.9274 76.6825 55.0224C76.7729 55.1174 76.8182 55.2349 76.8182 55.3751V55.5108C76.9629 55.3164 77.1483 55.149 77.3789 55.0088C77.6096 54.8686 77.8629 54.8008 78.1387 54.8008C78.6814 54.8008 79.0568 54.9636 79.2603 55.2892H79.2649Z" fill="#3E4089"/>
<path d="M82.8702 58.4C82.929 58.4724 82.9607 58.5674 82.9607 58.6849C82.9607 58.8297 82.8838 58.9518 82.7255 59.0513C82.5672 59.1508 82.3908 59.2005 82.1963 59.2005C81.8662 59.2005 81.5903 59.1282 81.3642 58.988C81.1381 58.8432 81.025 58.5402 81.025 58.0789V55.8493H80.6587C80.532 55.8493 80.4235 55.8041 80.3376 55.7182C80.2516 55.6322 80.2109 55.5237 80.2109 55.3925C80.2109 55.2614 80.2516 55.1664 80.3376 55.0805C80.4235 54.9991 80.5275 54.9538 80.6587 54.9538H81.025V54.4383C81.025 54.2981 81.0702 54.1805 81.1652 54.0855C81.2602 53.9905 81.3732 53.9453 81.5134 53.9453C81.6536 53.9453 81.7576 53.9905 81.8481 54.0855C81.9385 54.1805 81.9838 54.2981 81.9838 54.4383V54.9538H82.5491C82.6757 54.9538 82.7843 54.9991 82.8702 55.085C82.9561 55.1709 82.9968 55.2795 82.9968 55.4061C82.9968 55.5327 82.9561 55.6322 82.8702 55.7182C82.7843 55.7996 82.6802 55.8448 82.5491 55.8448H81.9838V58.0337C81.9838 58.1468 82.0109 58.2282 82.0697 58.2779C82.1285 58.3277 82.2099 58.3548 82.3094 58.3548C82.3501 58.3548 82.4089 58.3458 82.4858 58.3231C82.5491 58.296 82.6124 58.2824 82.6712 58.2824C82.7481 58.2824 82.8114 58.3186 82.8747 58.391L82.8702 58.4Z" fill="#3E4089"/>
<defs>
<clipPath id="clip0_11728_50430">
<rect width="82.6429" height="60.319" fill="white" transform="translate(0 0.675781)"/>
</clipPath>
</defs>
</svg>
