<svg width="77" height="57" viewBox="0 0 77 57" fill="none" xmlns="http://www.w3.org/2000/svg">
<path d="M43.5162 28.1406H40.4062V41.3505H43.5162V28.1406Z" fill="#3E4089"/>
<path d="M49.8955 33.9465C49.4047 33.9465 49.007 33.553 49.007 33.0707V29.7534C49.0408 28.5178 50.8772 28.5136 50.911 29.7534V32.2921H52.5273V30.5446C52.3877 27.1935 47.5303 27.1935 47.3906 30.5446V33.6376C47.3949 33.8534 47.4668 34.4966 48.0888 34.7885C47.7714 34.9409 47.3906 35.2624 47.3906 35.9521V39.0113C47.5303 42.3624 52.3877 42.3624 52.5273 39.0113V35.5459H53.6105V33.9465H49.8955ZM49.9632 40.7461C49.4385 40.7461 49.0112 40.323 49.0112 39.8068V36.426C49.0112 35.9437 49.4089 35.5502 49.8997 35.5502H50.9152V39.811C50.9152 40.3272 50.4879 40.7461 49.9632 40.7461Z" fill="#3E4089"/>
<path d="M3.24286 41.3509C3.23863 35.4991 2.86205 27.5486 5.65043 22.9112C5.9847 22.3188 6.48399 22.3315 6.81825 22.9281C9.14967 27.007 9.33161 33.6882 9.20044 41.3509H12.4373V35.7868C12.4373 28.1241 9.2893 24.1002 7.46563 22.4119C6.77594 21.773 5.7266 21.7603 5.03267 22.395C-0.247907 27.3159 -0.0109582 34.8179 0.00596674 41.3509H3.24286Z" fill="#3E4089"/>
<path d="M19.5791 41.3515V32.2163C19.5791 30.6888 20.7469 29.449 22.1813 29.449C23.6157 29.449 24.7793 30.6845 24.7793 32.212V41.3557H28.0458V32.2205C28.0458 30.693 29.2136 29.4533 30.648 29.4533C32.0824 29.4533 33.246 30.6888 33.246 32.2163V41.3599H36.5125V34.2811C36.5421 28.772 30.0937 25.8821 26.4126 29.9737C22.7272 25.8821 16.283 28.7763 16.3126 34.2811V41.3599H19.5791V41.3515Z" fill="#3E4089"/>
<path d="M60.0671 41.3501V26.0669C60.0671 24.5521 61.2349 23.3208 62.6693 23.3208C64.1037 23.3208 65.2673 24.5478 65.2673 26.0584V41.3458H68.538V26.0626C68.538 24.5478 69.7058 23.3165 71.1402 23.3165C72.5746 23.3165 73.7382 24.5436 73.7382 26.0542V41.3416H77.0047V28.0978C77.0343 22.6353 70.5902 19.7708 66.9047 23.8243C63.2193 19.7665 56.7752 22.6353 56.8048 28.0978V41.3416H60.0713L60.0671 41.3501Z" fill="#3E4089"/>
<path d="M7.03979 32.4624C6.58281 32.9194 5.84658 32.9194 5.38961 32.4624C4.93263 32.0054 4.93263 31.2692 5.38961 30.8122C5.84658 30.3595 6.58281 30.3595 7.03979 30.8122C7.49676 31.2692 7.49676 32.0054 7.03979 32.4624Z" fill="#85B658"/>
<path d="M40.568 22.4977C41.3254 21.7403 42.5567 21.7403 43.3141 22.4977C44.0715 23.2551 44.0715 24.4864 43.3141 25.2438C42.5567 26.0012 41.3254 26.0012 40.568 25.2438C39.8107 24.4864 39.8107 23.2551 40.568 22.4977Z" fill="#3F469D"/>
<path d="M44.7057 13.2721C45.6154 12.3624 47.0921 12.3624 48.0019 13.2721C48.9116 14.1818 48.9116 15.6586 48.0019 16.5683C47.0921 17.478 45.6154 17.478 44.7057 16.5683C43.796 15.6586 43.796 14.1818 44.7057 13.2721Z" fill="#AB7BA5"/>
<path d="M53.0778 5.64809C54.1398 4.58605 55.8619 4.58605 56.924 5.64809C57.986 6.71013 57.986 8.43224 56.924 9.49428C55.8619 10.5563 54.1398 10.5563 53.0778 9.49428C52.0157 8.43224 52.0157 6.71013 53.0778 5.64809Z" fill="#DF6580"/>
<path d="M64.7233 1.58655C65.9376 0.37219 67.9052 0.37219 69.1195 1.58655C70.3339 2.80092 70.3339 4.76845 69.1195 5.98281C67.9052 7.19718 65.9376 7.19718 64.7233 5.98281C63.5089 4.76845 63.5089 2.80092 64.7233 1.58655Z" fill="#CB1B3C"/>
<path d="M12.2769 22.5699C11.7946 23.0522 11.016 23.0522 10.5336 22.5699C10.0513 22.0875 10.0513 21.309 10.5336 20.8266C11.016 20.3443 11.7946 20.3443 12.2769 20.8266C12.7593 21.309 12.7593 22.0875 12.2769 22.5699Z" fill="#27B462"/>
<path d="M17.4904 15.853C18.0236 15.3198 18.8825 15.3198 19.4156 15.853C19.9445 16.3819 19.9445 17.2451 19.4156 17.774C18.8825 18.3071 18.0236 18.3071 17.4904 17.774C16.9615 17.2408 16.9615 16.3819 17.4904 15.853Z" fill="#00B2D4"/>
<path d="M25.86 14.1921C26.4651 13.587 27.451 13.587 28.0561 14.1921C28.6611 14.7971 28.6611 15.783 28.0561 16.3881C27.451 16.9932 26.4651 16.9932 25.86 16.3881C25.255 15.783 25.255 14.7971 25.86 14.1921Z" fill="#0098D2"/>
<path d="M34.3156 16.3156C34.9968 15.6344 36.1054 15.6344 36.7867 16.3156C37.4679 16.9968 37.4679 18.1054 36.7867 18.7866C36.1054 19.4679 34.9968 19.4679 34.3156 18.7866C33.6344 18.1054 33.6344 16.9968 34.3156 16.3156Z" fill="#4189C5"/>
<path d="M42.8315 50.4413C42.8315 50.5513 42.7934 50.6613 42.713 50.7629C42.6284 50.8729 42.5226 50.9279 42.3957 50.9279C42.3068 50.9279 42.218 50.9025 42.1333 50.856C41.8795 50.7333 41.6044 50.674 41.3082 50.674C40.9444 50.674 40.627 50.7502 40.3604 50.9068C40.0896 51.0633 39.8823 51.2791 39.7385 51.5626C39.5946 51.8461 39.5227 52.1677 39.5227 52.5315C39.5227 53.1535 39.6877 53.6232 40.0177 53.9448C40.3477 54.2663 40.7793 54.4271 41.3125 54.4271C41.6298 54.4271 41.9048 54.3679 42.1376 54.2452C42.2306 54.2029 42.3153 54.1817 42.3872 54.1817C42.5226 54.1817 42.6368 54.241 42.7299 54.3552C42.8061 54.4568 42.8484 54.5625 42.8484 54.6768C42.8484 54.7614 42.8273 54.8376 42.7849 54.9053C42.7426 54.973 42.6834 55.028 42.6072 55.0618C42.201 55.2692 41.7737 55.3707 41.3167 55.3707C40.809 55.3707 40.3393 55.2607 39.9162 55.0449C39.493 54.8249 39.1503 54.5033 38.8964 54.0802C38.6426 53.6528 38.5156 53.1366 38.5156 52.5315C38.5156 51.9942 38.6341 51.5118 38.8753 51.0887C39.1165 50.6613 39.4507 50.3313 39.8739 50.0901C40.297 49.8489 40.7793 49.7305 41.3125 49.7305C41.7737 49.7305 42.201 49.832 42.5945 50.0394C42.7553 50.124 42.8357 50.2594 42.8357 50.4413H42.8315Z" fill="#3E4089"/>
<path d="M47.2957 54.3222C47.1095 54.6564 46.8557 54.9145 46.5299 55.1007C46.2041 55.2869 45.8486 55.3757 45.4594 55.3757C45.0701 55.3757 44.7062 55.2827 44.3846 55.1007C44.0631 54.9188 43.8092 54.6564 43.623 54.3222C43.4368 53.9879 43.3438 53.6113 43.3438 53.1882C43.3438 52.7651 43.4368 52.3885 43.623 52.0542C43.8092 51.72 44.0631 51.4576 44.3846 51.2715C44.7062 51.0853 45.0659 50.9922 45.4594 50.9922C45.8529 50.9922 46.2041 51.0853 46.5299 51.2715C46.8557 51.4576 47.1095 51.72 47.2957 52.0542C47.4819 52.3885 47.575 52.7651 47.575 53.1882C47.575 53.6113 47.4819 53.9879 47.2957 54.3222ZM46.4833 52.4985C46.3775 52.2954 46.2337 52.1388 46.056 52.0288C45.8783 51.9188 45.6794 51.8638 45.4594 51.8638C45.2393 51.8638 45.0447 51.9188 44.8628 52.0288C44.6851 52.1388 44.5412 52.2954 44.4354 52.4985C44.3296 52.7016 44.2746 52.9301 44.2746 53.1882C44.2746 53.4463 44.3254 53.6748 44.4354 53.8737C44.5412 54.0725 44.6851 54.2291 44.8628 54.3391C45.0405 54.4491 45.2393 54.5041 45.4594 54.5041C45.6794 54.5041 45.874 54.4491 46.056 54.3391C46.2337 54.2291 46.3775 54.0725 46.4833 53.8737C46.5891 53.6748 46.6441 53.4463 46.6441 53.1882C46.6441 52.9301 46.5933 52.7016 46.4833 52.4985Z" fill="#3E4089"/>
<path d="M51.6802 51.4742C51.8833 51.7916 51.9849 52.2316 51.9849 52.7944V54.8169C51.9849 54.9523 51.9426 55.0665 51.8537 55.1596C51.7649 55.2527 51.6549 55.2993 51.5195 55.2993C51.3841 55.2993 51.274 55.2527 51.1852 55.1596C51.0963 55.0665 51.054 54.9523 51.054 54.8169V52.7944C51.054 52.5066 50.9948 52.2782 50.8763 52.1131C50.7578 51.9481 50.5505 51.8635 50.2628 51.8635C49.9751 51.8635 49.7254 51.9524 49.5562 52.1258C49.3827 52.3036 49.2981 52.5236 49.2981 52.7944V54.8169C49.2981 54.9523 49.2557 55.0665 49.1669 55.1596C49.078 55.2527 48.968 55.2993 48.8326 55.2993C48.6972 55.2993 48.5872 55.2527 48.4984 55.1596C48.4095 55.0665 48.3672 54.9523 48.3672 54.8169V51.5589C48.3672 51.4235 48.4095 51.3092 48.4984 51.2161C48.5872 51.123 48.6972 51.0765 48.8326 51.0765C48.968 51.0765 49.078 51.123 49.1669 51.2161C49.2557 51.3092 49.2981 51.4235 49.2981 51.5589V51.6943C49.4377 51.5039 49.6196 51.3431 49.8481 51.2034C50.0766 51.0638 50.322 50.9961 50.5928 50.9961C51.1217 50.9961 51.4898 51.1569 51.6887 51.4742H51.6802Z" fill="#3E4089"/>
<path d="M52.6803 54.4068C52.6803 54.2714 52.748 54.1529 52.8834 54.0598C52.9554 54.0133 53.0315 53.9879 53.1077 53.9879C53.2177 53.9879 53.3193 54.0387 53.4208 54.136C53.5774 54.301 53.7381 54.4195 53.9074 54.4999C54.0766 54.5803 54.2797 54.6183 54.5167 54.6183C54.9229 54.6014 55.1218 54.4491 55.1218 54.1529C55.1218 54.0006 55.0541 53.8863 54.9144 53.806C54.7748 53.7256 54.5632 53.6494 54.2713 53.569C53.9709 53.4844 53.7255 53.3998 53.535 53.3151C53.3446 53.2305 53.1839 53.1036 53.0442 52.9301C52.9046 52.7608 52.8369 52.5281 52.8369 52.2404C52.8369 51.9865 52.9088 51.7665 53.0527 51.5803C53.1965 51.3941 53.3827 51.2503 53.6112 51.1445C53.8397 51.043 54.0851 50.9922 54.3474 50.9922C54.6098 50.9922 54.8763 51.043 55.1429 51.1403C55.4095 51.2376 55.6168 51.3857 55.7649 51.5803C55.8326 51.6649 55.8665 51.758 55.8665 51.8638C55.8665 51.9865 55.8157 52.0838 55.7184 52.1642C55.6464 52.2235 55.5618 52.2531 55.4687 52.2531C55.3545 52.2531 55.2614 52.215 55.1895 52.1431C55.0964 52.0288 54.9737 51.9357 54.8256 51.868C54.6775 51.8003 54.5125 51.7665 54.3221 51.7665C53.9285 51.7665 53.7297 51.9104 53.7297 52.2023C53.7297 52.3166 53.7635 52.4096 53.8397 52.4816C53.9159 52.5535 54.0047 52.6085 54.1147 52.6466C54.2247 52.6847 54.3813 52.7355 54.5844 52.7905C54.8637 52.8709 55.0964 52.9512 55.2868 53.0359C55.4729 53.1205 55.6337 53.2474 55.7607 53.4209C55.8918 53.5944 55.9553 53.8229 55.9553 54.1064C55.9553 54.3645 55.8791 54.5887 55.7311 54.7791C55.583 54.9695 55.3883 55.1176 55.1514 55.2192C54.9144 55.3207 54.6732 55.3673 54.4236 55.3673C54.0809 55.3673 53.7635 55.308 53.4673 55.1938C53.1712 55.0796 52.93 54.8934 52.7438 54.6353C52.6973 54.5718 52.6719 54.4914 52.6719 54.3983L52.6803 54.4068Z" fill="#3E4089"/>
<path d="M60.1731 51.2138C60.2619 51.3069 60.3042 51.4212 60.3042 51.5566V53.5622C60.3042 54.1292 60.1477 54.5734 59.843 54.895C59.5384 55.2166 59.0941 55.3774 58.5229 55.3774C57.9517 55.3774 57.5158 55.2166 57.207 54.895C56.9023 54.5734 56.75 54.1292 56.75 53.5622V51.5566C56.75 51.4212 56.7923 51.3069 56.8812 51.2138C56.97 51.1208 57.08 51.0742 57.2154 51.0742C57.3508 51.0742 57.4608 51.1208 57.5497 51.2138C57.6386 51.3069 57.6809 51.4212 57.6809 51.5566V53.5622C57.6809 53.8837 57.7528 54.1207 57.8924 54.2773C58.0321 54.4338 58.2436 54.51 58.5229 54.51C58.8021 54.51 59.0222 54.4338 59.1618 54.2773C59.3014 54.1207 59.3734 53.8837 59.3734 53.5622V51.5566C59.3734 51.4212 59.4157 51.3069 59.5045 51.2138C59.5934 51.1208 59.7034 51.0742 59.8388 51.0742C59.9742 51.0742 60.0842 51.1208 60.1731 51.2138Z" fill="#3E4089"/>
<path d="M62.1861 55.1607C62.0972 55.2538 61.983 55.3004 61.8476 55.3004C61.7122 55.3004 61.6106 55.2538 61.5218 55.1607C61.4329 55.0676 61.3906 54.9534 61.3906 54.818V49.9394C61.3906 49.804 61.4372 49.6897 61.526 49.5967C61.6149 49.5036 61.7291 49.457 61.8645 49.457C61.9999 49.457 62.1015 49.5036 62.1903 49.5967C62.2792 49.6897 62.3215 49.804 62.3215 49.9394V54.818C62.3215 54.9534 62.275 55.0676 62.1861 55.1607Z" fill="#3E4089"/>
<path d="M65.625 54.5138C65.6842 54.5857 65.7139 54.6788 65.7139 54.793C65.7139 54.9327 65.6377 55.0554 65.4854 55.1527C65.333 55.25 65.1596 55.2966 64.9692 55.2966C64.6476 55.2966 64.3768 55.2246 64.1568 55.0892C63.9367 54.9496 63.8267 54.6534 63.8267 54.2007V52.0216H63.4671C63.3444 52.0216 63.2386 51.9793 63.154 51.8946C63.0693 51.81 63.0312 51.7042 63.0312 51.5773C63.0312 51.4504 63.0736 51.3531 63.154 51.2727C63.2386 51.1923 63.3401 51.1499 63.4671 51.1499H63.8267V50.6464C63.8267 50.511 63.8733 50.3968 63.9621 50.3037C64.051 50.2106 64.1652 50.1641 64.3006 50.1641C64.436 50.1641 64.5376 50.2106 64.6264 50.3037C64.7153 50.3968 64.7576 50.511 64.7576 50.6464V51.1499H65.3119C65.4346 51.1499 65.5404 51.1923 65.625 51.2769C65.7096 51.3615 65.7477 51.4673 65.7477 51.5942C65.7477 51.7212 65.7054 51.8185 65.625 51.8989C65.5404 51.9793 65.4388 52.0216 65.3119 52.0216H64.7576V54.1626C64.7576 54.2726 64.7872 54.353 64.8422 54.4038C64.8972 54.4545 64.9776 54.4799 65.0749 54.4799C65.1172 54.4799 65.1723 54.4672 65.2442 54.4461C65.3077 54.4207 65.3669 54.408 65.4219 54.408C65.4938 54.408 65.5615 54.4418 65.6208 54.5138H65.625Z" fill="#3E4089"/>
<path d="M66.6256 50.4758C66.5537 50.4166 66.5156 50.315 66.5156 50.1669V50.0188C66.5156 49.8707 66.5537 49.7692 66.6341 49.71C66.7103 49.6507 66.8372 49.6211 67.0064 49.6211C67.1884 49.6211 67.3153 49.6507 67.3873 49.71C67.4592 49.7692 67.4973 49.8707 67.4973 50.0188V50.1669C67.4973 50.3193 67.4592 50.425 67.383 50.48C67.3069 50.535 67.1799 50.5647 66.998 50.5647C66.816 50.5647 66.6976 50.535 66.6256 50.4758ZM67.3407 55.1598C67.2519 55.2529 67.1418 55.2994 67.0064 55.2994C66.8711 55.2994 66.761 55.2529 66.6722 55.1598C66.5833 55.0667 66.541 54.9524 66.541 54.817V51.559C66.541 51.4236 66.5833 51.3094 66.6722 51.2163C66.761 51.1232 66.8711 51.0766 67.0064 51.0766C67.1418 51.0766 67.2519 51.1232 67.3407 51.2163C67.4296 51.3094 67.4719 51.4236 67.4719 51.559V54.817C67.4719 54.9524 67.4296 55.0667 67.3407 55.1598Z" fill="#3E4089"/>
<path d="M71.7584 51.4742C71.9615 51.7916 72.063 52.2316 72.063 52.7944V54.8169C72.063 54.9523 72.0207 55.0665 71.9318 55.1596C71.843 55.2527 71.733 55.2993 71.5976 55.2993C71.4622 55.2993 71.3522 55.2527 71.2633 55.1596C71.1745 55.0665 71.1321 54.9523 71.1321 54.8169V52.7944C71.1321 52.5066 71.0729 52.2782 70.9544 52.1131C70.836 51.9481 70.6286 51.8635 70.3409 51.8635C70.0532 51.8635 69.8035 51.9524 69.6343 52.1258C69.4608 52.3036 69.3762 52.5236 69.3762 52.7944V54.8169C69.3762 54.9523 69.3339 55.0665 69.245 55.1596C69.1562 55.2527 69.0461 55.2993 68.9107 55.2993C68.7753 55.2993 68.6653 55.2527 68.5765 55.1596C68.4876 55.0665 68.4453 54.9523 68.4453 54.8169V51.5589C68.4453 51.4235 68.4876 51.3092 68.5765 51.2161C68.6653 51.123 68.7753 51.0765 68.9107 51.0765C69.0461 51.0765 69.1562 51.123 69.245 51.2161C69.3339 51.3092 69.3762 51.4235 69.3762 51.5589V51.6943C69.5158 51.5039 69.6978 51.3431 69.9262 51.2034C70.1547 51.0638 70.4001 50.9961 70.6709 50.9961C71.1998 50.9961 71.568 51.1569 71.7668 51.4742H71.7584Z" fill="#3E4089"/>
<path d="M76.8478 51.1276C76.9367 51.2164 76.979 51.3349 76.979 51.4745V54.9865C76.979 55.6296 76.7843 56.1035 76.3908 56.4124C75.9973 56.7213 75.5023 56.8736 74.9014 56.8736C74.7449 56.8736 74.5333 56.8482 74.2583 56.7932C73.9875 56.7424 73.7928 56.6874 73.6786 56.6367C73.4247 56.5266 73.2978 56.3743 73.2978 56.1797C73.2978 56.1416 73.3063 56.0993 73.3189 56.0527C73.3486 55.9385 73.4036 55.8496 73.4797 55.7904C73.5559 55.7312 73.6363 55.7015 73.7251 55.7015C73.7759 55.7015 73.8267 55.71 73.8732 55.7269C73.8944 55.7312 74.0213 55.7819 74.2583 55.875C74.4952 55.9681 74.7068 56.0147 74.9014 56.0147C75.2865 56.0147 75.57 55.9385 75.7604 55.7819C75.9508 55.6254 76.0439 55.4054 76.0439 55.1219V54.7411C75.9296 54.9061 75.7561 55.0499 75.5277 55.1811C75.2949 55.3123 75.0495 55.38 74.783 55.38C74.4191 55.38 74.089 55.2869 73.7928 55.1007C73.4924 54.9145 73.2597 54.6564 73.0862 54.3222C72.917 53.9921 72.8281 53.6155 72.8281 53.1924C72.8281 52.7693 72.9128 52.3927 73.082 52.0585C73.2513 51.7242 73.4797 51.4618 73.7759 51.2757C74.0679 51.0895 74.3937 50.9964 74.7533 50.9964C75.0199 50.9964 75.2653 51.0514 75.4938 51.1614C75.7223 51.2714 75.9042 51.4068 76.0481 51.5634V51.4745C76.0481 51.3391 76.0904 51.2249 76.1793 51.1318C76.2681 51.0387 76.3781 50.9922 76.5135 50.9922C76.6489 50.9922 76.7589 51.0387 76.8478 51.1276ZM75.7561 54.1318C75.9762 53.8821 76.0862 53.569 76.0862 53.1882C76.0862 52.8074 75.9762 52.4943 75.7561 52.2404C75.5361 51.9865 75.2526 51.8596 74.9057 51.8596C74.5587 51.8596 74.2752 51.9865 74.0594 52.2404C73.8436 52.4943 73.7336 52.8074 73.7336 53.1882C73.7336 53.569 73.8436 53.8821 74.0594 54.1318C74.2794 54.3814 74.5587 54.5083 74.9057 54.5083C75.2526 54.5083 75.5361 54.3856 75.7561 54.1318Z" fill="#3E4089"/>
</svg>
