<svg width="77" height="58" viewBox="0 0 77 58" fill="none" xmlns="http://www.w3.org/2000/svg">
<path d="M43.5162 28.1406H40.4062V41.3505H43.5162V28.1406Z" fill="#3E4089"/>
<path d="M49.8955 33.9465C49.4047 33.9465 49.007 33.553 49.007 33.0707V29.7534C49.0408 28.5178 50.8772 28.5136 50.911 29.7534V32.2921H52.5273V30.5446C52.3877 27.1935 47.5303 27.1935 47.3906 30.5446V33.6376C47.3949 33.8534 47.4668 34.4966 48.0888 34.7885C47.7714 34.9409 47.3906 35.2624 47.3906 35.9521V39.0113C47.5303 42.3624 52.3877 42.3624 52.5273 39.0113V35.5459H53.6105V33.9465H49.8955ZM49.9632 40.7461C49.4385 40.7461 49.0112 40.323 49.0112 39.8068V36.426C49.0112 35.9437 49.4089 35.5502 49.8997 35.5502H50.9152V39.811C50.9152 40.3272 50.4879 40.7461 49.9632 40.7461Z" fill="#3E4089"/>
<path d="M3.24286 41.3509C3.23863 35.4991 2.86205 27.5486 5.65043 22.9112C5.9847 22.3188 6.48399 22.3315 6.81825 22.9281C9.14967 27.007 9.33161 33.6882 9.20044 41.3509H12.4373V35.7868C12.4373 28.1241 9.2893 24.1002 7.46563 22.4119C6.77594 21.773 5.7266 21.7603 5.03267 22.395C-0.247907 27.3159 -0.0109582 34.8179 0.00596674 41.3509H3.24286Z" fill="#3E4089"/>
<path d="M19.5791 41.3515V32.2163C19.5791 30.6888 20.7469 29.449 22.1813 29.449C23.6157 29.449 24.7793 30.6845 24.7793 32.212V41.3557H28.0458V32.2205C28.0458 30.693 29.2136 29.4533 30.648 29.4533C32.0824 29.4533 33.246 30.6888 33.246 32.2163V41.3599H36.5125V34.2811C36.5421 28.772 30.0937 25.8821 26.4126 29.9737C22.7272 25.8821 16.283 28.7763 16.3126 34.2811V41.3599H19.5791V41.3515Z" fill="#3E4089"/>
<path d="M60.0671 41.3501V26.0669C60.0671 24.5521 61.2349 23.3208 62.6693 23.3208C64.1037 23.3208 65.2673 24.5478 65.2673 26.0584V41.3458H68.538V26.0626C68.538 24.5478 69.7058 23.3165 71.1402 23.3165C72.5746 23.3165 73.7382 24.5436 73.7382 26.0542V41.3416H77.0047V28.0978C77.0343 22.6353 70.5902 19.7708 66.9047 23.8243C63.2193 19.7665 56.7752 22.6353 56.8048 28.0978V41.3416H60.0713L60.0671 41.3501Z" fill="#3E4089"/>
<path d="M7.03979 32.4624C6.58281 32.9194 5.84658 32.9194 5.38961 32.4624C4.93263 32.0054 4.93263 31.2692 5.38961 30.8122C5.84658 30.3595 6.58281 30.3595 7.03979 30.8122C7.49676 31.2692 7.49676 32.0054 7.03979 32.4624Z" fill="#85B658"/>
<path d="M40.568 22.4977C41.3254 21.7403 42.5567 21.7403 43.3141 22.4977C44.0715 23.2551 44.0715 24.4864 43.3141 25.2438C42.5567 26.0012 41.3254 26.0012 40.568 25.2438C39.8107 24.4864 39.8107 23.2551 40.568 22.4977Z" fill="#3F469D"/>
<path d="M44.7057 13.2721C45.6154 12.3624 47.0921 12.3624 48.0019 13.2721C48.9116 14.1818 48.9116 15.6586 48.0019 16.5683C47.0921 17.478 45.6154 17.478 44.7057 16.5683C43.796 15.6586 43.796 14.1818 44.7057 13.2721Z" fill="#AB7BA5"/>
<path d="M53.0778 5.64809C54.1398 4.58605 55.8619 4.58605 56.924 5.64809C57.986 6.71013 57.986 8.43224 56.924 9.49428C55.8619 10.5563 54.1398 10.5563 53.0778 9.49428C52.0157 8.43224 52.0157 6.71013 53.0778 5.64809Z" fill="#DF6580"/>
<path d="M64.7233 1.58655C65.9376 0.37219 67.9052 0.37219 69.1195 1.58655C70.3339 2.80092 70.3339 4.76845 69.1195 5.98281C67.9052 7.19718 65.9376 7.19718 64.7233 5.98281C63.5089 4.76845 63.5089 2.80092 64.7233 1.58655Z" fill="#CB1B3C"/>
<path d="M12.2769 22.5699C11.7946 23.0522 11.016 23.0522 10.5336 22.5699C10.0513 22.0875 10.0513 21.309 10.5336 20.8266C11.016 20.3443 11.7946 20.3443 12.2769 20.8266C12.7593 21.309 12.7593 22.0875 12.2769 22.5699Z" fill="#27B462"/>
<path d="M17.4904 15.853C18.0236 15.3198 18.8825 15.3198 19.4156 15.853C19.9445 16.3819 19.9445 17.2451 19.4156 17.774C18.8825 18.3071 18.0236 18.3071 17.4904 17.774C16.9615 17.2408 16.9615 16.3819 17.4904 15.853Z" fill="#00B2D4"/>
<path d="M25.86 14.1921C26.4651 13.587 27.451 13.587 28.0561 14.1921C28.6611 14.7971 28.6611 15.783 28.0561 16.3881C27.451 16.9932 26.4651 16.9932 25.86 16.3881C25.255 15.783 25.255 14.7971 25.86 14.1921Z" fill="#0098D2"/>
<path d="M34.3156 16.3156C34.9968 15.6344 36.1054 15.6344 36.7867 16.3156C37.4679 16.9968 37.4679 18.1054 36.7867 18.7866C36.1054 19.4679 34.9968 19.4679 34.3156 18.7866C33.6344 18.1054 33.6344 16.9968 34.3156 16.3156Z" fill="#4189C5"/>
<path d="M40.3931 49.9979C40.4839 50.0888 40.5272 50.2056 40.5272 50.3528V55.0185C40.5272 55.157 40.4796 55.2739 40.3844 55.3691C40.2892 55.4643 40.168 55.5119 40.0165 55.5119C39.8823 55.5119 39.7698 55.4643 39.6746 55.3691C39.5794 55.2739 39.5318 55.157 39.5318 55.0185V53.1358H36.9955V55.0185C36.9955 55.157 36.9435 55.2739 36.844 55.3691C36.7444 55.4643 36.6276 55.5119 36.4934 55.5119C36.3506 55.5119 36.2337 55.4643 36.1385 55.3691C36.0476 55.2739 36 55.157 36 55.0185V50.3528C36 50.2143 36.0476 50.0974 36.1428 50.0022C36.238 49.907 36.3592 49.8594 36.5107 49.8594C36.6449 49.8594 36.7574 49.907 36.8526 50.0022C36.9479 50.0974 36.9955 50.2143 36.9955 50.3528V52.2095H39.5361V50.3528C39.5361 50.2143 39.588 50.0974 39.6876 50.0022C39.7871 49.907 39.904 49.8594 40.0381 49.8594C40.1853 49.8594 40.3065 49.907 40.3974 49.9979H40.3931Z" fill="#3E4089"/>
<path d="M45.4487 54.5117C45.2583 54.8536 44.9943 55.1176 44.6653 55.3081C44.3321 55.4985 43.9685 55.5894 43.5703 55.5894C43.1721 55.5894 42.7999 55.4942 42.471 55.3081C42.142 55.1176 41.8823 54.8536 41.6919 54.5117C41.5015 54.1698 41.4062 53.7846 41.4062 53.3518C41.4062 52.919 41.5015 52.5338 41.6919 52.1918C41.8823 51.8499 42.142 51.5859 42.471 51.3911C42.7999 51.2007 43.1678 51.1055 43.5703 51.1055C43.9728 51.1055 44.3321 51.2007 44.6653 51.3911C44.9986 51.5816 45.2583 51.8499 45.4487 52.1918C45.6392 52.5338 45.7344 52.919 45.7344 53.3518C45.7344 53.7846 45.6392 54.1698 45.4487 54.5117ZM44.6177 52.6463C44.5095 52.4385 44.3624 52.2784 44.1806 52.1659C43.9988 52.0533 43.7954 51.9971 43.5703 51.9971C43.3453 51.9971 43.1462 52.0533 42.96 52.1659C42.7739 52.2784 42.6311 52.4385 42.5229 52.6463C42.4147 52.854 42.3584 53.0878 42.3584 53.3518C42.3584 53.6158 42.4104 53.8495 42.5229 54.0529C42.6311 54.2563 42.7783 54.4165 42.96 54.529C43.1418 54.6416 43.3453 54.6978 43.5703 54.6978C43.7954 54.6978 43.9945 54.6416 44.1806 54.529C44.3624 54.4165 44.5095 54.2563 44.6177 54.0529C44.7259 53.8495 44.7822 53.6158 44.7822 53.3518C44.7822 53.0878 44.7259 52.854 44.6177 52.6463Z" fill="#3E4089"/>
<path d="M46.2075 54.5978C46.2075 54.4593 46.2767 54.3382 46.4152 54.2429C46.4888 54.1953 46.5667 54.1694 46.6446 54.1694C46.7571 54.1694 46.861 54.2213 46.9649 54.3208C47.125 54.4896 47.2895 54.6108 47.4626 54.6931C47.6357 54.7753 47.8435 54.8143 48.0859 54.8143C48.5014 54.7969 48.7048 54.6411 48.7048 54.3382C48.7048 54.1823 48.6355 54.0655 48.4927 53.9833C48.3499 53.901 48.1335 53.8231 47.8348 53.7409C47.5275 53.6543 47.2765 53.5678 47.0817 53.4812C46.887 53.3946 46.7225 53.2648 46.5797 53.0917C46.4412 52.9185 46.3676 52.6805 46.3676 52.3862C46.3676 52.1265 46.4412 51.9014 46.5883 51.711C46.7355 51.5205 46.9259 51.3734 47.1596 51.2652C47.3934 51.1613 47.6444 51.1094 47.9127 51.1094C48.1811 51.1094 48.4538 51.1613 48.7264 51.2609C48.9991 51.3647 49.2112 51.5119 49.3627 51.711C49.4319 51.7975 49.4665 51.8928 49.4665 52.001C49.4665 52.1265 49.4146 52.226 49.3151 52.3083C49.2415 52.3689 49.1549 52.3992 49.0597 52.3992C48.9428 52.3992 48.8476 52.3602 48.774 52.2866C48.6788 52.1698 48.5576 52.0745 48.4061 52.0053C48.2547 51.936 48.0815 51.9014 47.8911 51.9014C47.4886 51.9014 47.2852 52.0486 47.2852 52.3472C47.2852 52.4641 47.3241 52.5593 47.3977 52.6329C47.4713 52.7065 47.5665 52.7627 47.679 52.8017C47.7915 52.8406 47.9517 52.8926 48.1594 52.9488C48.4451 53.0311 48.6831 53.1133 48.8779 53.1999C49.0683 53.2864 49.2328 53.4163 49.3627 53.5937C49.4968 53.7712 49.5618 54.0049 49.5618 54.2949C49.5618 54.5589 49.4838 54.7883 49.3324 54.9831C49.1766 55.1778 48.9818 55.3293 48.7394 55.4332C48.497 55.5371 48.2503 55.5847 47.995 55.5847C47.6444 55.5847 47.3198 55.5241 47.0168 55.4072C46.7138 55.2903 46.4671 55.0956 46.2767 54.8359C46.2291 54.771 46.2031 54.6887 46.2031 54.5935L46.2075 54.5978Z" fill="#3E4089"/>
<path d="M53.5657 51.395C53.8643 51.5855 54.098 51.8495 54.2712 52.1914C54.4443 52.529 54.5308 52.9142 54.5308 53.347C54.5308 53.7798 54.4443 54.165 54.2755 54.507C54.1067 54.8489 53.873 55.1172 53.5787 55.3077C53.2843 55.4981 52.9597 55.5933 52.6048 55.5933C52.3495 55.5933 52.1114 55.5414 51.882 55.4375C51.657 55.3336 51.4709 55.2038 51.3194 55.0523V56.6364C51.3194 56.7749 51.2761 56.8918 51.1852 56.987C51.0943 57.0822 50.9818 57.1298 50.8433 57.1298C50.7048 57.1298 50.5922 57.0822 50.5014 56.9913C50.4105 56.9004 50.3672 56.7836 50.3672 56.6364V51.685C50.3672 51.5465 50.4105 51.4297 50.5014 51.3344C50.5922 51.2392 50.7048 51.1916 50.8433 51.1916C50.9818 51.1916 51.0943 51.2392 51.1852 51.3344C51.2761 51.4297 51.3194 51.5465 51.3194 51.685V51.7153C51.4449 51.5552 51.6267 51.4123 51.8517 51.2912C52.0811 51.17 52.3192 51.1094 52.5659 51.1094C52.9338 51.1094 53.2627 51.2046 53.5613 51.395H53.5657ZM53.2843 54.3165C53.5008 54.0568 53.609 53.7365 53.609 53.347C53.609 52.9575 53.5008 52.6372 53.2887 52.3818C53.0723 52.1265 52.7953 51.9966 52.449 51.9966C52.1028 51.9966 51.8214 52.1265 51.605 52.3818C51.3886 52.6372 51.2804 52.9575 51.2804 53.347C51.2804 53.7365 51.3886 54.0568 51.605 54.3165C51.8214 54.5762 52.1028 54.7061 52.449 54.7061C52.7953 54.7061 53.0679 54.5762 53.2843 54.3165Z" fill="#3E4089"/>
<path d="M56.1416 49.793C56.2152 49.8536 56.2541 49.9574 56.2541 50.1089V50.2604C56.2541 50.4162 56.2152 50.5244 56.1373 50.5807C56.0594 50.637 55.9295 50.6673 55.7434 50.6673C55.5573 50.6673 55.4361 50.637 55.3625 50.5764C55.289 50.5158 55.25 50.4119 55.25 50.2604V50.1089C55.25 49.9574 55.289 49.8536 55.3712 49.793" fill="#3E4089"/>
<path d="M56.0915 55.3681C56.0006 55.4633 55.888 55.5109 55.7495 55.5109C55.611 55.5109 55.4985 55.4633 55.4076 55.3681C55.3167 55.2728 55.2734 55.156 55.2734 55.0175V51.6848C55.2734 51.5463 55.3167 51.4295 55.4076 51.3342C55.4985 51.239 55.611 51.1914 55.7495 51.1914C55.888 51.1914 56.0006 51.239 56.0915 51.3342C56.1823 51.4295 56.2256 51.5463 56.2256 51.6848V55.0175C56.2256 55.156 56.1823 55.2728 56.0915 55.3681Z" fill="#3E4089"/>
<path d="M59.4656 54.7067C59.5262 54.7803 59.5565 54.8755 59.5565 54.9924C59.5565 55.1395 59.4786 55.2607 59.3228 55.3603C59.167 55.4598 58.9895 55.5117 58.7948 55.5117C58.4658 55.5117 58.1888 55.4425 57.9638 55.2997C57.7387 55.1568 57.6262 54.8539 57.6262 54.3908V52.1618H57.2583C57.1328 52.1618 57.0246 52.1185 56.938 52.0319C56.8515 51.9454 56.8125 51.8372 56.8125 51.7073C56.8125 51.5775 56.8558 51.4823 56.938 51.3957C57.0246 51.3135 57.1285 51.2702 57.2583 51.2702H57.6262V50.7551C57.6262 50.6166 57.6738 50.4998 57.7647 50.4045C57.8556 50.3093 57.9724 50.2617 58.1109 50.2617C58.2494 50.2617 58.3533 50.3093 58.4442 50.4045C58.5351 50.4998 58.5784 50.6166 58.5784 50.7551V51.2702H59.1454C59.2709 51.2702 59.3791 51.3135 59.4656 51.4C59.5522 51.4866 59.5912 51.5948 59.5912 51.7246C59.5912 51.8545 59.5479 51.954 59.4656 52.0363C59.3791 52.1185 59.2752 52.1618 59.1454 52.1618H58.5784V54.3475C58.5784 54.46 58.6087 54.5422 58.6649 54.5942C58.7212 54.6461 58.8034 54.6721 58.903 54.6721C58.9463 54.6721 59.0025 54.6634 59.0804 54.6418C59.1454 54.6158 59.206 54.6028 59.2622 54.6028C59.3358 54.6028 59.405 54.6375 59.4656 54.711V54.7067Z" fill="#3E4089"/>
<path d="M64.2482 51.2483C64.3391 51.3392 64.3824 51.456 64.3824 51.6032V55.0181C64.3824 55.1566 64.3391 55.2735 64.2482 55.3687C64.1573 55.4639 64.0448 55.5115 63.9063 55.5115C63.7678 55.5115 63.6553 55.4639 63.5687 55.373C63.4822 55.2821 63.4346 55.1653 63.4302 55.0268C63.2961 55.1826 63.1186 55.3167 62.8935 55.4249C62.6685 55.5331 62.4304 55.5894 62.1794 55.5894C61.8115 55.5894 61.4826 55.4942 61.1839 55.3038C60.8853 55.1133 60.6516 54.8493 60.4784 54.5074C60.3053 54.1698 60.2188 53.7846 60.2188 53.3518C60.2188 52.919 60.3053 52.5338 60.4741 52.1918C60.6429 51.8499 60.8766 51.5859 61.1709 51.3911C61.4653 51.2007 61.7899 51.1055 62.1448 51.1055C62.4001 51.1055 62.6382 51.1531 62.8632 51.2483C63.0883 51.3435 63.2744 51.4604 63.4302 51.6075V51.5989C63.4302 51.4604 63.4735 51.3435 63.5644 51.2483C63.6553 51.1531 63.7678 51.1055 63.9063 51.1055C64.0448 51.1055 64.1573 51.1531 64.2482 51.244V51.2483ZM63.1402 54.3213C63.3566 54.0659 63.4648 53.7456 63.4648 53.3561C63.4648 52.9666 63.3566 52.6463 63.1402 52.3866C62.9238 52.1269 62.6425 51.9971 62.2963 51.9971C61.95 51.9971 61.6773 52.1269 61.4609 52.3866C61.2445 52.6463 61.1363 52.9666 61.1363 53.3561C61.1363 53.7456 61.2445 54.0659 61.4566 54.3213C61.673 54.5766 61.95 54.7065 62.2963 54.7065C62.6425 54.7065 62.9238 54.5766 63.1402 54.3213Z" fill="#3E4089"/>
<path d="M66.318 49.6758C66.4089 49.771 66.4522 49.8879 66.4522 50.0264V55.0167C66.4522 55.1552 66.4046 55.2721 66.3137 55.3673C66.2228 55.4625 66.1059 55.5101 65.9674 55.5101C65.8289 55.5101 65.7251 55.4625 65.6342 55.3673C65.5433 55.2721 65.5 55.1552 65.5 55.0167V50.0264C65.5 49.8879 65.5476 49.771 65.6385 49.6758" fill="#3E4089"/>
<path d="M68.376 49.793C68.4495 49.8536 68.4885 49.9574 68.4885 50.1089V50.2604C68.4885 50.4162 68.4495 50.5244 68.3716 50.5807C68.2937 50.637 68.1639 50.6673 67.9778 50.6673C67.7917 50.6673 67.6705 50.637 67.5969 50.5764C67.5233 50.5158 67.4844 50.4119 67.4844 50.2604V50.1089C67.4844 49.9574 67.5233 49.8536 67.6056 49.793" fill="#3E4089"/>
<path d="M68.3336 55.3681C68.2428 55.4633 68.1302 55.5109 67.9917 55.5109C67.8532 55.5109 67.7407 55.4633 67.6498 55.3681C67.5589 55.2728 67.5156 55.156 67.5156 55.0175V51.6848C67.5156 51.5463 67.5589 51.4295 67.6498 51.3342C67.7407 51.239 67.8532 51.1914 67.9917 51.1914C68.1302 51.1914 68.2428 51.239 68.3336 51.3342C68.4245 51.4295 68.4678 51.5463 68.4678 51.6848V55.0175C68.4678 55.156 68.4245 55.2728 68.3336 55.3681Z" fill="#3E4089"/>
<path d="M71.7 54.7067C71.7606 54.7803 71.7909 54.8755 71.7909 54.9924C71.7909 55.1395 71.713 55.2607 71.5572 55.3603C71.4014 55.4598 71.2239 55.5117 71.0292 55.5117C70.7002 55.5117 70.4232 55.4425 70.1982 55.2997C69.9731 55.1568 69.8606 54.8539 69.8606 54.3908V52.1618H69.4927C69.3672 52.1618 69.259 52.1185 69.1724 52.0319C69.0858 51.9454 69.0469 51.8372 69.0469 51.7073C69.0469 51.5775 69.0902 51.4823 69.1724 51.3957C69.259 51.3135 69.3628 51.2702 69.4927 51.2702H69.8606V50.7551C69.8606 50.6166 69.9082 50.4998 69.9991 50.4045C70.09 50.3093 70.2068 50.2617 70.3453 50.2617C70.4838 50.2617 70.5877 50.3093 70.6786 50.4045C70.7695 50.4998 70.8128 50.6166 70.8128 50.7551V51.2702H71.3797C71.5053 51.2702 71.6135 51.3135 71.7 51.4C71.7866 51.4866 71.8255 51.5948 71.8255 51.7246C71.8255 51.8545 71.7823 51.954 71.7 52.0363C71.6135 52.1185 71.5096 52.1618 71.3797 52.1618H70.8128V54.3475C70.8128 54.46 70.843 54.5422 70.8993 54.5942C70.9556 54.6461 71.0378 54.6721 71.1374 54.6721C71.1806 54.6721 71.2369 54.6634 71.3148 54.6418C71.3797 54.6158 71.4403 54.6028 71.4966 54.6028C71.5702 54.6028 71.6394 54.6375 71.7 54.711V54.7067Z" fill="#3E4089"/>
<path d="M76.2046 51.3308C76.2955 51.426 76.3388 51.5428 76.3388 51.6813V55.1135C76.3388 55.8147 76.1526 56.3211 75.7804 56.6414C75.4082 56.9616 74.9148 57.1218 74.2915 57.1218C74.1098 57.1218 73.928 57.1088 73.7375 57.0785C73.5471 57.0482 73.3956 57.0093 73.2788 56.9616C73.0191 56.8491 72.8892 56.6933 72.8892 56.4942C72.8892 56.4553 72.8979 56.412 72.9152 56.3644C72.9455 56.2475 73.0018 56.1566 73.0797 56.096C73.1576 56.0354 73.2398 56.0051 73.3307 56.0051C73.3826 56.0051 73.4346 56.0138 73.4822 56.0311C73.5168 56.0484 73.5861 56.0744 73.677 56.1133C73.7678 56.1523 73.8674 56.1826 73.9713 56.2042C74.0751 56.2302 74.1833 56.2389 74.2915 56.2389C74.6681 56.2389 74.9451 56.1566 75.1225 55.9921C75.3 55.8277 75.3909 55.5463 75.3909 55.1482V55.0659C75.1139 55.4165 74.6854 55.5896 74.1011 55.5896C73.8241 55.5896 73.5817 55.5247 73.3697 55.3905C73.1576 55.2564 72.9931 55.0746 72.8762 54.8409C72.7594 54.6071 72.7031 54.3388 72.7031 54.0358V51.677C72.7031 51.5385 72.7464 51.4216 72.8373 51.3264C72.9282 51.2312 73.0407 51.1836 73.1792 51.1836C73.3177 51.1836 73.4303 51.2312 73.5211 51.3264C73.612 51.4216 73.6553 51.5385 73.6553 51.677V53.7415C73.6553 54.0791 73.7289 54.3258 73.876 54.473C74.0232 54.6201 74.2353 54.6937 74.5166 54.6937C74.7979 54.6937 75.0057 54.6115 75.1572 54.447C75.3087 54.2825 75.3822 54.0488 75.3822 53.7415V51.677C75.3822 51.5385 75.4255 51.4216 75.5164 51.3264C75.6073 51.2312 75.7198 51.1836 75.8583 51.1836C75.9968 51.1836 76.1094 51.2312 76.2003 51.3264L76.2046 51.3308Z" fill="#3E4089"/>
</svg>
