<svg xmlns="http://www.w3.org/2000/svg" width="83" height="61" viewBox="0 0 83 61" fill="none">
  <g clip-path="url(#clip0_11728_50431)">
    <path d="M46.6971 30.1523H43.3594V44.3296H46.6971V30.1523Z" fill="#3D408A"/>
    <path d="M53.5477 36.3875C53.0209 36.3875 52.5941 35.9652 52.5941 35.4475V31.8873C52.6304 30.5613 54.6012 30.5567 54.6375 31.8873V34.6119H56.3722V32.7365C56.2224 29.1399 51.0092 29.1399 50.8594 32.7365V36.056C50.8639 36.2876 50.9411 36.9778 51.6087 37.2911C51.2681 37.4546 50.8594 37.7997 50.8594 38.5399V41.8231C51.0092 45.4197 56.2224 45.4197 56.3722 41.8231V38.104H57.5347V36.3875H53.5477ZM53.6203 43.6804C53.0572 43.6804 52.5986 43.2263 52.5986 42.6723V39.044C52.5986 38.5263 53.0255 38.104 53.5522 38.104H54.6421V42.6769C54.6421 43.2309 54.1834 43.685 53.6203 43.685" fill="#3D408A"/>
    <path d="M3.48032 44.328C3.47578 38.0477 3.07163 29.5151 6.06419 24.538C6.42293 23.9023 6.95878 23.9159 7.31752 24.5562C9.81965 28.9338 10.0149 36.1041 9.87415 44.328H13.3481V38.3565C13.3481 30.1326 9.96951 25.8141 8.01231 24.0022C7.27211 23.3165 6.14593 23.3029 5.40119 23.984C-0.26606 29.2653 -0.0117606 37.3166 0.00640366 44.328H3.48032Z" fill="#3D408A"/>
    <path d="M21.0214 44.3296V34.5255C21.0214 32.8861 22.2748 31.5556 23.8142 31.5556C25.3536 31.5556 26.6024 32.8816 26.6024 34.5209V44.3342H30.1081V34.53C30.1081 32.8907 31.3615 31.5601 32.9009 31.5601C34.4403 31.5601 35.6891 32.8861 35.6891 34.5255V44.3387H39.1948V36.7415C39.2266 30.829 32.306 27.7275 28.3553 32.1187C24.4 27.7275 17.4839 30.8336 17.5157 36.7415V44.3387H21.0214V44.3296Z" fill="#3D408A"/>
    <path d="M64.47 44.328V27.9256C64.47 26.2999 65.7234 24.9785 67.2628 24.9785C68.8022 24.9785 70.051 26.2954 70.051 27.9165V44.3234H73.5612V27.9211C73.5612 26.2954 74.8146 24.9739 76.354 24.9739C77.8934 24.9739 79.1422 26.2908 79.1422 27.912V44.3189H82.6479V30.1053C82.6797 24.2428 75.7637 21.1685 71.8084 25.5189C67.8531 21.164 60.9371 24.2428 60.9689 30.1053V44.3189H64.4746L64.47 44.328Z" fill="#3D408A"/>
    <path d="M7.56072 34.7912C7.07028 35.2816 6.28014 35.2816 5.7897 34.7912C5.29927 34.3007 5.29927 33.5106 5.7897 33.0202C6.28014 32.5297 7.07028 32.5297 7.56072 33.0202C8.05115 33.5106 8.05115 34.3007 7.56072 34.7912Z" fill="#85B658"/>
    <path d="M43.5393 24.094C44.3522 23.2812 45.6736 23.2812 46.4865 24.094C47.2993 24.9069 47.2993 26.2283 46.4865 27.0412C45.6736 27.854 44.3522 27.854 43.5393 27.0412C42.7265 26.2283 42.7265 24.9069 43.5393 24.094Z" fill="#3F469D"/>
    <path d="M47.9744 14.1932C48.9508 13.2169 50.5356 13.2169 51.5119 14.1932C52.4883 15.1695 52.4883 16.7543 51.5119 17.7307C50.5356 18.707 48.9508 18.707 47.9744 17.7307C46.9981 16.7543 46.9981 15.1695 47.9744 14.1932Z" fill="#AB7BA5"/>
    <path d="M56.9642 6.01111C58.104 4.8713 59.9523 4.8713 61.0921 6.01111C62.2319 7.15091 62.2319 8.99913 61.0921 10.1389C59.9523 11.2787 58.104 11.2787 56.9642 10.1389C55.8244 8.99913 55.8244 7.15091 56.9642 6.01111Z" fill="#DF6580"/>
    <path d="M69.4618 1.65325C70.7651 0.34996 72.8767 0.34996 74.18 1.65325C75.4833 2.95653 75.4833 5.06813 74.18 6.37142C72.8767 7.6747 70.7651 7.6747 69.4618 6.37142C68.1586 5.06813 68.1586 2.95653 69.4618 1.65325Z" fill="#CB1B3C"/>
    <path d="M13.1654 24.1771C12.6478 24.6948 11.8122 24.6948 11.2945 24.1771C10.7768 23.6595 10.7768 22.8239 11.2945 22.3062C11.8122 21.7885 12.6478 21.7885 13.1654 22.3062C13.6831 22.8239 13.6831 23.6595 13.1654 24.1771Z" fill="#27B462"/>
    <path d="M18.7617 16.9643C19.3338 16.3921 20.2557 16.3921 20.8278 16.9643C21.3955 17.5365 21.3955 18.4583 20.8278 19.0259C20.2557 19.5981 19.3338 19.5981 18.7617 19.0259C18.194 18.4538 18.194 17.5319 18.7617 16.9643Z" fill="#00B2D4"/>
    <path d="M27.7527 15.1784C28.402 14.5291 29.4601 14.5291 30.1095 15.1784C30.7588 15.8278 30.7588 16.8859 30.1095 17.5353C29.4601 18.1846 28.402 18.1846 27.7527 17.5353C27.1033 16.8859 27.1033 15.8278 27.7527 15.1784Z" fill="#0098D2"/>
    <path d="M36.8296 17.4624C37.5607 16.7313 38.7505 16.7313 39.4816 17.4624C40.2127 18.1935 40.2127 19.3833 39.4816 20.1144C38.7505 20.8455 37.5607 20.8455 36.8296 20.1144C36.0985 19.3833 36.0985 18.1935 36.8296 17.4624Z" fill="#4189C5"/>
  </g>
  <defs>
    <clipPath id="clip0_11728_50431">
      <rect width="82.6429" height="60.319" fill="white" transform="translate(0 0.675781)"/>
    </clipPath>
  </defs>
</svg>