<svg width="83" height="62" viewBox="0 0 83 62" fill="none" xmlns="http://www.w3.org/2000/svg">
<g clip-path="url(#clip0_11728_50405)">
<path d="M46.8735 30.2617H43.5234V44.4913H46.8735V30.2617Z" fill="white"/>
<path d="M53.7529 36.5203C53.2242 36.5203 52.7958 36.0964 52.7958 35.5768V32.0035C52.8322 30.6726 54.8104 30.668 54.8468 32.0035V34.7382H56.5879V32.8558C56.4375 29.246 51.2051 29.246 51.0547 32.8558V36.1876C51.0592 36.42 51.1367 37.1128 51.8067 37.4273C51.4649 37.5914 51.0547 37.9378 51.0547 38.6807V41.9761C51.2051 45.5859 56.4375 45.5859 56.5879 41.9761V38.2432H57.7547V36.5203H53.7529ZM53.8259 43.8402C53.2607 43.8402 52.8003 43.3844 52.8003 42.8284V39.1867C52.8003 38.6671 53.2288 38.2432 53.7575 38.2432H54.8514V42.8329C54.8514 43.389 54.391 43.8448 53.8259 43.8448" fill="white"/>
<path d="M3.49318 44.491C3.48863 38.1875 3.08298 29.6233 6.0866 24.6279C6.44667 23.9898 6.9845 24.0035 7.34457 24.6461C9.85594 29.0399 10.0519 36.2367 9.91064 44.491H13.3974V38.4974C13.3974 30.2432 10.0064 25.9086 8.04192 24.0901C7.29899 23.4018 6.16864 23.3882 5.42115 24.0718C-0.267043 29.3726 -0.0118041 37.4537 0.00642733 44.491H3.49318Z" fill="white"/>
<path d="M21.0969 44.4918V34.6514C21.0969 33.006 22.3549 31.6705 23.9 31.6705C25.4451 31.6705 26.6985 33.0014 26.6985 34.6468V44.4963H30.2172V34.6559C30.2172 33.0105 31.4751 31.6751 33.0202 31.6751C34.5653 31.6751 35.8188 33.006 35.8188 34.6514V44.5009H39.3374V36.8756C39.3693 30.9413 32.4232 27.8283 28.4578 32.2357C24.4879 27.8283 17.5463 30.9458 17.5782 36.8756V44.5009H21.0969V44.4918Z" fill="white"/>
<path d="M64.7017 44.491V28.028C64.7017 26.3963 65.9597 25.07 67.5048 25.07C69.0499 25.07 70.3033 26.3918 70.3033 28.0189V44.4864H73.8265V28.0235C73.8265 26.3918 75.0845 25.0654 76.6296 25.0654C78.1747 25.0654 79.4281 26.3872 79.4281 28.0144V44.4819H82.9468V30.2158C82.9787 24.3316 76.0371 21.2459 72.0672 25.6124C68.0973 21.2414 61.1557 24.3316 61.1876 30.2158V44.4819H64.7063L64.7017 44.491Z" fill="white"/>
<path d="M7.58425 34.9202C7.092 35.4124 6.29893 35.4124 5.80669 34.9202C5.31444 34.4279 5.31444 33.6349 5.80669 33.1426C6.29893 32.6504 7.092 32.6504 7.58425 33.1426C8.0765 33.6349 8.0765 34.4279 7.58425 34.9202Z" fill="#85B658"/>
<path d="M43.6978 24.1822C44.5137 23.3663 45.84 23.3663 46.6559 24.1822C47.4717 24.9981 47.4717 26.3244 46.6559 27.1403C45.84 27.9561 44.5137 27.9561 43.6978 27.1403C42.882 26.3244 42.882 24.9981 43.6978 24.1822Z" fill="#3F469D"/>
<path d="M48.1568 14.2467C49.1368 13.2667 50.7275 13.2667 51.7074 14.2467C52.6873 15.2266 52.6873 16.8173 51.7074 17.7972C50.7275 18.7772 49.1368 18.7772 48.1568 17.7972C47.1769 16.8173 47.1769 15.2266 48.1568 14.2467Z" fill="#AB7BA5"/>
<path d="M57.1705 6.02989C58.3145 4.88587 60.1696 4.88587 61.3136 6.02989C62.4576 7.17391 62.4576 9.02896 61.3136 10.173C60.1696 11.317 58.3145 11.317 57.1705 10.173C56.0265 9.02896 56.0265 7.17391 57.1705 6.02989Z" fill="#DF6580"/>
<path d="M69.7155 1.65686C71.0236 0.348755 73.143 0.348755 74.4511 1.65686C75.7592 2.96496 75.7592 5.08436 74.4511 6.39247C73.143 7.70057 71.0236 7.70057 69.7155 6.39247C68.4073 5.08436 68.4073 2.96496 69.7155 1.65686Z" fill="#CB1B3C"/>
<path d="M13.2207 24.2636C12.7011 24.7832 11.8624 24.7832 11.3428 24.2636C10.8232 23.744 10.8232 22.9054 11.3428 22.3858C11.8624 21.8662 12.7011 21.8662 13.2207 22.3858C13.7403 22.9054 13.7403 23.744 13.2207 24.2636Z" fill="#27B462"/>
<path d="M18.8335 17.0245C19.4078 16.4502 20.3331 16.4502 20.9074 17.0245C21.4771 17.5988 21.4771 18.524 20.9074 19.0937C20.3331 19.668 19.4078 19.668 18.8335 19.0937C18.2638 18.5194 18.2638 17.5942 18.8335 17.0245Z" fill="#00B2D4"/>
<path d="M27.8482 15.2349C28.5 14.5832 29.562 14.5832 30.2137 15.2349C30.8655 15.8867 30.8655 16.9487 30.2137 17.6004C29.562 18.2522 28.5 18.2522 27.8482 17.6004C27.1964 16.9487 27.1964 15.8867 27.8482 15.2349Z" fill="#0098D2"/>
<path d="M36.9644 17.5269C37.6982 16.7931 38.8924 16.7931 39.6262 17.5269C40.36 18.2607 40.36 19.4549 39.6262 20.1887C38.8924 20.9225 37.6982 20.9225 36.9644 20.1887C36.2306 19.4549 36.2306 18.2607 36.9644 17.5269Z" fill="#4189C5"/>
<path d="M54.9628 53.7038C55.0585 53.7949 55.1041 53.9135 55.1041 54.0593C55.1041 54.2052 55.0585 54.3237 54.9628 54.4103C54.8671 54.4969 54.744 54.5424 54.5936 54.5424H53.2764V58.9955C53.2764 59.1413 53.2217 59.2644 53.1169 59.3646C53.012 59.4649 52.8799 59.5151 52.7249 59.5151C52.5699 59.5151 52.4378 59.4649 52.3375 59.3646C52.2372 59.2644 52.1871 59.1413 52.1871 58.9955V54.5424H50.8699C50.7194 54.5424 50.5964 54.4969 50.5007 54.4057C50.405 54.3145 50.3594 54.196 50.3594 54.0502C50.3594 53.9043 50.4095 53.7904 50.5052 53.6992C50.6009 53.6081 50.724 53.5625 50.8699 53.5625H54.5936C54.744 53.5625 54.8671 53.6081 54.9628 53.6992V53.7038Z" fill="white"/>
<path d="M58.6546 55.028C58.7686 55.1237 58.8278 55.2377 58.8278 55.3698C58.8278 55.5476 58.7823 55.6752 58.6957 55.7664C58.6045 55.853 58.4997 55.8986 58.3766 55.8986C58.2946 55.8986 58.1988 55.8803 58.0895 55.8393C58.0712 55.8348 58.0348 55.8211 57.9755 55.8074C57.9163 55.7892 57.8525 55.7801 57.7886 55.7801C57.6428 55.7801 57.5061 55.8256 57.3693 55.9168C57.2371 56.0079 57.1232 56.1447 57.0366 56.327C56.95 56.5093 56.909 56.7326 56.909 56.9879V59.0025C56.909 59.1483 56.8634 59.2714 56.7677 59.3716C56.672 59.4719 56.5535 59.5221 56.4076 59.5221C56.2618 59.5221 56.1433 59.4719 56.0475 59.3716C55.9518 59.2714 55.9062 59.1483 55.9062 59.0025V55.4929C55.9062 55.3471 55.9518 55.224 56.0475 55.1237C56.1433 55.0235 56.2618 54.9733 56.4076 54.9733C56.5535 54.9733 56.672 55.0235 56.7677 55.1237C56.8634 55.224 56.909 55.3471 56.909 55.4929V55.6023C57.0366 55.3699 57.2235 55.1921 57.4605 55.069C57.702 54.946 57.9573 54.8867 58.2308 54.8867C58.3994 54.8867 58.5407 54.9369 58.6546 55.0326V55.028Z" fill="white"/>
<path d="M63.5246 55.0293C63.6203 55.125 63.6659 55.2481 63.6659 55.4031V58.9992C63.6659 59.1451 63.6203 59.2681 63.5246 59.3684C63.4289 59.4687 63.3104 59.5188 63.1645 59.5188C63.0187 59.5188 62.9002 59.4687 62.809 59.3729C62.7179 59.2772 62.6677 59.1542 62.6632 59.0083C62.5219 59.1724 62.335 59.3137 62.098 59.4276C61.861 59.5416 61.6103 59.6008 61.346 59.6008C60.9585 59.6008 60.6121 59.5006 60.2976 59.3C59.9832 59.0995 59.737 58.8214 59.5547 58.4614C59.3724 58.1059 59.2812 57.7002 59.2812 57.2444C59.2812 56.7886 59.3724 56.383 59.5502 56.0229C59.7279 55.6629 59.974 55.3848 60.284 55.1797C60.5939 54.9746 60.9357 54.8789 61.3095 54.8789C61.5784 54.8789 61.8291 54.929 62.0615 55.0293C62.2986 55.1296 62.4945 55.2527 62.6586 55.4076V55.3985C62.6586 55.2526 62.7042 55.1296 62.7999 55.0293C62.8956 54.929 63.0141 54.8789 63.16 54.8789C63.3058 54.8789 63.4243 54.929 63.5201 55.0248L63.5246 55.0293ZM62.3624 58.2608C62.5903 57.9919 62.7042 57.6546 62.7042 57.2444C62.7042 56.8342 62.5903 56.4969 62.3624 56.2235C62.1345 55.95 61.8382 55.8133 61.4736 55.8133C61.1089 55.8133 60.8218 55.95 60.5939 56.2235C60.366 56.4969 60.2521 56.8342 60.2521 57.2444C60.2521 57.6546 60.366 57.9919 60.5894 58.2608C60.8172 58.5297 61.1089 58.6665 61.4736 58.6665C61.8382 58.6665 62.1345 58.5297 62.3624 58.2608Z" fill="white"/>
<path d="M64.7904 54.323C64.7129 54.2592 64.6719 54.1498 64.6719 53.9903V53.8308C64.6719 53.6713 64.7129 53.5619 64.7995 53.4981C64.8815 53.4342 65.0183 53.4023 65.2006 53.4023C65.3966 53.4023 65.5333 53.4342 65.6108 53.4981C65.6883 53.5619 65.7293 53.6713 65.7293 53.8308V53.9903C65.7293 54.1544 65.6883 54.2683 65.6062 54.3276C65.5242 54.3868 65.3875 54.4187 65.1915 54.4187C64.9955 54.4187 64.8679 54.3868 64.7904 54.323ZM65.5607 59.3686C65.4649 59.4688 65.3464 59.519 65.2006 59.519C65.0547 59.519 64.9362 59.4688 64.8405 59.3686C64.7448 59.2683 64.6992 59.1452 64.6992 58.9994V55.4898C64.6992 55.344 64.7448 55.2209 64.8405 55.1207C64.9362 55.0204 65.0547 54.9702 65.2006 54.9702C65.3464 54.9702 65.4649 55.0204 65.5607 55.1207C65.6564 55.2209 65.7019 55.344 65.7019 55.4898V58.9994C65.7019 59.1452 65.6564 59.2683 65.5607 59.3686Z" fill="white"/>
<path d="M70.3188 55.3978C70.5376 55.7397 70.647 56.2137 70.647 56.8199V58.9986C70.647 59.1444 70.6014 59.2675 70.5057 59.3677C70.4099 59.468 70.2914 59.5181 70.1456 59.5181C69.9997 59.5181 69.8812 59.468 69.7855 59.3677C69.6898 59.2675 69.6442 59.1444 69.6442 58.9986V56.8199C69.6442 56.51 69.5804 56.2638 69.4528 56.0861C69.3252 55.9083 69.1018 55.8172 68.7919 55.8172C68.482 55.8172 68.2131 55.9129 68.0308 56.0998C67.8484 56.2912 67.7527 56.5282 67.7527 56.8199V58.9986C67.7527 59.1444 67.7071 59.2675 67.6114 59.3677C67.5157 59.468 67.3972 59.5181 67.2514 59.5181C67.1055 59.5181 66.987 59.468 66.8913 59.3677C66.7956 59.2675 66.75 59.1444 66.75 58.9986V55.489C66.75 55.3432 66.7956 55.2201 66.8913 55.1198C66.987 55.0195 67.1055 54.9694 67.2514 54.9694C67.3972 54.9694 67.5157 55.0195 67.6114 55.1198C67.7071 55.2201 67.7527 55.3432 67.7527 55.489V55.6349C67.9031 55.4298 68.0991 55.2566 68.3452 55.1061C68.5914 54.9557 68.8557 54.8828 69.1474 54.8828C69.7172 54.8828 70.1091 55.056 70.3279 55.3978H70.3188Z" fill="white"/>
<path d="M71.7669 54.323C71.6895 54.2592 71.6484 54.1498 71.6484 53.9903V53.8308C71.6484 53.6713 71.6895 53.5619 71.7761 53.4981C71.8581 53.4342 71.9948 53.4023 72.1771 53.4023C72.3731 53.4023 72.5099 53.4342 72.5874 53.4981C72.6648 53.5619 72.7059 53.6713 72.7059 53.8308V53.9903C72.7059 54.1544 72.6648 54.2683 72.5828 54.3276C72.5008 54.3868 72.364 54.4187 72.168 54.4187C71.972 54.4187 71.8444 54.3868 71.7669 54.323ZM72.5372 59.3686C72.4415 59.4688 72.323 59.519 72.1771 59.519C72.0313 59.519 71.9128 59.4688 71.8171 59.3686C71.7214 59.2683 71.6758 59.1452 71.6758 58.9994V55.4898C71.6758 55.344 71.7214 55.2209 71.8171 55.1207C71.9128 55.0204 72.0313 54.9702 72.1771 54.9702C72.323 54.9702 72.4415 55.0204 72.5372 55.1207C72.6329 55.2209 72.6785 55.344 72.6785 55.4898V58.9994C72.6785 59.1452 72.6329 59.2683 72.5372 59.3686Z" fill="white"/>
<path d="M77.2875 55.3978C77.5063 55.7397 77.6157 56.2137 77.6157 56.8199V58.9986C77.6157 59.1444 77.5701 59.2675 77.4744 59.3677C77.3787 59.468 77.2602 59.5181 77.1143 59.5181C76.9685 59.5181 76.85 59.468 76.7543 59.3677C76.6586 59.2675 76.613 59.1444 76.613 58.9986V56.8199C76.613 56.51 76.5492 56.2638 76.4216 56.0861C76.2939 55.9083 76.0706 55.8172 75.7607 55.8172C75.4507 55.8172 75.1818 55.9129 74.9995 56.0998C74.8172 56.2912 74.7215 56.5282 74.7215 56.8199V58.9986C74.7215 59.1444 74.6759 59.2675 74.5802 59.3677C74.4845 59.468 74.366 59.5181 74.2201 59.5181C74.0743 59.5181 73.9558 59.468 73.86 59.3677C73.7643 59.2675 73.7188 59.1444 73.7188 58.9986V55.489C73.7188 55.3432 73.7643 55.2201 73.86 55.1198C73.9558 55.0195 74.0743 54.9694 74.2201 54.9694C74.366 54.9694 74.4845 55.0195 74.5802 55.1198C74.6759 55.2201 74.7215 55.3432 74.7215 55.489V55.6349C74.8719 55.4298 75.0679 55.2566 75.314 55.1061C75.5601 54.9557 75.8245 54.8828 76.1162 54.8828C76.6859 54.8828 77.0779 55.056 77.2967 55.3978H77.2875Z" fill="white"/>
<path d="M82.7818 55.0287C82.8775 55.1244 82.9231 55.2474 82.9231 55.4024V59.1854C82.9231 59.8782 82.7134 60.3887 82.2895 60.7214C81.8656 61.0541 81.3324 61.2182 80.6852 61.2182C80.5165 61.2182 80.2886 61.1909 79.9924 61.1316C79.7007 61.0769 79.491 61.0177 79.3679 60.963C79.0945 60.8445 78.9577 60.6804 78.9577 60.4707C78.9577 60.4297 78.9669 60.3841 78.9851 60.334C79.017 60.2109 79.0762 60.1152 79.1583 60.0514C79.2403 59.9876 79.3269 59.9557 79.4226 59.9557C79.4773 59.9557 79.532 59.9648 79.5822 59.983C79.605 59.9876 79.7417 60.0423 79.9969 60.1426C80.2522 60.2428 80.4801 60.293 80.6897 60.293C81.1045 60.293 81.4099 60.2109 81.615 60.0423C81.8201 59.8737 81.9203 59.6367 81.9203 59.3313V58.9211C81.7973 59.0988 81.6104 59.2538 81.3643 59.3951C81.1136 59.5364 80.8493 59.6093 80.5621 59.6093C80.1701 59.6093 79.8146 59.509 79.4956 59.3085C79.172 59.1079 78.9213 58.8299 78.739 58.4698C78.5567 58.1143 78.4609 57.7087 78.4609 57.2529C78.4609 56.7971 78.5521 56.3915 78.7344 56.0314C78.9167 55.6713 79.1628 55.3933 79.4819 55.1882C79.8009 54.9831 80.1473 54.8874 80.5348 54.8874C80.8219 54.8874 81.0863 54.9466 81.3324 55.0651C81.5785 55.1836 81.7745 55.3295 81.9295 55.4981V55.4024C81.9295 55.2566 81.975 55.1335 82.0708 55.0332C82.1665 54.9329 82.285 54.8828 82.4308 54.8828C82.5767 54.8828 82.6952 54.9329 82.7909 55.0287H82.7818ZM81.6059 58.2602C81.8429 57.9913 81.9614 57.654 81.9614 57.2438C81.9614 56.8336 81.8429 56.4963 81.6059 56.2228C81.3688 55.9494 81.0635 55.8126 80.6897 55.8126C80.316 55.8126 80.0106 55.9494 79.7782 56.2228C79.5457 56.4963 79.4272 56.8336 79.4272 57.2438C79.4272 57.654 79.5457 57.9913 79.7782 58.2602C80.0152 58.5291 80.316 58.6658 80.6897 58.6658C81.0635 58.6658 81.3688 58.5291 81.6059 58.2602Z" fill="white"/>
</g>
<defs>
<clipPath id="clip0_11728_50405">
<rect width="82.9483" height="60.5419" fill="white" transform="translate(0 0.675781)"/>
</clipPath>
</defs>
</svg>
