<svg width="91" height="67" viewBox="0 0 91 67" fill="none" xmlns="http://www.w3.org/2000/svg">
<g clip-path="url(#clip0_11728_50465)">
<path d="M51.4252 32.5117H47.75V48.1226H51.4252V32.5117Z" fill="#3D408A"/>
<path d="M58.968 39.3771C58.3879 39.3771 57.9179 38.9121 57.9179 38.342V34.4218C57.9579 32.9618 60.128 32.9568 60.168 34.4218V37.422H62.0781V35.3569C61.9131 31.3967 56.1728 31.3967 56.0078 35.3569V39.0121C56.0128 39.2671 56.0978 40.0271 56.8329 40.3722C56.4578 40.5522 56.0078 40.9322 56.0078 41.7472V45.3624C56.1728 49.3227 61.9131 49.3227 62.0781 45.3624V41.2672H63.3582V39.3771H58.968ZM59.048 47.4075C58.4279 47.4075 57.9229 46.9075 57.9229 46.2975V42.3023C57.9229 41.7322 58.3929 41.2672 58.973 41.2672H60.173V46.3025C60.173 46.9125 59.668 47.4125 59.048 47.4125" fill="#3D408A"/>
<path d="M3.83226 48.1237C3.82726 41.2083 3.38224 31.8128 6.67742 26.3325C7.07244 25.6324 7.66247 25.6474 8.05749 26.3525C10.8126 31.1727 11.0277 39.0682 10.8726 48.1237H14.6979V41.5483C14.6979 32.4928 10.9777 27.7376 8.82254 25.7425C8.00749 24.9874 6.76742 24.9724 5.94738 25.7225C-0.292965 31.5378 -0.0129499 40.4033 0.00705122 48.1237H3.83226Z" fill="#3D408A"/>
<path d="M23.1416 48.1212V37.3256C23.1416 35.5205 24.5217 34.0554 26.2168 34.0554C27.9118 34.0554 29.2869 35.5155 29.2869 37.3206V48.1262H33.1471V37.3306C33.1471 35.5255 34.5272 34.0604 36.2223 34.0604C37.9174 34.0604 39.2925 35.5205 39.2925 37.3256V48.1312H43.1527V39.7657C43.1877 33.2554 35.5673 29.8402 31.217 34.6755C26.8618 29.8402 19.2464 33.2604 19.2814 39.7657V48.1312H23.1416V48.1212Z" fill="#3D408A"/>
<path d="M70.9803 48.1209V30.0599C70.9803 28.2698 72.3604 26.8147 74.0555 26.8147C75.7506 26.8147 77.1257 28.2648 77.1257 30.0499V48.1159H80.9909V30.0549C80.9909 28.2648 82.371 26.8097 84.0661 26.8097C85.7611 26.8097 87.1362 28.2598 87.1362 30.0449V48.1109H90.9964V32.46C91.0314 26.0047 83.416 22.6195 79.0608 27.4098C74.7055 22.6145 67.0901 26.0047 67.1251 32.46V48.1109H70.9853L70.9803 48.1209Z" fill="#3D408A"/>
<path d="M8.32388 37.6208C7.78385 38.1608 6.9138 38.1608 6.37377 37.6208C5.83374 37.0807 5.83374 36.2107 6.37377 35.6706C6.9138 35.1306 7.78385 35.1306 8.32388 35.6706C8.86391 36.2107 8.86391 37.0807 8.32388 37.6208Z" fill="#85B658"/>
<path d="M47.9447 25.8393C48.8398 24.9442 50.2949 24.9442 51.1899 25.8393C52.085 26.7343 52.085 28.1894 51.1899 29.0844C50.2949 29.9795 48.8398 29.9795 47.9447 29.0844C47.0497 28.1894 47.0497 26.7343 47.9447 25.8393Z" fill="#3F469D"/>
<path d="M52.8219 14.9391C53.897 13.864 55.6421 13.864 56.7171 14.9391C57.7922 16.0142 57.7922 17.7593 56.7171 18.8343C55.6421 19.9094 53.897 19.9094 52.8219 18.8343C51.7469 17.7593 51.7469 16.0142 52.8219 14.9391Z" fill="#AB7BA5"/>
<path d="M62.7226 5.92958C63.9776 4.67451 66.0127 4.67451 67.2678 5.92958C68.5229 7.18465 68.5229 9.21976 67.2678 10.4748C66.0127 11.7299 63.9776 11.7299 62.7226 10.4748C61.4675 9.21976 61.4675 7.18465 62.7226 5.92958Z" fill="#DF6580"/>
<path d="M76.4826 1.131C77.9176 -0.304082 80.2428 -0.304082 81.6778 1.131C83.1129 2.56608 83.1129 4.8912 81.6778 6.32628C80.2428 7.76136 77.9176 7.76136 76.4826 6.32628C75.0475 4.8912 75.0475 2.56608 76.4826 1.131Z" fill="#CB1B3C"/>
<path d="M14.5033 25.929C13.9332 26.4991 13.0132 26.4991 12.4431 25.929C11.8731 25.359 11.8731 24.439 12.4431 23.8689C13.0132 23.2989 13.9332 23.2989 14.5033 23.8689C15.0733 24.439 15.0733 25.359 14.5033 25.929Z" fill="#27B462"/>
<path d="M20.6563 17.9921C21.2863 17.362 22.3014 17.362 22.9314 17.9921C23.5564 18.6221 23.5564 19.6371 22.9314 20.2622C22.3014 20.8922 21.2863 20.8922 20.6563 20.2622C20.0312 19.6321 20.0312 18.6171 20.6563 17.9921Z" fill="#00B2D4"/>
<path d="M30.5519 16.0246C31.2669 15.3095 32.432 15.3095 33.147 16.0246C33.8621 16.7396 33.8621 17.9047 33.147 18.6197C32.432 19.3347 31.2669 19.3347 30.5519 18.6197C29.8369 17.9047 29.8369 16.7396 30.5519 16.0246Z" fill="#0098D2"/>
<path d="M40.5569 18.5413C41.362 17.7362 42.672 17.7362 43.4771 18.5413C44.2821 19.3463 44.2821 20.6564 43.4771 21.4614C42.672 22.2665 41.362 22.2665 40.5569 21.4614C39.7519 20.6564 39.7519 19.3463 40.5569 18.5413Z" fill="#4189C5"/>
<path d="M60.3003 58.2292C60.4053 58.3292 60.4553 58.4592 60.4553 58.6193C60.4553 58.7793 60.4053 58.9093 60.3003 59.0043C60.1953 59.0993 60.0603 59.1493 59.8953 59.1493H58.4502V64.0345C58.4502 64.1946 58.3902 64.3296 58.2752 64.4396C58.1602 64.5496 58.0151 64.6046 57.8451 64.6046C57.6751 64.6046 57.5301 64.5496 57.4201 64.4396C57.3101 64.3296 57.2551 64.1946 57.2551 64.0345V59.1493H55.81C55.645 59.1493 55.51 59.0993 55.405 58.9993C55.3 58.8993 55.25 58.7693 55.25 58.6092C55.25 58.4492 55.305 58.3242 55.41 58.2242C55.515 58.1242 55.65 58.0742 55.81 58.0742H59.8953C60.0603 58.0742 60.1953 58.1242 60.3003 58.2242V58.2292Z" fill="#3D408A"/>
<path d="M64.3433 59.6824C64.4683 59.7874 64.5333 59.9124 64.5333 60.0574C64.5333 60.2524 64.4833 60.3924 64.3883 60.4924C64.2883 60.5874 64.1733 60.6374 64.0383 60.6374C63.9483 60.6374 63.8433 60.6174 63.7233 60.5724C63.7033 60.5674 63.6633 60.5524 63.5982 60.5374C63.5332 60.5174 63.4632 60.5074 63.3932 60.5074C63.2332 60.5074 63.0832 60.5574 62.9332 60.6574C62.7882 60.7574 62.6632 60.9074 62.5682 61.1074C62.4732 61.3074 62.4282 61.5525 62.4282 61.8325V64.0426C62.4282 64.2026 62.3782 64.3376 62.2732 64.4476C62.1682 64.5576 62.0382 64.6126 61.8782 64.6126C61.7181 64.6126 61.5881 64.5576 61.4831 64.4476C61.3781 64.3376 61.3281 64.2026 61.3281 64.0426V60.1924C61.3281 60.0324 61.3781 59.8974 61.4831 59.7874C61.5881 59.6774 61.7181 59.6223 61.8782 59.6223C62.0382 59.6223 62.1682 59.6774 62.2732 59.7874C62.3782 59.8974 62.4282 60.0324 62.4282 60.1924V60.3124C62.5682 60.0574 62.7732 59.8624 63.0332 59.7274C63.2982 59.5923 63.5782 59.5273 63.8783 59.5273C64.0633 59.5273 64.2183 59.5823 64.3433 59.6874V59.6824Z" fill="#3D408A"/>
<path d="M69.6943 59.6845C69.7993 59.7895 69.8493 59.9246 69.8493 60.0946V64.0398C69.8493 64.1998 69.7993 64.3348 69.6943 64.4448C69.5893 64.5548 69.4593 64.6098 69.2993 64.6098C69.1393 64.6098 69.0093 64.5548 68.9093 64.4498C68.8093 64.3448 68.7543 64.2098 68.7493 64.0498C68.5943 64.2298 68.3893 64.3848 68.1292 64.5098C67.8692 64.6348 67.5942 64.6998 67.3042 64.6998C66.8792 64.6998 66.4991 64.5898 66.1541 64.3698C65.8091 64.1498 65.5391 63.8448 65.3391 63.4497C65.1391 63.0597 65.0391 62.6147 65.0391 62.1147C65.0391 61.6146 65.1391 61.1696 65.3341 60.7746C65.5291 60.3796 65.7991 60.0746 66.1391 59.8496C66.4791 59.6245 66.8542 59.5195 67.2642 59.5195C67.5592 59.5195 67.8342 59.5745 68.0892 59.6845C68.3492 59.7945 68.5643 59.9296 68.7443 60.0996V60.0896C68.7443 59.9296 68.7943 59.7945 68.8993 59.6845C69.0043 59.5745 69.1343 59.5195 69.2943 59.5195C69.4543 59.5195 69.5843 59.5745 69.6893 59.6795L69.6943 59.6845ZM68.4193 63.2297C68.6693 62.9347 68.7943 62.5647 68.7943 62.1147C68.7943 61.6647 68.6693 61.2946 68.4193 60.9946C68.1692 60.6946 67.8442 60.5446 67.4442 60.5446C67.0442 60.5446 66.7292 60.6946 66.4791 60.9946C66.2291 61.2946 66.1041 61.6647 66.1041 62.1147C66.1041 62.5647 66.2291 62.9347 66.4741 63.2297C66.7242 63.5247 67.0442 63.6748 67.4442 63.6748C67.8442 63.6748 68.1692 63.5247 68.4193 63.2297Z" fill="#3D408A"/>
<path d="M71.0831 58.9085C70.9981 58.8385 70.9531 58.7185 70.9531 58.5435V58.3685C70.9531 58.1935 70.9981 58.0734 71.0931 58.0034C71.1831 57.9334 71.3331 57.8984 71.5332 57.8984C71.7482 57.8984 71.8982 57.9334 71.9832 58.0034C72.0682 58.0734 72.1132 58.1935 72.1132 58.3685V58.5435C72.1132 58.7235 72.0682 58.8485 71.9782 58.9135C71.8882 58.9785 71.7382 59.0135 71.5232 59.0135C71.3081 59.0135 71.1681 58.9785 71.0831 58.9085ZM71.9282 64.4438C71.8232 64.5538 71.6932 64.6088 71.5332 64.6088C71.3731 64.6088 71.2431 64.5538 71.1381 64.4438C71.0331 64.3338 70.9831 64.1988 70.9831 64.0388V60.1886C70.9831 60.0286 71.0331 59.8935 71.1381 59.7835C71.2431 59.6735 71.3731 59.6185 71.5332 59.6185C71.6932 59.6185 71.8232 59.6735 71.9282 59.7835C72.0332 59.8935 72.0832 60.0286 72.0832 60.1886V64.0388C72.0832 64.1988 72.0332 64.3338 71.9282 64.4438Z" fill="#3D408A"/>
<path d="M77.1496 60.0885C77.3896 60.4635 77.5096 60.9835 77.5096 61.6486V64.0387C77.5096 64.1987 77.4596 64.3337 77.3546 64.4437C77.2496 64.5537 77.1196 64.6087 76.9596 64.6087C76.7996 64.6087 76.6696 64.5537 76.5646 64.4437C76.4596 64.3337 76.4095 64.1987 76.4095 64.0387V61.6486C76.4095 61.3085 76.3395 61.0385 76.1995 60.8435C76.0595 60.6485 75.8145 60.5485 75.4745 60.5485C75.1345 60.5485 74.8395 60.6535 74.6395 60.8585C74.4394 61.0685 74.3344 61.3285 74.3344 61.6486V64.0387C74.3344 64.1987 74.2844 64.3337 74.1794 64.4437C74.0744 64.5537 73.9444 64.6087 73.7844 64.6087C73.6244 64.6087 73.4944 64.5537 73.3894 64.4437C73.2844 64.3337 73.2344 64.1987 73.2344 64.0387V60.1885C73.2344 60.0285 73.2844 59.8935 73.3894 59.7835C73.4944 59.6734 73.6244 59.6184 73.7844 59.6184C73.9444 59.6184 74.0744 59.6734 74.1794 59.7835C74.2844 59.8935 74.3344 60.0285 74.3344 60.1885V60.3485C74.4994 60.1235 74.7145 59.9335 74.9845 59.7684C75.2545 59.6034 75.5445 59.5234 75.8645 59.5234C76.4896 59.5234 76.9196 59.7134 77.1596 60.0885H77.1496Z" fill="#3D408A"/>
<path d="M78.7394 58.9085C78.6544 58.8385 78.6094 58.7185 78.6094 58.5435V58.3685C78.6094 58.1935 78.6544 58.0734 78.7494 58.0034C78.8394 57.9334 78.9894 57.8984 79.1894 57.8984C79.4044 57.8984 79.5544 57.9334 79.6394 58.0034C79.7244 58.0734 79.7694 58.1935 79.7694 58.3685V58.5435C79.7694 58.7235 79.7244 58.8485 79.6344 58.9135C79.5444 58.9785 79.3944 59.0135 79.1794 59.0135C78.9644 59.0135 78.8244 58.9785 78.7394 58.9085ZM79.5844 64.4438C79.4794 64.5538 79.3494 64.6088 79.1894 64.6088C79.0294 64.6088 78.8994 64.5538 78.7944 64.4438C78.6894 64.3338 78.6394 64.1988 78.6394 64.0388V60.1886C78.6394 60.0286 78.6894 59.8935 78.7944 59.7835C78.8994 59.6735 79.0294 59.6185 79.1894 59.6185C79.3494 59.6185 79.4794 59.6735 79.5844 59.7835C79.6894 59.8935 79.7394 60.0286 79.7394 60.1886V64.0388C79.7394 64.1988 79.6894 64.3338 79.5844 64.4438Z" fill="#3D408A"/>
<path d="M84.7902 60.0885C85.0302 60.4635 85.1502 60.9835 85.1502 61.6486V64.0387C85.1502 64.1987 85.1002 64.3337 84.9952 64.4437C84.8902 64.5537 84.7602 64.6087 84.6002 64.6087C84.4402 64.6087 84.3102 64.5537 84.2052 64.4437C84.1002 64.3337 84.0502 64.1987 84.0502 64.0387V61.6486C84.0502 61.3085 83.9802 61.0385 83.8402 60.8435C83.7002 60.6485 83.4551 60.5485 83.1151 60.5485C82.7751 60.5485 82.4801 60.6535 82.2801 60.8585C82.0801 61.0685 81.9751 61.3285 81.9751 61.6486V64.0387C81.9751 64.1987 81.9251 64.3337 81.8201 64.4437C81.715 64.5537 81.585 64.6087 81.425 64.6087C81.265 64.6087 81.135 64.5537 81.03 64.4437C80.925 64.3337 80.875 64.1987 80.875 64.0387V60.1885C80.875 60.0285 80.925 59.8935 81.03 59.7835C81.135 59.6734 81.265 59.6184 81.425 59.6184C81.585 59.6184 81.715 59.6734 81.8201 59.7835C81.9251 59.8935 81.9751 60.0285 81.9751 60.1885V60.3485C82.1401 60.1235 82.3551 59.9335 82.6251 59.7684C82.8951 59.6034 83.1851 59.5234 83.5051 59.5234C84.1302 59.5234 84.5602 59.7134 84.8002 60.0885H84.7902Z" fill="#3D408A"/>
<path d="M90.8184 59.6834C90.9234 59.7885 90.9734 59.9235 90.9734 60.0935V64.2437C90.9734 65.0037 90.7434 65.5638 90.2784 65.9288C89.8133 66.2938 89.2283 66.4738 88.5183 66.4738C88.3332 66.4738 88.0832 66.4438 87.7582 66.3788C87.4382 66.3188 87.2082 66.2538 87.0732 66.1938C86.7732 66.0638 86.6232 65.8838 86.6232 65.6538C86.6232 65.6088 86.6332 65.5588 86.6532 65.5038C86.6882 65.3688 86.7532 65.2638 86.8432 65.1938C86.9332 65.1237 87.0282 65.0887 87.1332 65.0887C87.1932 65.0887 87.2532 65.0987 87.3082 65.1187C87.3332 65.1237 87.4832 65.1837 87.7632 65.2938C88.0432 65.4038 88.2932 65.4588 88.5233 65.4588C88.9783 65.4588 89.3133 65.3688 89.5383 65.1837C89.7633 64.9987 89.8733 64.7387 89.8733 64.4037V63.9537C89.7383 64.1487 89.5333 64.3187 89.2633 64.4737C88.9883 64.6287 88.6983 64.7087 88.3833 64.7087C87.9532 64.7087 87.5632 64.5987 87.2132 64.3787C86.8582 64.1587 86.5832 63.8537 86.3831 63.4587C86.1831 63.0686 86.0781 62.6236 86.0781 62.1236C86.0781 61.6236 86.1781 61.1785 86.3781 60.7835C86.5781 60.3885 86.8482 60.0835 87.1982 59.8585C87.5482 59.6334 87.9282 59.5284 88.3532 59.5284C88.6683 59.5284 88.9583 59.5934 89.2283 59.7234C89.4983 59.8535 89.7133 60.0135 89.8833 60.1985V60.0935C89.8833 59.9335 89.9333 59.7985 90.0383 59.6884C90.1433 59.5784 90.2734 59.5234 90.4334 59.5234C90.5934 59.5234 90.7234 59.5784 90.8284 59.6834H90.8184ZM89.5283 63.2286C89.7883 62.9336 89.9183 62.5636 89.9183 62.1136C89.9183 61.6636 89.7883 61.2935 89.5283 60.9935C89.2683 60.6935 88.9333 60.5435 88.5233 60.5435C88.1132 60.5435 87.7782 60.6935 87.5232 60.9935C87.2682 61.2935 87.1382 61.6636 87.1382 62.1136C87.1382 62.5636 87.2682 62.9336 87.5232 63.2286C87.7832 63.5237 88.1132 63.6737 88.5233 63.6737C88.9333 63.6737 89.2683 63.5237 89.5283 63.2286Z" fill="#3D408A"/>
</g>
<defs>
<clipPath id="clip0_11728_50465">
<rect width="91" height="66.4186" fill="white" transform="translate(0 0.0546875)"/>
</clipPath>
</defs>
</svg>
