<svg xmlns="http://www.w3.org/2000/svg" width="94" height="89" viewBox="0 0 94 89" fill="none">
  <circle cx="25.451" cy="31.4295" r="24.951" fill="#F4475C"/>
  <path d="M62.973 63.4829C62.2703 60.6627 59.716 58.568 56.6806 58.568H42.5287C35.6837 58.568 29.2443 61.2349 24.38 66.0992L24.3799 66.099L24.371 66.1084L21.9366 68.6721C21.9366 68.6721 21.9365 68.6721 21.9365 68.6721M62.973 63.4829L21.9365 68.6721M62.973 63.4829L68.9408 58.0479C70.2467 56.7445 72.0966 56.059 74.0044 56.219C75.9045 56.3723 77.6361 57.3564 78.7617 58.9193C80.6024 61.4738 80.1965 65.1354 77.8786 67.4482L77.3879 67.9378L77.3689 67.8999L64.6364 79.3345L64.6362 79.3347C59.9223 83.5628 53.8406 85.8945 47.5101 85.8945H23.1656C22.2288 85.8945 21.4688 85.1344 21.4688 84.1976C21.4688 83.2608 22.2288 82.5007 23.1656 82.5007H47.5101C53.0026 82.5007 58.2791 80.4805 62.3693 76.8095C62.3693 76.8094 62.3693 76.8094 62.3693 76.8094L75.5341 64.9912C76.6639 63.8529 76.8496 62.0722 76.0068 60.8997C75.4514 60.1301 74.6484 59.6725 73.7323 59.5977C72.8271 59.5363 71.9326 59.8547 71.2908 60.4945L71.2829 60.5024L71.2746 60.51L61.2804 69.6168C60.1071 70.7983 58.479 71.5344 56.6806 71.5344H44.7118C43.775 71.5344 43.0149 70.7743 43.0149 69.8375C43.0149 68.9007 43.775 68.1406 44.7118 68.1406H56.6806C57.4961 68.1406 58.2392 67.822 58.7929 67.3023C58.828 67.2627 58.868 67.2204 58.9127 67.1787L58.9216 67.1705L58.9217 67.1706L58.9474 67.1477C59.4585 66.5965 59.7712 65.8598 59.7712 65.05C59.7712 63.3465 58.3841 61.9593 56.6806 61.9593H42.5287C36.5905 61.9593 31.0081 64.27 26.8056 68.4678L24.4005 71.0016C24.4 71.0022 24.3994 71.0028 24.3989 71.0034C23.7535 71.6946 22.6742 71.7114 22.0003 71.069C21.3177 70.4254 21.2926 69.35 21.9365 68.6721M62.973 63.4829L21.9365 68.6721M37.8697 27.4527L37.8697 27.4528C41.711 27.7233 44.8231 28.5849 47.2377 30.1567C49.3188 31.5113 50.8535 33.3751 51.8909 35.7793C52.9291 33.3751 54.4638 31.5113 56.5449 30.1567C58.9595 28.5849 62.0716 27.7233 65.9141 27.4528L65.9252 27.452L65.9252 27.4521C67.0982 27.3956 68.2707 27.8017 69.1274 28.6584C69.975 29.5061 70.4201 30.6791 70.333 31.8746C69.9642 37.1047 68.4989 40.9832 65.646 43.5834C62.8819 46.1026 58.8963 47.3472 53.5876 47.5587V50.6827C53.5876 51.6195 52.8275 52.3795 51.8907 52.3795C50.9539 52.3795 50.1938 51.6195 50.1938 50.6827V47.5587C44.8851 47.3472 40.8994 46.1025 38.1354 43.5831C35.2824 40.9826 33.8171 37.1034 33.4484 31.872L37.8697 27.4527ZM37.8697 27.4527L37.8626 27.4524M37.8697 27.4527L37.8626 27.4524M37.8626 27.4524C36.6614 27.3849 35.5055 27.8042 34.6534 28.659C33.806 29.5091 33.3638 30.6794 33.4483 31.8718L37.8626 27.4524ZM66.9467 31.6296L66.9465 31.6317C66.6348 36.0766 65.4858 39.1093 63.3225 41.0781C61.2347 42.9781 58.1156 43.9671 53.6235 44.1624C53.8199 39.6704 54.8089 36.5518 56.709 34.4643C58.6778 32.3012 61.7105 31.1522 66.1567 30.8393L66.1804 30.8376L66.1914 30.8358L66.2053 30.8357C66.3944 30.8357 66.5819 30.912 66.7279 31.0579C66.8846 31.2146 66.9619 31.4252 66.9467 31.6296ZM36.8348 31.6316L36.8347 31.6294C36.8196 31.428 36.8964 31.2174 37.0535 31.0603C37.1959 30.9179 37.3833 30.8399 37.5696 30.8382L37.5776 30.8388L37.5787 30.8389C37.5853 30.8394 37.597 30.8404 37.6095 30.8412C37.6181 30.8417 37.6285 30.8423 37.6402 30.8426C42.078 31.1557 45.1067 32.3046 47.0736 34.4658C48.9736 36.5536 49.9626 39.6727 50.158 44.1647C45.6659 43.9683 42.5474 42.9793 40.4599 41.0793C38.2968 39.1105 37.1478 36.0778 36.8348 31.6316Z" fill="#2A2B6B" stroke="#2A2B6B"/>
</svg>