<svg xmlns="http://www.w3.org/2000/svg" width="37" height="37" viewBox="0 0 37 37" fill="none">
  <g clip-path="url(#clip0_13677_23406)">
    <circle cx="18.3298" cy="18.4861" r="18.871" transform="rotate(-180 18.3298 18.4861)" stroke="white" stroke-width="0.770244"/>
    <circle cx="18.3313" cy="18.4866" r="0.770244" transform="rotate(-180 18.3313 18.4866)" fill="#E6F2EE"/>
    <path d="M24.4922 19.2566L25.2624 19.2566L25.2624 17.7161L24.4922 17.7161L24.4922 19.2566ZM11.6236 17.9417C11.3228 18.2425 11.3228 18.7302 11.6236 19.031L16.5254 23.9328C16.8262 24.2336 17.3139 24.2336 17.6147 23.9328C17.9155 23.632 17.9155 23.1443 17.6147 22.8435L13.2576 18.4863L17.6147 14.1292C17.9155 13.8284 17.9155 13.3407 17.6147 13.0399C17.3139 12.7391 16.8262 12.7391 16.5254 13.0399L11.6236 17.9417ZM24.4922 17.7161L12.1683 17.7161L12.1683 19.2566L24.4922 19.2566L24.4922 17.7161Z" fill="white"/>
  </g>
  <defs>
    <clipPath id="clip0_13677_23406">
      <rect width="38.5122" height="38.5122" fill="white" transform="translate(37.5859 37.7422) rotate(-180)"/>
    </clipPath>
  </defs>
</svg>