<svg xmlns="http://www.w3.org/2000/svg" width="593" height="516" viewBox="0 0 593 516" fill="none">
  <g opacity="0.2" filter="url(#filter0_f_14575_1689)">
    <path d="M602 973.5C811.868 973.5 982 805.383 982 598C982 390.617 811.868 222.5 602 222.5C392.132 222.5 222 390.617 222 598C222 805.383 392.132 973.5 602 973.5Z" fill="white"/>
    <path d="M602 973.5C811.868 973.5 982 805.383 982 598C982 390.617 811.868 222.5 602 222.5C392.132 222.5 222 390.617 222 598C222 805.383 392.132 973.5 602 973.5Z" fill="url(#paint0_linear_14575_1689)"/>
  </g>
  <defs>
    <filter id="filter0_f_14575_1689" x="0.399994" y="0.899994" width="1203.2" height="1194.2" filterUnits="userSpaceOnUse" color-interpolation-filters="sRGB">
      <feFlood flood-opacity="0" result="BackgroundImageFix"/>
      <feBlend mode="normal" in="SourceGraphic" in2="BackgroundImageFix" result="shape"/>
      <feGaussianBlur stdDeviation="110.8" result="effect1_foregroundBlur_14575_1689"/>
    </filter>
    <linearGradient id="paint0_linear_14575_1689" x1="-432.894" y1="1660.59" x2="1211.99" y2="1033.55" gradientUnits="userSpaceOnUse">
      <stop offset="0.04" stop-color="#292664" stop-opacity="0"/>
      <stop offset="0.24" stop-color="#6B8ED2" stop-opacity="0.24"/>
      <stop offset="0.43" stop-color="#5CBAFF"/>
      <stop offset="0.75" stop-color="#E759AE"/>
      <stop offset="0.99" stop-color="#F4475C"/>
    </linearGradient>
  </defs>
</svg>