<svg xmlns="http://www.w3.org/2000/svg" width="37" height="37" viewBox="0 0 37 37" fill="none">
  <g clip-path="url(#clip0_13677_23401)">
    <circle cx="18.9514" cy="18.4866" r="18.871" stroke="white" stroke-width="0.770244"/>
    <circle cx="18.9499" cy="18.4861" r="0.770244" fill="#E6F2EE"/>
    <path d="M12.7891 17.7161L12.0188 17.7161L12.0188 19.2566L12.7891 19.2566L12.7891 17.7161ZM25.6576 19.031C25.9584 18.7302 25.9584 18.2425 25.6576 17.9417L20.7558 13.0399C20.455 12.7391 19.9673 12.7391 19.6665 13.0399C19.3657 13.3407 19.3657 13.8284 19.6665 14.1292L24.0237 18.4863L19.6665 22.8435C19.3657 23.1443 19.3657 23.632 19.6665 23.9328C19.9673 24.2336 20.455 24.2336 20.7558 23.9328L25.6576 19.031ZM12.7891 19.2566L25.113 19.2566L25.113 17.7161L12.7891 17.7161L12.7891 19.2566Z" fill="white"/>
  </g>
  <defs>
    <clipPath id="clip0_13677_23401">
      <rect width="38.5122" height="38.5122" fill="white" transform="translate(-0.304688 -0.769531)"/>
    </clipPath>
  </defs>
</svg>