<svg xmlns="http://www.w3.org/2000/svg" width="95" height="91" viewBox="0 0 95 91" fill="none">
  <circle cx="25.451" cy="31.4295" r="24.951" fill="#F4475C"/>
  <path d="M83.679 75.2028L83.6786 75.2031L67.3346 87.4584C65.515 88.8705 63.3279 89.5792 61.1366 89.5792C58.9455 89.5792 56.742 88.8679 54.9112 87.4419L38.5866 75.2031L38.5861 75.2028C37.1008 74.0876 35.2569 73.4744 33.4007 73.4744H30.2715C29.1166 73.4744 28.1797 72.5375 28.1797 71.3826C28.1797 70.2277 29.1166 69.2907 30.2715 69.2907H33.4034C36.1631 69.2907 38.892 70.1992 41.0966 71.8533C41.0967 71.8534 41.0967 71.8534 41.0968 71.8535L57.4456 84.1124L57.4514 84.1167L57.457 84.1211C59.6279 85.8149 62.6381 85.8075 64.7938 84.1359L64.8033 84.1285L64.8034 84.1285L81.1712 71.8534L81.1716 71.853C81.4671 71.6318 81.7715 71.4247 82.0837 71.2313L63.9813 57.6577L60.9283 60.5803C59.5416 61.9639 57.6513 62.7397 55.6833 62.7397C53.1316 62.7397 50.8981 61.4061 49.6027 59.6075L83.679 75.2028ZM83.679 75.2028C85.1643 74.0876 87.0082 73.4744 88.8644 73.4744H91.9963C93.1512 73.4744 94.0881 72.5375 94.0881 71.3826C94.0881 70.2277 93.1512 69.2907 91.9963 69.2907H88.8644C88.141 69.2907 87.421 69.3547 86.7136 69.4767L67.0439 54.7251M83.679 75.2028L67.0439 54.7251M50.6204 49.7933L50.6284 49.7857L58.1676 42.687L56.1206 40.8227C56.1205 40.8226 56.1204 40.8225 56.1203 40.8224C53.4981 38.4366 49.3662 38.0043 46.3984 39.4919L46.3979 39.4922L40.1851 42.5999L40.185 42.6C38.4115 43.4867 36.4288 43.9539 34.4473 43.9539H30.2715C29.1166 43.9539 28.1797 43.017 28.1797 41.862C28.1797 40.7071 29.1166 39.7702 30.2715 39.7702H34.4473C35.7799 39.7702 37.1197 39.4539 38.312 38.8591C38.3121 38.859 38.3123 38.8589 38.3125 38.8588L44.5233 35.752C44.5236 35.7519 44.5238 35.7518 44.524 35.7517C46.2852 34.867 48.2602 34.4028 50.2355 34.4028C53.5187 34.4028 56.5763 35.5841 58.936 37.7298L58.9367 37.7305L61.2197 39.8118L63.2767 37.8755L63.2768 37.8754C67.0993 34.2784 73.0691 33.41 77.7412 35.7517L83.9527 38.8588C83.9528 38.8589 83.953 38.859 83.9532 38.8591C85.1455 39.4539 86.4853 39.7702 87.8178 39.7702H91.9936C93.1485 39.7702 94.0855 40.7071 94.0855 41.862C94.0855 43.017 93.1485 43.9539 91.9936 43.9539H87.8178C85.8392 43.9539 83.8538 43.4868 82.0801 42.6L82.08 42.5999L75.8673 39.4922L75.8666 39.4918C72.7348 37.921 68.7028 38.5096 66.1434 40.9211L66.1432 40.9213L53.5304 52.7966C52.2927 54.0414 52.1131 55.9369 52.996 57.163C53.5868 57.9818 54.4399 58.4656 55.4109 58.5448C56.3703 58.6144 57.3174 58.2747 57.9942 57.5957L58.0004 57.5895L58.0067 57.5834L69.1836 46.8842C70.0177 46.0836 71.3442 46.1142 72.1427 46.9503L72.1427 46.9503C72.937 47.7823 72.9132 49.1076 72.0755 49.9078L72.076 49.9074L71.5573 49.3656L72.0753 49.908L50.6204 49.7933ZM50.6204 49.7933L50.6125 49.8011M50.6204 49.7933L50.6125 49.8011M67.0439 54.7251L66.4358 54.269L67.0439 54.7251ZM50.6125 49.8011C47.954 52.4567 47.483 56.6646 49.6027 59.6074L50.6125 49.8011Z" fill="#2A2B6B" stroke="#2A2B6B" stroke-width="1.5"/>
</svg>