<svg xmlns="http://www.w3.org/2000/svg" width="122" height="213" viewBox="0 0 122 213" fill="none">
  <path opacity="0.1" d="M98.748 0.163295C97.7625 0.268708 96.8121 0.479533 95.897 0.69036C14.8024 16.3618 -13.2146 84.3884 -21.4859 112.815C-23.2458 118.859 -30.0389 121.88 -35.6704 119.104C-51.3684 111.444 -82.8348 100.06 -124.438 104.522C-185.329 111.058 -214.508 167.138 -214.508 167.138L-209.651 212.114C-209.651 212.114 -188.743 147.109 -121.059 139.871C-72.17 134.635 -39.6125 167.103 -25.3224 185.55C-19.5149 193.034 -10.2932 196.935 -0.895538 195.951C10.3324 194.756 18.5334 184.953 17.9702 173.673C12.0219 57.6486 103.148 41.0285 103.148 41.0285C114.446 39.7986 122.647 29.679 121.415 18.3998C120.183 7.12056 110.046 -1.06652 98.748 0.163295Z" fill="url(#paint0_linear_12163_58204)"/>
  <defs>
    <linearGradient id="paint0_linear_12163_58204" x1="-198.928" y1="214.809" x2="142.822" y2="45.0517" gradientUnits="userSpaceOnUse">
      <stop offset="0.04" stop-color="#292664" stop-opacity="0"/>
      <stop offset="0.24" stop-color="#6B8ED2" stop-opacity="0.24"/>
      <stop offset="0.43" stop-color="#5CBAFF"/>
      <stop offset="0.75" stop-color="#E759AE"/>
      <stop offset="0.99" stop-color="#F4475C"/>
    </linearGradient>
  </defs>
</svg>